<?xml version="1.0" standalone="no"?>
<!DOCTYPE svg PUBLIC "-//W3C//DTD SVG 1.1//EN" "http://www.w3.org/Graphics/SVG/1.1/DTD/svg11.dtd" >
<svg>
<metadata>
Created by FontForge 20120731 at Wed Jul 20 16:13:14 2016
 By ,,,
(c) 2015 Connary Fagen
</metadata>
<defs>
<font id="VisbyCF-ExtraBoldOblique" horiz-adv-x="595" >
  <font-face 
    font-family="Visby CF Heavy"
    font-weight="800"
    font-style="oblique"
    font-stretch="normal"
    units-per-em="1000"
    panose-1="0 0 9 0 0 0 0 0 0 0"
    ascent="800"
    descent="-200"
    x-height="520"
    cap-height="700"
    bbox="-306 -270 1229 981"
    underline-thickness="50"
    underline-position="-50"
    slope="-7"
    unicode-range="U+0020-FB02"
  />
<missing-glyph horiz-adv-x="495" 
d="M406 800v-990h-314v990h314zM330 734h-164v-33h65v-37h-66v-32h165v32h-66v37h66v33zM264 606h-99v-103h165v34h-66v69zM231 572v-35h-33v35h33zM330 476h-165v-32h66v-37h-66v-33h99v70h66v32zM330 417h-33v-65h-132v-34h165v99zM330 296h-99v-55h33v22h33v-46h-99v79
h-33v-112h165v112zM330 125h-165v-112h165v112zM297 92v-46h-99v46h99zM330 -10h-165v-32h70l-70 -47v-33h165v33h-101l69 47h32v32z" />
    <glyph glyph-name="fi" unicode="fi" horiz-adv-x="601" 
d="M307 600q-23 0 -36.5 -11t-16.5 -22.5t-5 -26.5v-4l-2 -16h103l-13 -112h-103l-50 -408h-131l49 408h-63l13 112h64l2 17q7 53 29 89.5t53.5 53t58 22.5t54.5 6q65 0 117 -29l-55 -91q-28 12 -68 12zM442 520h131l-64 -520h-131z" />
    <glyph glyph-name="fl" unicode="fl" horiz-adv-x="643" 
d="M504 700h133l-86 -700h-133l68 554q-58 41 -128 41q-54 0 -87 -21.5t-37 -51.5v-2h119l-15 -106h-117l-51 -414h-131l51 414h-51l14 106h50l2 10q6 51 34 88t67.5 55t75.5 26t71 8q78 0 147 -38z" />
    <glyph glyph-name="f_f" unicode="ff" horiz-adv-x="828" 
d="M719 600q-53 0 -61 -66l-2 -14h125l-15 -106h-123l-50 -414h-131l50 414h-37h-241l-50 -414h-131l51 414h-65l14 106h64l4 30q19 157 187 157q48 0 89.5 -19.5t58.5 -47.5l-51 -84q-52 39 -99 39q-49 0 -57 -59l-2 -16h243h35l2 17q5 43 22 75t37.5 50t47 29t47.5 14
t43 3q66 0 125 -32l-53 -91q-38 15 -77 15z" />
    <glyph glyph-name=".notdef" horiz-adv-x="495" 
d="M406 800v-990h-314v990h314zM330 734h-164v-33h65v-37h-66v-32h165v32h-66v37h66v33zM264 606h-99v-103h165v34h-66v69zM231 572v-35h-33v35h33zM330 476h-165v-32h66v-37h-66v-33h99v70h66v32zM330 417h-33v-65h-132v-34h165v99zM330 296h-99v-55h33v22h33v-46h-99v79
h-33v-112h165v112zM330 125h-165v-112h165v112zM297 92v-46h-99v46h99zM330 -10h-165v-32h70l-70 -47v-33h165v33h-101l69 47h32v32z" />
    <glyph glyph-name=".null" horiz-adv-x="0" 
 />
    <glyph glyph-name="nonmarkingreturn" horiz-adv-x="333" 
 />
    <glyph glyph-name="space" unicode=" " horiz-adv-x="300" 
 />
    <glyph glyph-name="exclam" unicode="!" horiz-adv-x="293" 
d="M258 700l-58 -479h-148l59 479h147zM188 144l-17 -144h-146l17 144h146z" />
    <glyph glyph-name="quotedbl" unicode="&#x22;" horiz-adv-x="464" 
d="M205 700l-22 -175h-131l22 175h131zM445 700l-22 -175h-131l22 175h131z" />
    <glyph glyph-name="numbersign" unicode="#" horiz-adv-x="552" 
d="M513 408h-57l-23 -115h66l-14 -113h-74l-34 -180h-131l34 180h-81l-34 -180h-131l34 180h-43l14 113h51l23 115h-60l14 112h68l35 180h131l-35 -180h81l35 180h131l-35 -180h49zM302 293l23 115h-81l-23 -115h81z" />
    <glyph glyph-name="dollar" unicode="$" horiz-adv-x="549" 
d="M326 425q181 -68 181 -202q0 -90 -60 -147t-145 -76l-11 -90h-108l11 86q-69 11 -118 54t-63 107l111 49q11 -41 46 -69.5t81 -28.5q51 0 89 26.5t38 76.5q0 34 -22 53t-78 41l-33 13q-76 29 -118 70.5t-42 107.5q0 80 56.5 136t139.5 71l10 87h108l-11 -90
q54 -14 91.5 -50t54.5 -81l-119 -40q-21 63 -99 63q-41 0 -70.5 -22.5t-29.5 -58.5q0 -26 17.5 -42t60.5 -33z" />
    <glyph glyph-name="percent" unicode="%" horiz-adv-x="701" 
d="M215 705q52 0 83.5 -35.5t24.5 -87.5q-6 -52 -46.5 -87.5t-92.5 -35.5t-83.5 35.5t-25.5 87.5q7 52 47.5 87.5t92.5 35.5zM560 702l95 -65l-505 -637l-96 65zM202 608q-11 0 -19 -7.5t-9 -18.5t5.5 -18.5t17.5 -7.5t19 7.5t8 18.5q1 11 -5 18.5t-17 7.5zM538 241
q52 0 83.5 -35.5t25.5 -87.5q-7 -52 -47.5 -87.5t-92.5 -35.5t-83.5 35.5t-24.5 87.5q6 52 46.5 87.5t92.5 35.5zM525 144q-11 0 -18.5 -7.5t-8.5 -18.5t5 -18.5t17 -7.5t19.5 7.5t9.5 18.5q0 11 -7 18.5t-17 7.5z" />
    <glyph glyph-name="ampersand" unicode="&#x26;" horiz-adv-x="758" 
d="M602 156q-4 -30 3 -39.5t25 -9.5q38 0 74 25l-11 -117q-31 -21 -78 -21q-55 0 -80.5 31.5t-20.5 81.5q-70 -117 -227 -117q-108 0 -177 62t-53 176q11 83 65.5 134.5t123.5 65.5l-101 272h467l-17 -112h-294l97 -248h-47q-63 0 -110.5 -36t-55.5 -90t24 -82.5t91 -28.5
q66 0 119.5 34t63.5 108l26 178h204l-15 -112h-74z" />
    <glyph glyph-name="quotesingle" unicode="'" horiz-adv-x="212" 
d="M226 700l-22 -175h-131l22 175h131z" />
    <glyph glyph-name="parenleft" unicode="(" horiz-adv-x="326" 
d="M199 747l127 -4q-125 -186 -154 -430q-32 -254 45 -445l-124 4q-83 191 -51 455q31 246 157 420z" />
    <glyph glyph-name="parenright" unicode=")" horiz-adv-x="326" 
d="M96 747l123 -4q85 -178 55 -430q-32 -257 -160 -445l-128 4q127 196 158 455q30 237 -48 420z" />
    <glyph glyph-name="asterisk" unicode="*" horiz-adv-x="518" 
d="M467 548l-101 -27l57 -88l-98 -58l-52 86l-68 -86l-89 58l76 89l-93 26l38 109l105 -32l10 113h106l-15 -113l109 32z" />
    <glyph glyph-name="plus" unicode="+" horiz-adv-x="418" 
d="M383 334l-13 -106h-116l-14 -114h-109l14 114h-110l13 106h110l14 115h109l-14 -115h116z" />
    <glyph glyph-name="comma" unicode="," horiz-adv-x="264" 
d="M-33 -135l83 238h169l-137 -238h-115z" />
    <glyph glyph-name="hyphen" unicode="-" horiz-adv-x="400" 
d="M353 329l-13 -107h-310l13 107h310z" />
    <glyph glyph-name="period" unicode="." horiz-adv-x="191" 
d="M151 144l-17 -144h-146l17 144h146z" />
    <glyph glyph-name="slash" unicode="/" horiz-adv-x="564" 
d="M569 745l-447 -875h-137l447 875h137z" />
    <glyph glyph-name="zero" unicode="0" horiz-adv-x="677" 
d="M383 707q114 0 189.5 -76t75.5 -212q0 -52 -10.5 -107.5t-36 -113.5t-63.5 -102.5t-98 -73.5t-133 -29q-115 0 -190 77.5t-75 222.5q0 52 11 106.5t37 110.5t64 99t97.5 70.5t131.5 27.5zM381 595q-60 0 -103.5 -32t-64.5 -82t-30.5 -98t-9.5 -95q0 -182 136 -182
q41 0 75 16t56 44t38 60.5t24.5 69t12 66t3.5 56.5q0 77 -31.5 127t-105.5 50z" />
    <glyph glyph-name="one" unicode="1" horiz-adv-x="375" 
d="M344 700l-86 -700h-131l72 588h-114l14 112h245z" />
    <glyph glyph-name="two" unicode="2" horiz-adv-x="561" 
d="M325 707q103 0 162 -67t49 -152q-6 -46 -28 -86t-56.5 -79t-117.5 -125l-84 -84h231l-14 -114h-466l5 36l192 200q26 27 58 60t47.5 49t35 37.5t28 32t18 24.5t13 25t5.5 24q6 55 -23.5 79.5t-68.5 24.5q-36 0 -70.5 -25t-40.5 -75l-3 -19h-134l4 19q10 83 82.5 149
t175.5 66z" />
    <glyph glyph-name="three" unicode="3" horiz-adv-x="581" 
d="M132 191q29 -88 118 -88q65 0 109 43t44 108q0 45 -29.5 74t-83.5 29q-35 0 -71 -11l154 242h-257l17 112h453l-182 -257q53 -8 91 -61t38 -124q0 -116 -84 -192t-201 -76q-85 0 -147 43.5t-80 110.5z" />
    <glyph glyph-name="four" unicode="4" horiz-adv-x="582" 
d="M526 700l-50 -408h75l-14 -113h-75l-22 -179h-131l22 179h-306l14 113l356 408h131zM371 505l-189 -213h163z" />
    <glyph glyph-name="five" unicode="5" horiz-adv-x="569" 
d="M513 700l-14 -112h-252l-30 -129l27 8q28 8 60 8q93 0 155.5 -59t62.5 -152q0 -113 -83 -193.5t-193 -80.5q-170 0 -227 143l110 52q5 -4 16 -20t21.5 -28.5t35.5 -23t58 -10.5q41 0 86 38t45 113q0 57 -34 83.5t-76 26.5q-53 0 -104 -39l-113 31l87 344h362z" />
    <glyph glyph-name="six" unicode="6" horiz-adv-x="539" 
d="M509 700l-209 -249q-1 -3 -3 -6q2 -2 3 -2q84 0 146.5 -70.5t51.5 -159.5q-12 -95 -90.5 -159t-169.5 -64q-92 0 -156.5 64t-52.5 159q4 35 14.5 66t30 61.5t30.5 46t39 48t34 39.5l188 226h144zM277 322q-51 0 -84.5 -32.5t-40.5 -76.5q-6 -48 22.5 -78.5t77.5 -30.5
q47 0 81.5 30.5t40.5 78.5q6 42 -22 75.5t-75 33.5z" />
    <glyph glyph-name="seven" unicode="7" horiz-adv-x="507" 
d="M531 700l-356 -700h-138l299 588h-266l14 112h447z" />
    <glyph glyph-name="eight" unicode="8" horiz-adv-x="570" 
d="M440 398q47 -23 72.5 -71.5t17.5 -108.5q-13 -100 -96.5 -162.5t-179.5 -62.5q-95 0 -163.5 62.5t-56.5 162.5q8 60 45.5 108.5t90.5 71.5q-61 52 -51 128q9 75 72 128t152 53t138.5 -53t40.5 -128q-10 -76 -82 -128zM246 519q-4 -30 14 -53t49 -23t55 23t28 53
q4 31 -15 52t-49 21t-54 -21t-28 -52zM269 111q45 0 80.5 30t41.5 77q6 52 -23 82.5t-71 30.5q-43 0 -80 -30.5t-44 -82.5q-5 -47 23 -77t73 -30z" />
    <glyph glyph-name="nine" unicode="9" horiz-adv-x="549" 
d="M306 709q93 0 159.5 -67.5t54.5 -162.5q-4 -29 -13.5 -57.5t-19.5 -49t-31 -50t-32.5 -44t-40.5 -48.5t-40 -48l-154 -183h-147l220 255q-2 1 1 2q-90 0 -155.5 72t-53.5 165q11 90 87.5 153t164.5 63zM305 595q-48 0 -85.5 -34t-43.5 -82q-5 -41 21 -71.5t70 -30.5
q53 0 90 34.5t43 81.5q5 43 -22 72.5t-73 29.5z" />
    <glyph glyph-name="colon" unicode=":" horiz-adv-x="236" 
d="M223 520l-18 -144h-145l17 144h146zM176 144l-17 -144h-146l17 144h146z" />
    <glyph glyph-name="semicolon" unicode=";" horiz-adv-x="284" 
d="M254 520l-17 -144h-146l18 144h145zM-38 -135l83 238h169l-137 -238h-115z" />
    <glyph glyph-name="less" unicode="&#x3c;" horiz-adv-x="497" 
d="M478 481l-15 -122l-249 -119l220 -117l-16 -123l-389 220l7 41z" />
    <glyph glyph-name="equal" unicode="=" horiz-adv-x="432" 
d="M402 409l-13 -107h-335l13 107h335zM383 249l-13 -107h-335l13 107h335z" />
    <glyph glyph-name="greater" unicode="&#x3e;" horiz-adv-x="497" 
d="M52 481l389 -220l-7 -41l-442 -220l15 123l248 117l-219 119z" />
    <glyph glyph-name="question" unicode="?" horiz-adv-x="536" 
d="M327 707q93 0 154 -58t50 -152q-6 -44 -24 -76t-41 -50.5t-45 -36t-39.5 -44.5t-22.5 -65l-2 -9h-136l1 9q6 46 25 80.5t42.5 55t47 39t41.5 42.5t22 55q4 37 -14 67.5t-72 30.5q-56 0 -85.5 -34t-34.5 -78h-131q12 102 90.5 163t173.5 61zM354 144l-18 -144h-146l18 144
h146z" />
    <glyph glyph-name="at" unicode="@" horiz-adv-x="790" 
d="M452 707q139 0 231 -102.5t73 -258.5q-11 -86 -60 -133.5t-116 -47.5q-42 0 -67.5 14t-32.5 35q-9 -18 -40 -34t-69 -16q-64 0 -109.5 48.5t-35.5 134.5q10 85 68 133.5t122 48.5q48 0 68 -21l2 9h99q-58 72 -148 72q-95 0 -173.5 -69.5t-91.5 -173.5q-12 -100 49 -168.5
t152 -68.5q73 0 141 48l108 -48q-52 -54 -120 -85t-137 -31q-67 0 -128.5 26.5t-107 72t-69 112.5t-14.5 142q19 155 142.5 258t263.5 103zM630 347q12 98 -45 170l-24 -196q-6 -40 29 -40q19 0 27.5 16.5t12.5 49.5zM457 348q4 33 -7.5 56t-43.5 23q-59 0 -71 -79
q-2 -26 9.5 -48.5t42.5 -22.5t49.5 23t20.5 48z" />
    <glyph glyph-name="A" unicode="A" horiz-adv-x="747" 
d="M533 0l-38 119h-284l-68 -119h-150l441 707h6l240 -707h-147zM274 227h187l-67 207z" />
    <glyph glyph-name="B" unicode="B" horiz-adv-x="627" 
d="M472 387q65 -30 93 -76.5t20 -102.5q-11 -96 -86.5 -152t-199.5 -56h-271l86 700h262q97 0 150 -47t43 -138q-6 -41 -30.5 -75t-66.5 -53zM214 431h129q85 0 93 78q5 37 -15 57t-60 20h-128zM328 114q57 0 89 28.5t38 72.5q6 42 -20 72.5t-82 30.5h-153l-25 -204h153z
" />
    <glyph glyph-name="C" unicode="C" horiz-adv-x="666" 
d="M443 707q136 0 220 -87l-95 -99q-58 56 -139 56q-85 0 -154.5 -66t-80.5 -161q-13 -95 40 -161t139 -66q80 0 156 59l70 -99q-110 -90 -244 -90q-65 0 -125 26.5t-104.5 72.5t-66.5 113.5t-13 143.5q19 153 139.5 255.5t257.5 102.5z" />
    <glyph glyph-name="D" unicode="D" horiz-adv-x="700" 
d="M361 700q148 0 238 -101.5t72 -245.5q-18 -148 -132.5 -250.5t-263.5 -102.5h-247l86 700h247zM289 114q100 0 167 67.5t80 171.5q13 101 -37.5 167t-151.5 66h-112l-58 -472h112z" />
    <glyph glyph-name="E" unicode="E" 
d="M28 0l86 700h138l-35 -290h231l-15 -117h-231l1 2l-22 -177h341l-14 -118h-480zM569 582h-331l14 118h332z" />
    <glyph glyph-name="F" unicode="F" horiz-adv-x="578" 
d="M28 0l86 700h137l-44 -360l8 64h275l-16 -119h-274l-35 -285h-137zM568 582h-331l14 118h331z" />
    <glyph glyph-name="G" unicode="G" horiz-adv-x="762" 
d="M728 354q-10 -162 -116 -261.5t-249 -99.5q-144 0 -240 101.5t-77 255.5q19 153 139.5 255t262.5 102q149 0 225 -101l-94 -92q-21 27 -59 45t-86 18q-86 0 -157 -65t-83 -161t45 -162t144 -66q62 0 110.5 30t75.5 84h-99l14 117h244z" />
    <glyph glyph-name="H" unicode="H" horiz-adv-x="714" 
d="M703 700l-86 -700h-135l37 291h-320l-36 -291h-135l86 700h135l-36 -294h320l35 294h135z" />
    <glyph glyph-name="I" unicode="I" horiz-adv-x="262" 
d="M251 700l-86 -700h-137l86 700h137z" />
    <glyph glyph-name="J" unicode="J" horiz-adv-x="561" 
d="M540 700l-54 -439q-17 -139 -95.5 -203.5t-185.5 -64.5q-128 0 -192 84l94 82q32 -47 98 -47q30 0 50 5.5t43.5 22.5t38.5 56.5t23 100.5l49 403h131z" />
    <glyph glyph-name="K" unicode="K" horiz-adv-x="745" 
d="M740 700l-324 -348l267 -352h-157l-198 260l-152 -162l-12 -98h-136l86 700h136l-52 -410l378 410h164z" />
    <glyph glyph-name="L" unicode="L" horiz-adv-x="544" 
d="M249 700l-86 -700h-135l86 700h135zM481 113l-14 -113h-304l14 113h304z" />
    <glyph glyph-name="M" unicode="M" horiz-adv-x="851" 
d="M840 700l-86 -700h-135l49 395l-222 -395h-112l-122 393l-49 -393h-135l86 700h130l171 -511l295 511h130z" />
    <glyph glyph-name="N" unicode="N" horiz-adv-x="687" 
d="M676 700l-86 -700h-4l-374 401l-49 -401h-135l86 700h3l375 -400l50 400h134z" />
    <glyph glyph-name="O" unicode="O" horiz-adv-x="784" 
d="M442 707q66 0 126.5 -26.5t104 -72.5t65 -113.5t12.5 -144.5q-19 -153 -138.5 -255t-257.5 -102q-87 0 -161.5 44.5t-116.5 128t-30 184.5q19 152 140 254.5t256 102.5zM428 577q-84 0 -152.5 -63.5t-80.5 -163.5t41 -163.5t136 -63.5q88 0 153 63t78 164q12 101 -38 164
t-137 63z" />
    <glyph glyph-name="P" unicode="P" horiz-adv-x="598" 
d="M356 700q108 0 169.5 -53t61.5 -137q0 -109 -78.5 -180.5t-207.5 -71.5h-107l-31 -258h-135l86 700h242zM311 377q63 0 101.5 30.5t38.5 86.5q0 42 -30.5 64.5t-83.5 22.5h-102l-27 -204h103z" />
    <glyph glyph-name="Q" unicode="Q" horiz-adv-x="790" 
d="M442 707q66 0 126.5 -26.5t104 -72.5t65 -113.5t12.5 -144.5q-16 -131 -110 -228l78 -122h-155l-27 42q-90 -49 -182 -49q-87 0 -161.5 44.5t-116.5 128t-30 184.5q19 152 140 254.5t256 102.5zM519 311l47 -73q30 50 37 112q12 101 -38 164t-137 63q-84 0 -152.5 -63.5
t-80.5 -163.5t41 -163.5t136 -63.5q53 0 98 24l-105 164h154z" />
    <glyph glyph-name="R" unicode="R" horiz-adv-x="659" 
d="M592 0h-152l-135 258h-4h-107l-31 -258h-135l86 700h242q108 0 169.5 -53t61.5 -137q0 -76 -40 -136t-111 -90zM235 581l-27 -204h103q63 0 101.5 30.5t38.5 86.5q0 42 -30.5 64.5t-83.5 22.5h-102z" />
    <glyph glyph-name="S" unicode="S" horiz-adv-x="568" 
d="M342 707q80 0 134.5 -40t77.5 -98l-123 -40q-23 63 -104 63q-41 0 -72 -22.5t-31 -58.5q0 -26 18 -42t63 -33l33 -11q189 -69 189 -202q0 -74 -46 -128.5t-108 -78t-127 -23.5q-87 0 -151.5 45t-82.5 119l116 49q11 -41 47.5 -69.5t85.5 -28.5q52 0 91.5 26.5t39.5 76.5
q0 34 -23 53t-81 41l-34 13q-79 30 -123 71.5t-44 106.5q0 92 77 151.5t178 59.5z" />
    <glyph glyph-name="T" unicode="T" horiz-adv-x="580" 
d="M599 700l-14 -119h-184l-71 -581h-143l72 581h-184l14 119h327h183z" />
    <glyph glyph-name="U" unicode="U" horiz-adv-x="683" 
d="M672 700l-56 -452q-14 -115 -104.5 -185t-204.5 -70q-118 0 -195 73t-62 189l54 445h131l-56 -451q-8 -75 29.5 -109t100.5 -34q66 0 116.5 37.5t60.5 112.5l55 444h131z" />
    <glyph glyph-name="V" unicode="V" horiz-adv-x="755" 
d="M774 700l-423 -700h-21l-251 700h149l144 -443l252 443h150z" />
    <glyph glyph-name="W" unicode="W" horiz-adv-x="1081" 
d="M1100 700l-368 -700h-11l-162 438l-273 -438h-12l-195 700h142l103 -402l251 402h23l152 -402l202 402h148z" />
    <glyph glyph-name="X" unicode="X" horiz-adv-x="726" 
d="M729 700l-281 -346l201 -354h-154l-138 243l-197 -243h-157l289 357l-195 343h154l131 -231l187 231h160z" />
    <glyph glyph-name="Y" unicode="Y" horiz-adv-x="716" 
d="M740 700l-315 -406l-36 -294h-131l36 294l-215 406h149l146 -288l216 288h150z" />
    <glyph glyph-name="Z" unicode="Z" horiz-adv-x="625" 
d="M640 700l-414 -587h346l-14 -113h-555l414 588h-323l14 112h532z" />
    <glyph glyph-name="bracketleft" unicode="[" horiz-adv-x="298" 
d="M301 745l-14 -112h-76l-80 -651h77l-14 -112h-208l107 875h208z" />
    <glyph glyph-name="backslash" unicode="\" horiz-adv-x="560" 
d="M224 745l233 -875h-131l-233 875h131z" />
    <glyph glyph-name="bracketright" unicode="]" horiz-adv-x="298" 
d="M301 745l-107 -875h-208l14 112h77l79 651h-76l13 112h208z" />
    <glyph glyph-name="asciicircum" unicode="^" horiz-adv-x="496" 
d="M326 700l139 -225h-88l-97 107l-128 -107h-93l195 225h72z" />
    <glyph glyph-name="underscore" unicode="_" horiz-adv-x="590" 
d="M502 0l-14 -113h-500l14 113h500z" />
    <glyph glyph-name="grave" unicode="`" horiz-adv-x="258" 
d="M64 700h154l68 -129h-98z" />
    <glyph glyph-name="a" unicode="a" horiz-adv-x="607" 
d="M453 520h131l-64 -520h-131l7 62q-8 -23 -53 -46t-97 -23q-93 0 -159.5 70.5t-51.5 196.5q10 84 57 147t104.5 91t115.5 28q99 0 134 -60zM427 260q10 79 -22.5 116.5t-86.5 37.5q-53 0 -98 -42t-54 -112t26.5 -112t88.5 -42q54 0 95 37.5t51 116.5z" />
    <glyph glyph-name="b" unicode="b" horiz-adv-x="617" 
d="M360 526q85 0 152 -61.5t67 -170.5q0 -51 -18 -103t-51 -97t-86.5 -73t-117.5 -28q-54 0 -94.5 25t-43.5 49l-9 -67h-131l86 700h131l-30 -229q58 55 145 55zM290 106q72 0 115.5 59.5t43.5 124.5q0 57 -32.5 90.5t-76.5 33.5q-55 0 -92.5 -31.5t-51.5 -72.5t-14 -87
q0 -61 30 -89t78 -28z" />
    <glyph glyph-name="c" unicode="c" horiz-adv-x="560" 
d="M333 526q63 0 116.5 -30.5t82.5 -90.5l-112 -47q-14 26 -41 41t-60 15q-63 0 -109.5 -54.5t-46.5 -123.5q0 -60 36 -95t82 -35q71 0 115 55l101 -47q-44 -60 -105 -90.5t-125 -30.5q-88 0 -161 61.5t-73 168.5q0 125 89.5 214t210.5 89z" />
    <glyph glyph-name="d" unicode="d" horiz-adv-x="607" 
d="M475 700h131l-86 -700h-131l7 58q-8 -23 -50.5 -44t-93.5 -21q-86 0 -152.5 61t-66.5 171q0 50 18 102t51 97t86.5 73.5t117.5 28.5q96 0 139 -59zM272 106q55 0 92.5 31.5t51.5 72.5t14 87q0 61 -30 89t-78 28q-72 0 -115.5 -60.5t-43.5 -123.5q0 -58 32.5 -91t76.5 -33
z" />
    <glyph glyph-name="e" unicode="e" 
d="M329 526q40 0 79.5 -14.5t73 -41.5t54 -71.5t20.5 -98.5q0 -57 -12 -86h-380q4 -51 40 -79.5t85 -28.5q61 0 108 33l91 -56q-89 -90 -213 -90q-93 0 -167.5 60t-74.5 169q0 124 88.5 214t207.5 90zM315 414q-44 0 -82.5 -27.5t-55.5 -79.5h251q-5 51 -37.5 79t-75.5 28z
" />
    <glyph glyph-name="f" unicode="f" horiz-adv-x="419" 
d="M310 600q-53 0 -61 -66l-2 -14h124l-14 -106h-123l-50 -414h-131l50 414h-64l14 106h63l2 17q5 43 22 75t37.5 50t47 29t47.5 14t43 3q65 0 125 -32l-53 -91q-38 15 -77 15z" />
    <glyph glyph-name="g" unicode="g" horiz-adv-x="608" 
d="M443 520h131l-64 -524q-7 -54 -36.5 -95.5t-71 -63t-82.5 -32t-79 -10.5q-39 0 -74 9t-45 14t-33 18l9 111q69 -40 145 -40q57 0 94 29t42 68l7 54q-9 -23 -51 -44t-93 -21q-43 0 -84 17.5t-74.5 50t-49.5 86.5t-8 120q15 122 97 190.5t173 68.5q95 0 138 -59zM418 267
q8 76 -22.5 111.5t-84.5 35.5q-53 0 -100.5 -44.5t-56.5 -116.5q-8 -68 25 -107.5t83 -39.5q57 0 101 40t55 121z" />
    <glyph glyph-name="h" unicode="h" horiz-adv-x="612" 
d="M245 700l-34 -279q8 33 51 68.5t107 35.5q98 0 154.5 -59t42.5 -175l-36 -291h-131l35 290q9 67 -12 95t-68 28q-59 0 -104.5 -46t-55.5 -79l-35 -288h-131l86 700h131z" />
    <glyph glyph-name="i" unicode="i" horiz-adv-x="253" 
d="M245 700l-13 -108h-131l13 108h131zM225 520l-64 -520h-133l64 520h133z" />
    <glyph glyph-name="j" unicode="j" horiz-adv-x="273" 
d="M262 700l-13 -108h-131l13 108h131zM240 520l-71 -575q-18 -150 -164 -150q-46 0 -108 26l11 127q11 -3 25.5 -7.5t22 -7t17.5 -4.5t18 -2q22 0 35.5 21t16.5 45l66 527h131z" />
    <glyph glyph-name="k" unicode="k" horiz-adv-x="598" 
d="M565 520l-240 -222l221 -298h-152l-160 213l-55 -50l-20 -163h-131l86 700h131l-47 -379l211 199h156z" />
    <glyph glyph-name="l" unicode="l" horiz-adv-x="253" 
d="M247 700l-86 -700h-133l86 700h133z" />
    <glyph glyph-name="m" unicode="m" horiz-adv-x="980" 
d="M752 525q87 0 139 -59t36 -183l-34 -283h-132l33 282q9 63 -15.5 97.5t-78.5 34.5q-49 0 -87.5 -35t-55.5 -84l-36 -295h-132l33 282q9 62 -17.5 97t-75.5 35q-55 0 -91.5 -33t-52.5 -86l-35 -295h-132l64 520h131l-13 -105q10 39 55.5 74.5t117.5 35.5q58 0 106 -29.5
t68 -87.5q25 43 76.5 80t128.5 37z" />
    <glyph glyph-name="n" unicode="n" horiz-adv-x="604" 
d="M384 525q83 0 133.5 -55.5t36.5 -169.5l-37 -300h-131l36 292q15 122 -81 122q-55 0 -97.5 -38t-57.5 -78l-37 -298h-131l64 520h131l-13 -101q16 33 66 69.5t118 36.5z" />
    <glyph glyph-name="o" unicode="o" horiz-adv-x="602" 
d="M332 526q53 0 104.5 -24t89.5 -79t38 -128q0 -123 -89.5 -212.5t-208.5 -89.5q-54 0 -105.5 23.5t-89.5 78t-38 128.5q0 123 90 213t209 90zM317 412q-64 0 -108.5 -53.5t-44.5 -125.5q0 -59 34.5 -92.5t81.5 -33.5q64 0 108.5 53t44.5 124q0 60 -34.5 94t-81.5 34z" />
    <glyph glyph-name="p" unicode="p" horiz-adv-x="617" 
d="M360 526q94 0 162.5 -73.5t53.5 -199.5q-10 -84 -56 -145.5t-101.5 -88t-112.5 -26.5q-54 0 -94.5 25t-43.5 49l-32 -257h-131l87 710h131l-7 -48q54 54 144 54zM447 267q8 67 -25 107t-82 40q-58 0 -101.5 -40t-54.5 -121q-9 -76 21.5 -111.5t84.5 -35.5q53 0 100.5 44
t56.5 117z" />
    <glyph glyph-name="q" unicode="q" horiz-adv-x="612" 
d="M453 520h131l-87 -710h-131l30 248q-8 -23 -50.5 -44t-93.5 -21q-43 0 -84 17.5t-74.5 50t-49.5 86.5t-8 120q15 122 97 190.5t173 68.5q95 0 138 -59zM428 267q9 76 -21.5 111.5t-84.5 35.5q-53 0 -100.5 -44.5t-56.5 -116.5q-8 -68 25 -107.5t82 -39.5q58 0 101.5 40
t54.5 121z" />
    <glyph glyph-name="r" unicode="r" horiz-adv-x="455" 
d="M405 525q29 0 47 -3l-16 -122q-15 2 -46 2q-70 0 -128.5 -47t-74.5 -123l16 123q17 74 70.5 122t131.5 48zM223 520l-64 -520h-131l64 520h131z" />
    <glyph glyph-name="s" unicode="s" horiz-adv-x="485" 
d="M332 369q-25 47 -71 47q-23 0 -38.5 -12t-15.5 -31q0 -28 37 -43l63 -24q34 -13 50 -20.5t39 -23t33 -37.5t10 -52q0 -83 -69 -131.5t-159 -48.5q-75 0 -131.5 36.5t-65.5 101.5l115 34q10 -30 37 -45t59 -15q30 0 53.5 15.5t23.5 39.5t-41 42l-60 24q-69 27 -100.5 55.5
t-31.5 75.5q0 74 60.5 121.5t142.5 47.5q142 0 181 -128z" />
    <glyph glyph-name="t" unicode="t" horiz-adv-x="368" 
d="M242 414l-32 -257q-8 -50 36 -50q34 0 70 12l-14 -107q-38 -18 -101 -18q-67 0 -100.5 34t-22.5 127l33 259h-67l13 106h67l11 90h131l-11 -90h110l-12 -106h-111z" />
    <glyph glyph-name="u" unicode="u" 
d="M206 520l-36 -295q-8 -62 11.5 -90.5t55.5 -28.5q58 0 110 49.5t61 90.5l-17 -140q-12 -37 -60 -75t-109 -38q-92 0 -144 57.5t-38 173.5l37 296h129zM572 520l-64 -520h-130l64 520h130z" />
    <glyph glyph-name="v" unicode="v" horiz-adv-x="579" 
d="M581 520l-322 -520h-8l-194 520h133l95 -280l163 280h133z" />
    <glyph glyph-name="w" unicode="w" horiz-adv-x="783" 
d="M785 520l-278 -520h-3l-110 299l-183 -299h-4l-150 520h128l73 -269l161 269h4l96 -269l139 269h127z" />
    <glyph glyph-name="x" unicode="x" horiz-adv-x="614" 
d="M591 520l-214 -247l170 -273h-142l-111 178l-154 -178h-147l240 277l-151 243h141l93 -149l129 149h146z" />
    <glyph glyph-name="y" unicode="y" horiz-adv-x="609" 
d="M479 520h132l-375 -710h-131l108 207l-156 503h127l109 -353z" />
    <glyph glyph-name="z" unicode="z" horiz-adv-x="528" 
d="M530 520l-307 -407h236l-15 -113h-446l304 408h-242l14 112h456z" />
    <glyph glyph-name="braceleft" unicode="{" horiz-adv-x="336" 
d="M339 745l-13 -112h-31q-16 0 -29 -10t-14 -25l-27 -224l-62 -68l43 -66l-27 -230q-3 -28 28 -28h39l-14 -112h-91q-42 0 -72.5 26t-23.5 85l32 254l-37 71l53 73l33 262q12 104 115 104h98z" />
    <glyph glyph-name="bar" unicode="|" horiz-adv-x="263" 
d="M243 800l-121 -990h-113l121 990h113z" />
    <glyph glyph-name="braceright" unicode="}" horiz-adv-x="336" 
d="M184 745q41 0 72.5 -26t24.5 -85l-32 -255l37 -73l-53 -71l-33 -261q-14 -104 -116 -104h-98l14 112h31q16 0 28.5 10t14.5 25l26 223l64 66l-45 68l27 231q4 28 -27 28h-39l13 112h91z" />
    <glyph glyph-name="asciitilde" unicode="~" horiz-adv-x="521" 
d="M172 372q44 0 107 -35t92 -35q23 0 39 7t16 18h50q0 -55 -32 -90.5t-92 -35.5q-44 0 -109 39.5t-96 39.5q-23 0 -38.5 -10t-14.5 -24h-49q0 55 32.5 90.5t94.5 35.5z" />
    <glyph glyph-name="exclamdown" unicode="&#xa1;" horiz-adv-x="282" 
d="M257 520l-18 -144h-145l17 144h146zM231 300l-59 -480h-147l59 480h147z" />
    <glyph glyph-name="cent" unicode="&#xa2;" horiz-adv-x="558" 
d="M335 186q40 13 69 47l100 -46q-69 -96 -183 -115l-14 -112h-113l15 117q-71 20 -119.5 75.5t-48.5 140.5q0 103 66 183.5t164 104.5l14 119h113l-14 -114q108 -17 156 -114l-112 -46q-18 33 -58 47zM170 306q0 -71 54 -108l32 262q-39 -23 -62.5 -65t-23.5 -89z" />
    <glyph glyph-name="sterling" unicode="&#xa3;" horiz-adv-x="614" 
d="M368 707q95 0 162.5 -60t56.5 -153l-2 -14h-131l4 22q8 93 -92 93q-61 0 -90 -31.5t-34 -76.5q-7 -56 22 -115h130l-13 -99h-83q0 -20 -1 -31q-8 -66 -68 -134l301 3l-14 -113h-515v22q96 106 125.5 148.5t35.5 83.5q1 8 1 21h-77l13 99h33q-31 67 -24 130
q12 92 90.5 148.5t169.5 56.5z" />
    <glyph glyph-name="currency" unicode="&#xa4;" horiz-adv-x="534" 
d="M455 476q0 -53 -23 -99l47 -47l-81 -79l-40 40q-56 -39 -127 -39q-68 0 -124 37l-39 -38l-81 79l44 44q-24 50 -24 102q0 58 26 105l-46 46l81 79l42 -41q56 35 121 35q66 0 124 -37l43 43l81 -79l-49 -49q25 -47 25 -102zM231 358q59 0 89 39t30 79t-30 79t-89 39
t-88.5 -39t-29.5 -79q0 -41 29.5 -79.5t88.5 -38.5z" />
    <glyph glyph-name="yen" unicode="&#xa5;" horiz-adv-x="716" 
d="M740 700l-307 -394h96l-12 -100h-103l-5 -40h103l-12 -99h-103l-8 -67h-131l8 67h-104l11 99h105l5 40h-104l11 100h98l-209 394h149l146 -288l216 288h150z" />
    <glyph glyph-name="brokenbar" unicode="&#xa6;" horiz-adv-x="263" 
d="M243 800l-34 -280h-113l34 280h113zM156 90l-34 -280h-113l34 280h113z" />
    <glyph glyph-name="section" unicode="&#xa7;" horiz-adv-x="594" 
d="M349 744q108 0 174 -65t71 -151l-148 -34q14 42 -13.5 79t-86.5 37q-45 0 -75.5 -21.5t-34.5 -54.5q-4 -26 10.5 -42t50.5 -28l69 -25q201 -64 181 -231q-5 -45 -39 -94q23 -46 14 -106q-11 -92 -96.5 -147.5t-181.5 -55.5q-103 0 -171 64t-76 164l141 35
q-2 -60 27.5 -94.5t82.5 -34.5q52 0 90.5 23t43.5 61q4 34 -15 52.5t-59 32.5l-85 30q-171 57 -154 206q7 42 42 99q-23 48 -16 106q10 85 84.5 140t169.5 55zM213 348q-1 -3 -1 -5.5t-0.5 -6.5t-0.5 -7q-6 -49 62 -67l69 -25q58 -20 72 -23l-8 8q4 34 -15 55t-58 35l-86 26
q-26 11 -34 10z" />
    <glyph glyph-name="dieresis" unicode="&#xa8;" horiz-adv-x="380" 
d="M185 700l-13 -108h-131l13 108h131zM434 700l-13 -108h-131l13 108h131z" />
    <glyph glyph-name="copyright" unicode="&#xa9;" horiz-adv-x="803" 
d="M452 707q89 0 166 -44.5t120.5 -128t30.5 -184.5q-19 -152 -142.5 -254.5t-262.5 -102.5q-65 0 -126 26.5t-107 72.5t-70 114t-15 144q19 151 144.5 254t261.5 103zM437 582q-88 0 -163.5 -65t-88.5 -167q-12 -102 47.5 -167t147.5 -65q91 0 164 64.5t86 167.5t-44 167.5
t-149 64.5zM437 540q35 0 65.5 -15.5t46.5 -40.5l-81 -84q-20 18 -44 18q-25 0 -46.5 -20t-25.5 -48q-3 -28 13 -48.5t42 -20.5q23 0 47 18l64 -82q-52 -57 -127 -57q-74 0 -123 54t-40 136q10 81 73.5 135.5t135.5 54.5z" />
    <glyph glyph-name="ordfeminine" unicode="&#xaa;" horiz-adv-x="426" 
d="M230 714q75 0 110 -41.5t25 -118.5l-12 -96q-4 -29 -0.5 -44t16.5 -39l-82 5q-12 9 -13 38q-37 -42 -94 -42q-63 0 -98 29t-28 83q6 46 46.5 71.5t99.5 30.5l79 10q3 22 -10 31.5t-36 9.5q-45 0 -101 -48l-49 55q50 66 147 66zM274 523q-33 -5 -74 -8q-27 -2 -43 -14.5
t-18 -27.5q-2 -9 7 -17t31 -8q58 0 90 57z" />
    <glyph glyph-name="guillemotleft" unicode="&#xab;" horiz-adv-x="447" 
d="M221 512l-13 -108l-113 -95l89 -96l-13 -108l-148 83l29 241zM436 512l-13 -108l-112 -95l89 -96l-13 -108l-149 83l29 241z" />
    <glyph glyph-name="logicalnot" unicode="&#xac;" horiz-adv-x="516" 
d="M334 302l-14 -107h-294l13 107h295zM465 302l-22 -181h-131l22 181h131z" />
    <glyph glyph-name="uni00AD" unicode="&#xad;" horiz-adv-x="400" 
d="M353 329l-13 -107h-310l13 107h310z" />
    <glyph glyph-name="registered" unicode="&#xae;" horiz-adv-x="803" 
d="M452 707q89 0 166 -44.5t120.5 -128t30.5 -184.5q-19 -152 -142.5 -254.5t-262.5 -102.5q-65 0 -126 26.5t-107 72.5t-70 114t-15 144q19 151 144.5 254t261.5 103zM630 350q13 103 -44 167.5t-149 64.5q-88 0 -163.5 -65t-88.5 -167q-12 -102 47.5 -167t147.5 -65
q91 0 164 64.5t86 167.5zM423 528q58 0 92.5 -31.5t29.5 -77.5q-5 -39 -25.5 -61.5t-65.5 -43.5l71 -135h-102l-53 112l-14 -112h-92l44 349h115zM445 420q1 12 -6.5 19t-19.5 7h-32l-7 -50h32q30 0 33 24z" />
    <glyph glyph-name="macron" unicode="&#xaf;" horiz-adv-x="397" 
d="M441 700l-15 -106h-375l14 106h376z" />
    <glyph glyph-name="degree" unicode="&#xb0;" horiz-adv-x="387" 
d="M233 719q62 0 102.5 -45.5t33.5 -108.5q-7 -58 -54 -99.5t-106 -41.5q-63 0 -103 46t-33 110q8 57 54.5 98t105.5 41zM233 625q-30 0 -47 -21t-18 -39q-3 -14 5 -30.5t35 -16.5q30 0 47 21t19 41q3 12 -6 28.5t-35 16.5z" />
    <glyph glyph-name="plusminus" unicode="&#xb1;" horiz-adv-x="426" 
d="M269 348h115l-13 -106h-115l-14 -114h-109l14 114h-111l13 106h111l14 115h109zM15 1l13 108h335l-13 -108h-335z" />
    <glyph glyph-name="uni00B2" unicode="&#xb2;" horiz-adv-x="261" 
d="M80 704q36 0 60.5 -25t19.5 -57q-2 -17 -12.5 -33.5t-21.5 -28.5t-42 -41l-56 -47h117l-4 -32h-168l3 32l76 71q32 30 41.5 39.5t19 24t11.5 29.5q2 16 -8 26.5t-27 10.5q-20 0 -38.5 -15t-21.5 -39l-1 -10h-37l2 18q4 35 29 56t58 21z" />
    <glyph glyph-name="uni00B3" unicode="&#xb3;" horiz-adv-x="273" 
d="M87 703q34 0 57.5 -23t19.5 -52q-3 -28 -36 -50q16 -6 26.5 -24.5t7.5 -44.5q-4 -32 -31.5 -52.5t-63.5 -20.5q-43 0 -68.5 29t-17.5 66l37 -8q-8 -23 4 -39t36 -16t44 16t23 39q3 26 -13.5 34.5t-51.5 2.5l-4 32q66 3 73 50q2 12 -7.5 21t-25.5 9q-23 0 -41 -17.5
t-19 -43.5l-37 7q1 37 26.5 61t61.5 24z" />
    <glyph glyph-name="acute" unicode="&#xb4;" horiz-adv-x="226" 
d="M270 700l-125 -129h-97l68 129h154z" />
    <glyph glyph-name="uni00B5" unicode="&#xb5;" horiz-adv-x="596" 
d="M409 246l-17 -140q-12 -37 -60 -75t-109 -38q-46 0 -80 14l-25 -197h-128l49 399q1 3 1 8t1 7l37 296h129l-36 -295q-8 -62 11.5 -90.5t55.5 -28.5q58 0 110 49.5t61 90.5zM443 520h130l-64 -520h-130z" />
    <glyph glyph-name="paragraph" unicode="&#xb6;" horiz-adv-x="885" 
d="M370 700h254l-86 -700h-135l72 585h-119q-128 0 -140 -93q-6 -56 27.5 -80.5t95.5 -24.5h111l-14 -116h-126q-115 0 -176.5 58.5t-50.5 148.5q11 94 91.5 158t195.5 64zM727 700h131l-86 -700h-131z" />
    <glyph glyph-name="periodcentered" unicode="&#xb7;" horiz-adv-x="251" 
d="M134 352l-18 -143h-145l17 143h146z" />
    <glyph glyph-name="cedilla" unicode="&#xb8;" horiz-adv-x="224" 
d="M144 1l-58 -54q37 -11 60 -39t19 -65q-7 -54 -66 -75t-153 -13l14 40q100 9 104 62q2 13 -6.5 22.5t-24 7.5t-30.5 -19l-31 54l57 79h115z" />
    <glyph glyph-name="uni00B9" unicode="&#xb9;" horiz-adv-x="200" 
d="M82 701l-32 -261h-37l28 221l-17 -11l-16 31l36 20h38z" />
    <glyph glyph-name="ordmasculine" unicode="&#xba;" horiz-adv-x="409" 
d="M242 705q60 0 105 -47.5t36 -122.5q-8 -70 -60 -113t-109 -43q-60 0 -105.5 47.5t-36.5 123.5q9 70 61.5 112.5t108.5 42.5zM244 619q-29 0 -57.5 -25t-32.5 -58q-4 -29 14.5 -49.5t44.5 -20.5q29 0 56.5 25t31.5 60q4 28 -14.5 48t-42.5 20z" />
    <glyph glyph-name="guillemotright" unicode="&#xbb;" horiz-adv-x="447" 
d="M72 512l148 -83l-29 -241l-168 -83l13 108l112 96l-89 95zM288 512l148 -83l-29 -241l-169 -83l13 108l112 96l-88 95z" />
    <glyph glyph-name="onequarter" unicode="&#xbc;" horiz-adv-x="569" 
d="M57 701l-32 -261h-37l28 221l-17 -11l-16 31l36 20h38zM504 700l-516 -700h-50l522 700h44zM463 261l-19 -154h27l-4 -31h-27l-9 -76h-37l9 76h-133l155 185h38zM420 202l-77 -95h64z" />
    <glyph glyph-name="onehalf" unicode="&#xbd;" horiz-adv-x="544" 
d="M57 701l-32 -261h-37l28 221l-17 -11l-16 31l36 20h38zM504 700l-516 -700h-50l522 700h44zM372 264q36 0 60.5 -25t19.5 -57q-2 -17 -12.5 -33.5t-21.5 -28.5t-42 -41l-56 -47h117l-4 -32h-168l3 32l76 71q32 30 41.5 39.5t19 24t11.5 29.5q2 16 -8 26.5t-27 10.5
q-20 0 -38.5 -15t-21.5 -39l-1 -10h-37l2 18q4 35 29 56t58 21z" />
    <glyph glyph-name="threequarters" unicode="&#xbe;" horiz-adv-x="587" 
d="M67 703q34 0 57.5 -23t19.5 -52q-3 -28 -36 -50q16 -6 26.5 -24.5t7.5 -44.5q-4 -32 -31.5 -52.5t-63.5 -20.5q-43 0 -68.5 29t-17.5 66l37 -8q-8 -23 4 -39t36 -16t44 16t23 39q3 26 -13.5 34.5t-51.5 2.5l-4 32q66 3 73 50q2 12 -7.5 21t-25.5 9q-23 0 -41 -17.5
t-19 -43.5l-37 7q1 37 26.5 61t61.5 24zM532 700l-516 -700h-50l522 700h44zM481 261l-19 -154h27l-4 -31h-27l-9 -76h-37l9 76h-133l155 185h38zM438 202l-77 -95h64z" />
    <glyph glyph-name="questiondown" unicode="&#xbf;" horiz-adv-x="536" 
d="M182 376l18 144h146l-18 -144h-146zM209 -187q-93 0 -154 58t-50 152q6 44 24 76t40.5 50.5t45 36t40 44.5t22.5 65l1 9h136v-9q-6 -46 -25 -80.5t-43 -55t-47.5 -39t-41 -42.5t-21.5 -55q-4 -37 14 -67.5t72 -30.5q56 0 85.5 34t34.5 78h131q-12 -102 -90.5 -163
t-173.5 -61z" />
    <glyph glyph-name="Agrave" unicode="&#xc0;" horiz-adv-x="747" 
d="M485 751h-98l-124 129h154zM533 0l-38 119h-284l-68 -119h-150l441 707h6l240 -707h-147zM274 227h187l-67 207z" />
    <glyph glyph-name="Aacute" unicode="&#xc1;" horiz-adv-x="747" 
d="M610 880l-125 -129h-97l68 129h154zM533 0l-38 119h-284l-68 -119h-150l441 707h6l240 -707h-147zM274 227h187l-67 207z" />
    <glyph glyph-name="Acircumflex" unicode="&#xc2;" horiz-adv-x="747" 
d="M450 833l-114 -87h-89l118 134h179l86 -134h-89zM533 0l-38 119h-284l-68 -119h-150l441 707h6l240 -707h-147zM274 227h187l-67 207z" />
    <glyph glyph-name="Atilde" unicode="&#xc3;" horiz-adv-x="747" 
d="M363 832q-18 0 -35 -12t-18 -25l-48 7q6 54 39 88t87 34q41 0 94.5 -34.5t74.5 -34.5q18 0 36 9t19 20l50 -8q-7 -54 -39.5 -88.5t-83.5 -34.5q-41 0 -96.5 39.5t-79.5 39.5zM533 0l-38 119h-284l-68 -119h-150l441 707h6l240 -707h-147zM274 227h187l-67 207z" />
    <glyph glyph-name="Adieresis" unicode="&#xc4;" horiz-adv-x="747" 
d="M399 880l-13 -108h-131l13 108h131zM648 880l-13 -108h-131l13 108h131zM533 0l-38 119h-284l-68 -119h-150l441 707h6l240 -707h-147zM274 227h187l-67 207z" />
    <glyph glyph-name="Aring" unicode="&#xc5;" horiz-adv-x="747" 
d="M446 765q-46 0 -74.5 31.5t-23.5 75.5q6 45 42 77t82 32q44 0 72 -32.5t22 -76.5q-5 -43 -40.5 -75t-79.5 -32zM430 874q-2 -11 5 -19.5t18 -8.5t21 8.5t11 19.5q1 12 -6.5 20t-18.5 8t-20 -8t-10 -20zM533 0l-38 119h-284l-68 -119h-150l441 707h6l240 -707h-147z
M274 227h187l-67 207z" />
    <glyph glyph-name="AE" unicode="&#xc6;" horiz-adv-x="988" 
d="M641 700l-36 -290h231l-14 -117h-231v1l-22 -176h341l-14 -118h-479l23 191h-171l-130 -191h-146l479 700h169zM958 582h-331l14 118h331zM346 303h108l24 194z" />
    <glyph glyph-name="Ccedilla" unicode="&#xc7;" horiz-adv-x="666" 
d="M599 83q-88 -72 -196 -87l-53 -49q37 -11 60 -39t19 -65q-7 -54 -66 -75t-153 -13l14 40q100 9 104 62q2 13 -6.5 22.5t-24 7.5t-30.5 -19l-31 54l56 77q-75 16 -134.5 63t-91 122.5t-20.5 164.5q19 153 139.5 255.5t257.5 102.5q136 0 220 -87l-95 -99q-58 56 -139 56
q-85 0 -154.5 -66t-80.5 -161q-13 -95 40 -161t139 -66q80 0 156 59z" />
    <glyph glyph-name="Egrave" unicode="&#xc8;" 
d="M408 751h-98l-124 129h154zM28 0l86 700h138l-35 -290h231l-15 -117h-231l1 2l-22 -177h341l-14 -118h-480zM569 582h-331l14 118h332z" />
    <glyph glyph-name="Eacute" unicode="&#xc9;" 
d="M533 880l-125 -129h-97l68 129h154zM28 0l86 700h138l-35 -290h231l-15 -117h-231l1 2l-22 -177h341l-14 -118h-480zM569 582h-331l14 118h332z" />
    <glyph glyph-name="Ecircumflex" unicode="&#xca;" 
d="M373 833l-114 -87h-89l118 134h179l86 -134h-89zM28 0l86 700h138l-35 -290h231l-15 -117h-231l1 2l-22 -177h341l-14 -118h-480zM569 582h-331l14 118h332z" />
    <glyph glyph-name="Edieresis" unicode="&#xcb;" 
d="M322 880l-13 -108h-131l13 108h131zM571 880l-13 -108h-131l13 108h131zM28 0l86 700h138l-35 -290h231l-15 -117h-231l1 2l-22 -177h341l-14 -118h-480zM569 582h-331l14 118h332z" />
    <glyph glyph-name="Igrave" unicode="&#xcc;" horiz-adv-x="262" 
d="M6 880h154l68 -129h-98zM251 700l-86 -700h-137l86 700h137z" />
    <glyph glyph-name="Iacute" unicode="&#xcd;" horiz-adv-x="262" 
d="M353 880l-125 -129h-97l68 129h154zM251 700l-86 -700h-137l86 700h137z" />
    <glyph glyph-name="Icircumflex" unicode="&#xce;" horiz-adv-x="262" 
d="M288 880l86 -134h-89l-91 87l-114 -87h-89l118 134h179zM251 700l-86 -700h-137l86 700h137z" />
    <glyph glyph-name="Idieresis" unicode="&#xcf;" horiz-adv-x="262" 
d="M142 880l-13 -108h-131l13 108h131zM391 880l-13 -108h-131l13 108h131zM251 700l-86 -700h-137l86 700h137z" />
    <glyph glyph-name="Eth" unicode="&#xd0;" horiz-adv-x="810" 
d="M434 700q148 0 238 -101.5t72 -245.5q-18 -148 -132.5 -250.5t-263.5 -102.5h-247l36 290h-77l13 107h77l37 303h247zM609 353q13 101 -37.5 167t-151.5 66h-112l-23 -189h98l-13 -107h-98l-22 -176h112q100 0 167 67.5t80 171.5z" />
    <glyph glyph-name="Ntilde" unicode="&#xd1;" horiz-adv-x="687" 
d="M333 924q41 0 94.5 -34.5t74.5 -34.5q18 0 36 9t19 20l50 -8q-7 -54 -39.5 -88.5t-83.5 -34.5q-41 0 -96.5 39.5t-79.5 39.5q-18 0 -35 -12t-18 -25l-48 7q6 54 39 88t87 34zM676 700l-86 -700h-4l-374 401l-49 -401h-135l86 700h3l375 -400l50 400h134z" />
    <glyph glyph-name="Ograve" unicode="&#xd2;" horiz-adv-x="784" 
d="M273 880h154l68 -129h-98zM442 707q66 0 126.5 -26.5t104 -72.5t65 -113.5t12.5 -144.5q-19 -153 -138.5 -255t-257.5 -102q-87 0 -161.5 44.5t-116.5 128t-30 184.5q19 152 140 254.5t256 102.5zM428 577q-84 0 -152.5 -63.5t-80.5 -163.5t41 -163.5t136 -63.5
q88 0 153 63t78 164q12 101 -38 164t-137 63z" />
    <glyph glyph-name="Oacute" unicode="&#xd3;" horiz-adv-x="784" 
d="M620 880l-125 -129h-97l68 129h154zM442 707q66 0 126.5 -26.5t104 -72.5t65 -113.5t12.5 -144.5q-19 -153 -138.5 -255t-257.5 -102q-87 0 -161.5 44.5t-116.5 128t-30 184.5q19 152 140 254.5t256 102.5zM428 577q-84 0 -152.5 -63.5t-80.5 -163.5t41 -163.5t136 -63.5
q88 0 153 63t78 164q12 101 -38 164t-137 63z" />
    <glyph glyph-name="Ocircumflex" unicode="&#xd4;" horiz-adv-x="784" 
d="M555 880l86 -134h-89l-91 87l-114 -87h-89l118 134h179zM442 707q66 0 126.5 -26.5t104 -72.5t65 -113.5t12.5 -144.5q-19 -153 -138.5 -255t-257.5 -102q-87 0 -161.5 44.5t-116.5 128t-30 184.5q19 152 140 254.5t256 102.5zM428 577q-84 0 -152.5 -63.5t-80.5 -163.5
t41 -163.5t136 -63.5q88 0 153 63t78 164q12 101 -38 164t-137 63z" />
    <glyph glyph-name="Otilde" unicode="&#xd5;" horiz-adv-x="784" 
d="M398 924q41 0 94.5 -34.5t74.5 -34.5q18 0 36 9t19 20l50 -8q-7 -54 -39.5 -88.5t-83.5 -34.5q-41 0 -96.5 39.5t-79.5 39.5q-18 0 -35 -12t-18 -25l-48 7q6 54 39 88t87 34zM442 707q66 0 126.5 -26.5t104 -72.5t65 -113.5t12.5 -144.5q-19 -153 -138.5 -255
t-257.5 -102q-87 0 -161.5 44.5t-116.5 128t-30 184.5q19 152 140 254.5t256 102.5zM428 577q-84 0 -152.5 -63.5t-80.5 -163.5t41 -163.5t136 -63.5q88 0 153 63t78 164q12 101 -38 164t-137 63z" />
    <glyph glyph-name="Odieresis" unicode="&#xd6;" horiz-adv-x="784" 
d="M409 880l-13 -108h-131l13 108h131zM658 880l-13 -108h-131l13 108h131zM442 707q66 0 126.5 -26.5t104 -72.5t65 -113.5t12.5 -144.5q-19 -153 -138.5 -255t-257.5 -102q-87 0 -161.5 44.5t-116.5 128t-30 184.5q19 152 140 254.5t256 102.5zM428 577
q-84 0 -152.5 -63.5t-80.5 -163.5t41 -163.5t136 -63.5q88 0 153 63t78 164q12 101 -38 164t-137 63z" />
    <glyph glyph-name="multiply" unicode="&#xd7;" horiz-adv-x="404" 
d="M360 367l-96 -86l75 -84l-84 -77l-75 85l-84 -75l-71 75l87 78l-67 76l84 75l67 -76l96 86z" />
    <glyph glyph-name="Oslash" unicode="&#xd8;" horiz-adv-x="784" 
d="M616 655q72 -47 109 -126.5t25 -178.5q-19 -153 -138.5 -255t-257.5 -102q-24 0 -52 5l-23 -48h-146l46 97q-71 48 -108 127t-25 176q19 152 140 254.5t256 102.5q29 0 50 -4l21 42h146zM195 350q-13 -105 47 -170l190 397h-4q-84 0 -152.5 -63.5t-80.5 -163.5zM603 350
q13 110 -49 176l-192 -402q3 -1 10 -1q88 0 153 63t78 164z" />
    <glyph glyph-name="Ugrave" unicode="&#xd9;" horiz-adv-x="683" 
d="M213 880h154l68 -129h-98zM672 700l-56 -452q-14 -115 -104.5 -185t-204.5 -70q-118 0 -195 73t-62 189l54 445h131l-56 -451q-8 -75 29.5 -109t100.5 -34q66 0 116.5 37.5t60.5 112.5l55 444h131z" />
    <glyph glyph-name="Uacute" unicode="&#xda;" horiz-adv-x="683" 
d="M560 880l-125 -129h-97l68 129h154zM672 700l-56 -452q-14 -115 -104.5 -185t-204.5 -70q-118 0 -195 73t-62 189l54 445h131l-56 -451q-8 -75 29.5 -109t100.5 -34q66 0 116.5 37.5t60.5 112.5l55 444h131z" />
    <glyph glyph-name="Ucircumflex" unicode="&#xdb;" horiz-adv-x="683" 
d="M495 880l86 -134h-89l-91 87l-114 -87h-89l118 134h179zM672 700l-56 -452q-14 -115 -104.5 -185t-204.5 -70q-118 0 -195 73t-62 189l54 445h131l-56 -451q-8 -75 29.5 -109t100.5 -34q66 0 116.5 37.5t60.5 112.5l55 444h131z" />
    <glyph glyph-name="Udieresis" unicode="&#xdc;" horiz-adv-x="683" 
d="M350 880l-13 -108h-131l13 108h131zM599 880l-13 -108h-131l13 108h131zM672 700l-56 -452q-14 -115 -104.5 -185t-204.5 -70q-118 0 -195 73t-62 189l54 445h131l-56 -451q-8 -75 29.5 -109t100.5 -34q66 0 116.5 37.5t60.5 112.5l55 444h131z" />
    <glyph glyph-name="Yacute" unicode="&#xdd;" horiz-adv-x="716" 
d="M582 880l-125 -129h-97l68 129h154zM740 700l-315 -406l-36 -294h-131l36 294l-215 406h149l146 -288l216 288h150z" />
    <glyph glyph-name="Thorn" unicode="&#xde;" horiz-adv-x="690" 
d="M249 700l-17 -135h136q119 0 189 -54t70 -143q0 -41 -16.5 -80t-50.5 -73t-95 -55t-142 -21h-143l-17 -139h-131l86 700h131zM364 453h-145l-25 -201h138q94 0 129 30t35 97q0 21 -7.5 35.5t-18 22t-30.5 11.5t-35 4.5t-41 0.5z" />
    <glyph glyph-name="germandbls" unicode="&#xdf;" horiz-adv-x="644" 
d="M366 700q96 0 165.5 -47t69.5 -124q0 -64 -41.5 -104.5t-83.5 -40.5q53 -5 91 -48t38 -101q0 -43 -14 -81.5t-46 -74.5t-96 -57.5t-152 -21.5h-58l14 113h60q161 0 161 117q0 90 -149 90h-46l13 112h46q77 0 104.5 23t27.5 63q0 34 -34.5 52t-83.5 18q-66 0 -96.5 -25
t-37.5 -89l-59 -474h-131l59 474q12 103 92 164.5t187 61.5z" />
    <glyph glyph-name="agrave" unicode="&#xe0;" horiz-adv-x="607" 
d="M382 571h-98l-124 129h154zM453 520h131l-64 -520h-131l7 62q-8 -23 -53 -46t-97 -23q-93 0 -159.5 70.5t-51.5 196.5q10 84 57 147t104.5 91t115.5 28q99 0 134 -60zM427 260q10 79 -22.5 116.5t-86.5 37.5q-53 0 -98 -42t-54 -112t26.5 -112t88.5 -42q54 0 95 37.5
t51 116.5z" />
    <glyph glyph-name="aacute" unicode="&#xe1;" horiz-adv-x="607" 
d="M507 700l-125 -129h-97l68 129h154zM453 520h131l-64 -520h-131l7 62q-8 -23 -53 -46t-97 -23q-93 0 -159.5 70.5t-51.5 196.5q10 84 57 147t104.5 91t115.5 28q99 0 134 -60zM427 260q10 79 -22.5 116.5t-86.5 37.5q-53 0 -98 -42t-54 -112t26.5 -112t88.5 -42
q54 0 95 37.5t51 116.5z" />
    <glyph glyph-name="acircumflex" unicode="&#xe2;" horiz-adv-x="607" 
d="M347 653l-114 -87h-89l118 134h179l86 -134h-89zM453 520h131l-64 -520h-131l7 62q-8 -23 -53 -46t-97 -23q-93 0 -159.5 70.5t-51.5 196.5q10 84 57 147t104.5 91t115.5 28q99 0 134 -60zM427 260q10 79 -22.5 116.5t-86.5 37.5q-53 0 -98 -42t-54 -112t26.5 -112
t88.5 -42q54 0 95 37.5t51 116.5z" />
    <glyph glyph-name="atilde" unicode="&#xe3;" horiz-adv-x="607" 
d="M259 652q-18 0 -35 -12t-18 -25l-48 7q6 54 39 88t87 34q41 0 94.5 -34.5t74.5 -34.5q18 0 36 9t19 20l50 -8q-7 -54 -39.5 -88.5t-83.5 -34.5q-41 0 -96.5 39.5t-79.5 39.5zM453 520h131l-64 -520h-131l7 62q-8 -23 -53 -46t-97 -23q-93 0 -159.5 70.5t-51.5 196.5
q10 84 57 147t104.5 91t115.5 28q99 0 134 -60zM427 260q10 79 -22.5 116.5t-86.5 37.5q-53 0 -98 -42t-54 -112t26.5 -112t88.5 -42q54 0 95 37.5t51 116.5z" />
    <glyph glyph-name="adieresis" unicode="&#xe4;" horiz-adv-x="607" 
d="M296 700l-13 -108h-131l13 108h131zM545 700l-13 -108h-131l13 108h131zM453 520h131l-64 -520h-131l7 62q-8 -23 -53 -46t-97 -23q-93 0 -159.5 70.5t-51.5 196.5q10 84 57 147t104.5 91t115.5 28q99 0 134 -60zM427 260q10 79 -22.5 116.5t-86.5 37.5q-53 0 -98 -42
t-54 -112t26.5 -112t88.5 -42q54 0 95 37.5t51 116.5z" />
    <glyph glyph-name="aring" unicode="&#xe5;" horiz-adv-x="607" 
d="M343 585q-46 0 -74.5 31.5t-23.5 75.5q6 45 42 77t82 32q44 0 72 -32.5t22 -76.5q-5 -43 -40.5 -75t-79.5 -32zM327 694q-2 -11 5 -19.5t18 -8.5t21 8.5t11 19.5q1 12 -6.5 20t-18.5 8t-20 -8t-10 -20zM453 520h131l-64 -520h-131l7 62q-8 -23 -53 -46t-97 -23
q-93 0 -159.5 70.5t-51.5 196.5q10 84 57 147t104.5 91t115.5 28q99 0 134 -60zM427 260q10 79 -22.5 116.5t-86.5 37.5q-53 0 -98 -42t-54 -112t26.5 -112t88.5 -42q54 0 95 37.5t51 116.5z" />
    <glyph glyph-name="ae" unicode="&#xe6;" horiz-adv-x="982" 
d="M949 300q0 -57 -12 -86h-381q4 -51 40.5 -79.5t84.5 -28.5q62 0 109 33l90 -56q-44 -45 -101 -67.5t-112 -22.5q-77 0 -143 42l-4 -35h-131l7 62q-8 -23 -53 -46t-97 -23q-93 0 -159.5 70.5t-51.5 196.5q10 84 57 147t104.5 91t115.5 28q99 0 134 -60l7 54h131l-4 -33
q67 39 142 39q86 0 156.5 -60.5t70.5 -165.5zM569 307h252q-5 51 -37.5 79t-75.5 28q-45 0 -83 -27.5t-56 -79.5zM281 106q54 0 95 37.5t51 116.5t-22.5 116.5t-86.5 37.5q-53 0 -98 -42t-54 -112t26.5 -112t88.5 -42z" />
    <glyph glyph-name="ccedilla" unicode="&#xe7;" horiz-adv-x="560" 
d="M281 106q71 0 115 55l101 -47q-70 -97 -183 -117l-54 -50q37 -11 60 -39t19 -65q-7 -54 -66 -75t-153 -13l14 40q100 9 104 62q2 13 -6.5 22.5t-24 7.5t-30.5 -19l-31 54l57 79h3q-73 19 -123 76.5t-50 145.5q0 125 89.5 214t210.5 89q63 0 116.5 -30.5t82.5 -90.5
l-112 -47q-14 26 -41 41t-60 15q-63 0 -109.5 -54.5t-46.5 -123.5q0 -60 36 -95t82 -35z" />
    <glyph glyph-name="egrave" unicode="&#xe8;" 
d="M137 700h154l68 -129h-98zM329 526q40 0 79.5 -14.5t73 -41.5t54 -71.5t20.5 -98.5q0 -57 -12 -86h-380q4 -51 40 -79.5t85 -28.5q61 0 108 33l91 -56q-89 -90 -213 -90q-93 0 -167.5 60t-74.5 169q0 124 88.5 214t207.5 90zM315 414q-44 0 -82.5 -27.5t-55.5 -79.5h251
q-5 51 -37.5 79t-75.5 28z" />
    <glyph glyph-name="eacute" unicode="&#xe9;" 
d="M484 700l-125 -129h-97l68 129h154zM329 526q40 0 79.5 -14.5t73 -41.5t54 -71.5t20.5 -98.5q0 -57 -12 -86h-380q4 -51 40 -79.5t85 -28.5q61 0 108 33l91 -56q-89 -90 -213 -90q-93 0 -167.5 60t-74.5 169q0 124 88.5 214t207.5 90zM315 414q-44 0 -82.5 -27.5
t-55.5 -79.5h251q-5 51 -37.5 79t-75.5 28z" />
    <glyph glyph-name="ecircumflex" unicode="&#xea;" 
d="M418 700l86 -134h-89l-91 87l-114 -87h-89l118 134h179zM329 526q40 0 79.5 -14.5t73 -41.5t54 -71.5t20.5 -98.5q0 -57 -12 -86h-380q4 -51 40 -79.5t85 -28.5q61 0 108 33l91 -56q-89 -90 -213 -90q-93 0 -167.5 60t-74.5 169q0 124 88.5 214t207.5 90zM315 414
q-44 0 -82.5 -27.5t-55.5 -79.5h251q-5 51 -37.5 79t-75.5 28z" />
    <glyph glyph-name="edieresis" unicode="&#xeb;" 
d="M273 700l-13 -108h-131l13 108h131zM522 700l-13 -108h-131l13 108h131zM329 526q40 0 79.5 -14.5t73 -41.5t54 -71.5t20.5 -98.5q0 -57 -12 -86h-380q4 -51 40 -79.5t85 -28.5q61 0 108 33l91 -56q-89 -90 -213 -90q-93 0 -167.5 60t-74.5 169q0 124 88.5 214t207.5 90z
M315 414q-44 0 -82.5 -27.5t-55.5 -79.5h251q-5 51 -37.5 79t-75.5 28z" />
    <glyph glyph-name="igrave" unicode="&#xec;" horiz-adv-x="281" 
d="M-13 700h154l68 -129h-98zM227 520l-64 -520h-131l64 520h131z" />
    <glyph glyph-name="iacute" unicode="&#xed;" horiz-adv-x="281" 
d="M334 700l-125 -129h-97l68 129h154zM227 520l-64 -520h-131l64 520h131z" />
    <glyph glyph-name="icircumflex" unicode="&#xee;" horiz-adv-x="281" 
d="M269 700l86 -134h-89l-91 87l-114 -87h-89l118 134h179zM227 520l-64 -520h-131l64 520h131z" />
    <glyph glyph-name="idieresis" unicode="&#xef;" horiz-adv-x="281" 
d="M123 700l-13 -108h-131l13 108h131zM372 700l-13 -108h-131l13 108h131zM227 520l-64 -520h-131l64 520h131z" />
    <glyph glyph-name="eth" unicode="&#xf0;" horiz-adv-x="600" 
d="M483 572q45 -81 58 -156.5t1 -170.5q-15 -124 -95.5 -189.5t-189.5 -65.5q-49 0 -92 17t-75 49.5t-47.5 85t-7.5 117.5q15 127 89.5 194t185.5 67q50 0 71 -16l-29 50l-98 -14l15 112l23 3l-26 45h143l15 -27l73 10zM414 259q9 78 -21 113t-85 35q-53 0 -93.5 -39.5
t-50.5 -122.5q-9 -69 24 -105.5t70 -36.5q49 0 97.5 40t58.5 116z" />
    <glyph glyph-name="ntilde" unicode="&#xf1;" horiz-adv-x="604" 
d="M283 744q41 0 94.5 -34.5t74.5 -34.5q18 0 36 9t19 20l50 -8q-7 -54 -39.5 -88.5t-83.5 -34.5q-41 0 -96.5 39.5t-79.5 39.5q-18 0 -35 -12t-18 -25l-48 7q6 54 39 88t87 34zM384 525q83 0 133.5 -55.5t36.5 -169.5l-37 -300h-131l36 292q15 122 -81 122q-55 0 -97.5 -38
t-57.5 -78l-37 -298h-131l64 520h131l-13 -101q16 33 66 69.5t118 36.5z" />
    <glyph glyph-name="ograve" unicode="&#xf2;" horiz-adv-x="602" 
d="M149 700h154l68 -129h-98zM332 526q53 0 104.5 -24t89.5 -79t38 -128q0 -123 -89.5 -212.5t-208.5 -89.5q-54 0 -105.5 23.5t-89.5 78t-38 128.5q0 123 90 213t209 90zM317 412q-64 0 -108.5 -53.5t-44.5 -125.5q0 -59 34.5 -92.5t81.5 -33.5q64 0 108.5 53t44.5 124
q0 60 -34.5 94t-81.5 34z" />
    <glyph glyph-name="oacute" unicode="&#xf3;" horiz-adv-x="602" 
d="M496 700l-125 -129h-97l68 129h154zM332 526q53 0 104.5 -24t89.5 -79t38 -128q0 -123 -89.5 -212.5t-208.5 -89.5q-54 0 -105.5 23.5t-89.5 78t-38 128.5q0 123 90 213t209 90zM317 412q-64 0 -108.5 -53.5t-44.5 -125.5q0 -59 34.5 -92.5t81.5 -33.5q64 0 108.5 53
t44.5 124q0 60 -34.5 94t-81.5 34z" />
    <glyph glyph-name="ocircumflex" unicode="&#xf4;" horiz-adv-x="602" 
d="M430 700l86 -134h-89l-91 87l-114 -87h-89l118 134h179zM332 526q53 0 104.5 -24t89.5 -79t38 -128q0 -123 -89.5 -212.5t-208.5 -89.5q-54 0 -105.5 23.5t-89.5 78t-38 128.5q0 123 90 213t209 90zM317 412q-64 0 -108.5 -53.5t-44.5 -125.5q0 -59 34.5 -92.5
t81.5 -33.5q64 0 108.5 53t44.5 124q0 60 -34.5 94t-81.5 34z" />
    <glyph glyph-name="otilde" unicode="&#xf5;" horiz-adv-x="602" 
d="M273 744q41 0 94.5 -34.5t74.5 -34.5q18 0 36 9t19 20l50 -8q-7 -54 -39.5 -88.5t-83.5 -34.5q-41 0 -96.5 39.5t-79.5 39.5q-18 0 -35 -12t-18 -25l-48 7q6 54 39 88t87 34zM332 526q53 0 104.5 -24t89.5 -79t38 -128q0 -123 -89.5 -212.5t-208.5 -89.5
q-54 0 -105.5 23.5t-89.5 78t-38 128.5q0 123 90 213t209 90zM317 412q-64 0 -108.5 -53.5t-44.5 -125.5q0 -59 34.5 -92.5t81.5 -33.5q64 0 108.5 53t44.5 124q0 60 -34.5 94t-81.5 34z" />
    <glyph glyph-name="odieresis" unicode="&#xf6;" horiz-adv-x="602" 
d="M285 700l-13 -108h-131l13 108h131zM534 700l-13 -108h-131l13 108h131zM332 526q53 0 104.5 -24t89.5 -79t38 -128q0 -123 -89.5 -212.5t-208.5 -89.5q-54 0 -105.5 23.5t-89.5 78t-38 128.5q0 123 90 213t209 90zM317 412q-64 0 -108.5 -53.5t-44.5 -125.5
q0 -59 34.5 -92.5t81.5 -33.5q64 0 108.5 53t44.5 124q0 60 -34.5 94t-81.5 34z" />
    <glyph glyph-name="divide" unicode="&#xf7;" horiz-adv-x="425" 
d="M305 509l-18 -144h-146l18 144h146zM378 329l-13 -107h-335l13 107h335zM266 194l-18 -143h-146l18 143h146z" />
    <glyph glyph-name="oslash" unicode="&#xf8;" horiz-adv-x="604" 
d="M475 477q89 -68 89 -182q0 -123 -89.5 -212.5t-208.5 -89.5q-15 0 -23 1l-21 -44h-133l41 85q-97 65 -97 188t90 213t209 90q10 0 32 -2l26 54h133zM164 233q0 -45 23 -79l123 258q-62 -4 -104 -56.5t-42 -122.5zM298 108q58 8 96.5 59.5t38.5 116.5q0 42 -17 71z" />
    <glyph glyph-name="ugrave" unicode="&#xf9;" 
d="M150 700h154l68 -129h-98zM206 520l-36 -295q-8 -62 11.5 -90.5t55.5 -28.5q58 0 110 49.5t61 90.5l-17 -140q-12 -37 -60 -75t-109 -38q-92 0 -144 57.5t-38 173.5l37 296h129zM572 520l-64 -520h-130l64 520h130z" />
    <glyph glyph-name="uacute" unicode="&#xfa;" 
d="M497 700l-125 -129h-97l68 129h154zM206 520l-36 -295q-8 -62 11.5 -90.5t55.5 -28.5q58 0 110 49.5t61 90.5l-17 -140q-12 -37 -60 -75t-109 -38q-92 0 -144 57.5t-38 173.5l37 296h129zM572 520l-64 -520h-130l64 520h130z" />
    <glyph glyph-name="ucircumflex" unicode="&#xfb;" 
d="M431 700l86 -134h-89l-91 87l-114 -87h-89l118 134h179zM206 520l-36 -295q-8 -62 11.5 -90.5t55.5 -28.5q58 0 110 49.5t61 90.5l-17 -140q-12 -37 -60 -75t-109 -38q-92 0 -144 57.5t-38 173.5l37 296h129zM572 520l-64 -520h-130l64 520h130z" />
    <glyph glyph-name="udieresis" unicode="&#xfc;" 
d="M286 700l-13 -108h-131l13 108h131zM535 700l-13 -108h-131l13 108h131zM206 520l-36 -295q-8 -62 11.5 -90.5t55.5 -28.5q58 0 110 49.5t61 90.5l-17 -140q-12 -37 -60 -75t-109 -38q-92 0 -144 57.5t-38 173.5l37 296h129zM572 520l-64 -520h-130l64 520h130z" />
    <glyph glyph-name="yacute" unicode="&#xfd;" horiz-adv-x="609" 
d="M510 700l-125 -129h-97l68 129h154zM479 520h132l-375 -710h-131l108 207l-156 503h127l109 -353z" />
    <glyph glyph-name="thorn" unicode="&#xfe;" horiz-adv-x="617" 
d="M360 526q85 0 152 -61.5t67 -170.5q0 -51 -18 -103t-51 -97t-86.5 -73t-117.5 -28q-54 0 -94.5 25t-43.5 49l-32 -257h-131l109 890h131l-30 -229q58 55 145 55zM290 106q72 0 115.5 59.5t43.5 124.5q0 57 -32.5 90.5t-76.5 33.5q-55 0 -92.5 -31.5t-51.5 -72.5t-14 -87
q0 -61 30 -89t78 -28z" />
    <glyph glyph-name="ydieresis" unicode="&#xff;" horiz-adv-x="609" 
d="M299 700l-13 -108h-131l13 108h131zM548 700l-13 -108h-131l13 108h131zM479 520h132l-375 -710h-131l108 207l-156 503h127l109 -353z" />
    <glyph glyph-name="Amacron" unicode="&#x100;" horiz-adv-x="747" 
d="M648 880l-15 -106h-375l14 106h376zM533 0l-38 119h-284l-68 -119h-150l441 707h6l240 -707h-147zM274 227h187l-67 207z" />
    <glyph glyph-name="amacron" unicode="&#x101;" horiz-adv-x="607" 
d="M544 700l-15 -106h-375l14 106h376zM453 520h131l-64 -520h-131l7 62q-8 -23 -53 -46t-97 -23q-93 0 -159.5 70.5t-51.5 196.5q10 84 57 147t104.5 91t115.5 28q99 0 134 -60zM427 260q10 79 -22.5 116.5t-86.5 37.5q-53 0 -98 -42t-54 -112t26.5 -112t88.5 -42
q54 0 95 37.5t51 116.5z" />
    <glyph glyph-name="Abreve" unicode="&#x102;" horiz-adv-x="747" 
d="M443 737q-71 0 -108.5 43.5t-30.5 99.5h80q2 -22 20 -38t50 -16t54.5 16t29.5 38h80q-9 -59 -53.5 -101t-121.5 -42zM533 0l-38 119h-284l-68 -119h-150l441 707h6l240 -707h-147zM274 227h187l-67 207z" />
    <glyph glyph-name="abreve" unicode="&#x103;" horiz-adv-x="607" 
d="M339 557q-71 0 -108.5 43.5t-30.5 99.5h80q2 -22 20 -38t50 -16t54.5 16t29.5 38h80q-9 -59 -53.5 -101t-121.5 -42zM453 520h131l-64 -520h-131l7 62q-8 -23 -53 -46t-97 -23q-93 0 -159.5 70.5t-51.5 196.5q10 84 57 147t104.5 91t115.5 28q99 0 134 -60zM427 260
q10 79 -22.5 116.5t-86.5 37.5q-53 0 -98 -42t-54 -112t26.5 -112t88.5 -42q54 0 95 37.5t51 116.5z" />
    <glyph glyph-name="Aogonek" unicode="&#x104;" horiz-adv-x="751" 
d="M539 -90q0 -25 18.5 -36.5t46.5 -2.5l27 -60q-46 -16 -91 -16q-56 0 -90 23.5t-34 68.5q0 46 39.5 74.5t93.5 38.5h-16l-38 119h-284l-68 -119h-150l441 707h6l240 -707h12q-66 -3 -109.5 -33t-43.5 -57zM274 227h187l-67 207z" />
    <glyph glyph-name="aogonek" unicode="&#x105;" horiz-adv-x="607" 
d="M520 0q-84 -31 -111 -51.5t-27 -45.5q0 -20 18.5 -30.5t46.5 -1.5l27 -60q-46 -16 -92 -16q-55 0 -89 23.5t-34 68.5q0 44 33 75t97 38l7 62q-8 -23 -53 -46t-97 -23q-93 0 -159.5 70.5t-51.5 196.5q10 84 57 147t104.5 91t115.5 28q99 0 134 -60l7 54h131zM281 106
q54 0 95 37.5t51 116.5t-22.5 116.5t-86.5 37.5q-53 0 -98 -42t-54 -112t26.5 -112t88.5 -42z" />
    <glyph glyph-name="Cacute" unicode="&#x106;" horiz-adv-x="666" 
d="M608 880l-125 -129h-97l68 129h154zM443 707q136 0 220 -87l-95 -99q-58 56 -139 56q-85 0 -154.5 -66t-80.5 -161q-13 -95 40 -161t139 -66q80 0 156 59l70 -99q-110 -90 -244 -90q-65 0 -125 26.5t-104.5 72.5t-66.5 113.5t-13 143.5q19 153 139.5 255.5t257.5 102.5z
" />
    <glyph glyph-name="cacute" unicode="&#x107;" horiz-adv-x="560" 
d="M479 700l-125 -129h-97l68 129h154zM333 526q63 0 116.5 -30.5t82.5 -90.5l-112 -47q-14 26 -41 41t-60 15q-63 0 -109.5 -54.5t-46.5 -123.5q0 -60 36 -95t82 -35q71 0 115 55l101 -47q-44 -60 -105 -90.5t-125 -30.5q-88 0 -161 61.5t-73 168.5q0 125 89.5 214
t210.5 89z" />
    <glyph glyph-name="Cdotaccent" unicode="&#x10a;" horiz-adv-x="666" 
d="M521 880l-13 -108h-131l13 108h131zM443 707q136 0 220 -87l-95 -99q-58 56 -139 56q-85 0 -154.5 -66t-80.5 -161q-13 -95 40 -161t139 -66q80 0 156 59l70 -99q-110 -90 -244 -90q-65 0 -125 26.5t-104.5 72.5t-66.5 113.5t-13 143.5q19 153 139.5 255.5t257.5 102.5z
" />
    <glyph glyph-name="cdotaccent" unicode="&#x10b;" horiz-adv-x="560" 
d="M393 700l-13 -108h-131l13 108h131zM333 526q63 0 116.5 -30.5t82.5 -90.5l-112 -47q-14 26 -41 41t-60 15q-63 0 -109.5 -54.5t-46.5 -123.5q0 -60 36 -95t82 -35q71 0 115 55l101 -47q-44 -60 -105 -90.5t-125 -30.5q-88 0 -161 61.5t-73 168.5q0 125 89.5 214
t210.5 89z" />
    <glyph glyph-name="Ccaron" unicode="&#x10c;" horiz-adv-x="666" 
d="M530 746h-178l-87 134h89l93 -87l112 87h90zM443 707q136 0 220 -87l-95 -99q-58 56 -139 56q-85 0 -154.5 -66t-80.5 -161q-13 -95 40 -161t139 -66q80 0 156 59l70 -99q-110 -90 -244 -90q-65 0 -125 26.5t-104.5 72.5t-66.5 113.5t-13 143.5q19 153 139.5 255.5
t257.5 102.5z" />
    <glyph glyph-name="ccaron" unicode="&#x10d;" horiz-adv-x="560" 
d="M401 566h-178l-87 134h89l93 -87l112 87h90zM333 526q63 0 116.5 -30.5t82.5 -90.5l-112 -47q-14 26 -41 41t-60 15q-63 0 -109.5 -54.5t-46.5 -123.5q0 -60 36 -95t82 -35q71 0 115 55l101 -47q-44 -60 -105 -90.5t-125 -30.5q-88 0 -161 61.5t-73 168.5q0 125 89.5 214
t210.5 89z" />
    <glyph glyph-name="Dcaron" unicode="&#x10e;" horiz-adv-x="700" 
d="M490 746h-178l-87 134h89l93 -87l112 87h90zM361 700q148 0 238 -101.5t72 -245.5q-18 -148 -132.5 -250.5t-263.5 -102.5h-247l86 700h247zM289 114q100 0 167 67.5t80 171.5q13 101 -37.5 167t-151.5 66h-112l-58 -472h112z" />
    <glyph glyph-name="dcaron" unicode="&#x10f;" horiz-adv-x="827" 
d="M445 467l30 233h131l-86 -700h-131l7 58q-8 -23 -50.5 -44t-93.5 -21q-86 0 -152.5 61t-66.5 171q0 50 18 102t51 97t86.5 73.5t117.5 28.5q96 0 139 -59zM692 700h154l-124 -129h-98zM272 106q55 0 92.5 31.5t51.5 72.5t14 87q0 61 -30 89t-78 28q-72 0 -115.5 -60.5
t-43.5 -123.5q0 -58 32.5 -91t76.5 -33z" />
    <glyph glyph-name="Dcroat" unicode="&#x110;" horiz-adv-x="810" 
d="M434 700q148 0 238 -101.5t72 -245.5q-18 -148 -132.5 -250.5t-263.5 -102.5h-247l36 290h-77l13 107h77l37 303h247zM609 353q13 101 -37.5 167t-151.5 66h-112l-23 -189h98l-13 -107h-98l-22 -176h112q100 0 167 67.5t80 171.5z" />
    <glyph glyph-name="dcroat" unicode="&#x111;" horiz-adv-x="670" 
d="M684 659l-14 -106h-82l-68 -553h-131l7 58q-8 -23 -50.5 -44t-93.5 -21q-86 0 -152.5 61t-66.5 171q0 50 18 102t51 97t86.5 73.5t117.5 28.5q96 0 139 -59l11 86h-162l15 106h161l5 41h131l-5 -41h83zM272 106q55 0 92.5 31.5t51.5 72.5t14 87q0 61 -30 89t-78 28
q-72 0 -115.5 -60.5t-43.5 -123.5q0 -58 32.5 -91t76.5 -33z" />
    <glyph glyph-name="Emacron" unicode="&#x112;" 
d="M570 880l-15 -106h-375l14 106h376zM28 0l86 700h138l-35 -290h231l-15 -117h-231l1 2l-22 -177h341l-14 -118h-480zM569 582h-331l14 118h332z" />
    <glyph glyph-name="emacron" unicode="&#x113;" 
d="M521 700l-15 -106h-375l14 106h376zM329 526q40 0 79.5 -14.5t73 -41.5t54 -71.5t20.5 -98.5q0 -57 -12 -86h-380q4 -51 40 -79.5t85 -28.5q61 0 108 33l91 -56q-89 -90 -213 -90q-93 0 -167.5 60t-74.5 169q0 124 88.5 214t207.5 90zM315 414q-44 0 -82.5 -27.5
t-55.5 -79.5h251q-5 51 -37.5 79t-75.5 28z" />
    <glyph glyph-name="Edotaccent" unicode="&#x116;" 
d="M446 880l-13 -108h-131l13 108h131zM28 0l86 700h138l-35 -290h231l-15 -117h-231l1 2l-22 -177h341l-14 -118h-480zM569 582h-331l14 118h332z" />
    <glyph glyph-name="edotaccent" unicode="&#x117;" 
d="M397 700l-13 -108h-131l13 108h131zM329 526q40 0 79.5 -14.5t73 -41.5t54 -71.5t20.5 -98.5q0 -57 -12 -86h-380q4 -51 40 -79.5t85 -28.5q61 0 108 33l91 -56q-89 -90 -213 -90q-93 0 -167.5 60t-74.5 169q0 124 88.5 214t207.5 90zM315 414q-44 0 -82.5 -27.5
t-55.5 -79.5h251q-5 51 -37.5 79t-75.5 28z" />
    <glyph glyph-name="Eogonek" unicode="&#x118;" 
d="M28 0l86 700h138l-35 -290h231l-15 -117h-231l1 2l-22 -177h341l-14 -118q-84 -31 -111 -51.5t-27 -45.5q0 -20 18.5 -30.5t46.5 -1.5l27 -60q-46 -16 -92 -16q-55 0 -89 23.5t-34 68.5q0 44 33 75t97 38h-349zM569 582h-331l14 118h332z" />
    <glyph glyph-name="eogonek" unicode="&#x119;" 
d="M556 300q0 -57 -12 -86h-380q4 -51 40 -79.5t85 -28.5q61 0 108 33l91 -56q-29 -29 -67 -51q-57 -41 -79.5 -68t-24.5 -55q-4 -33 21.5 -47t53.5 -3l23 -57q-26 -13 -65 -14.5t-75.5 8.5t-61 38.5t-19.5 69.5q3 50 63 90q-89 6 -156.5 65.5t-67.5 162.5q0 124 88.5 214
t207.5 90q40 0 79.5 -14.5t73 -41.5t54 -71.5t20.5 -98.5zM177 307h251q-5 51 -37.5 79t-75.5 28q-44 0 -82.5 -27.5t-55.5 -79.5z" />
    <glyph glyph-name="Ecaron" unicode="&#x11a;" 
d="M454 746h-178l-87 134h89l93 -87l112 87h90zM28 0l86 700h138l-35 -290h231l-15 -117h-231l1 2l-22 -177h341l-14 -118h-480zM569 582h-331l14 118h332z" />
    <glyph glyph-name="ecaron" unicode="&#x11b;" 
d="M405 566h-178l-87 134h89l93 -87l112 87h90zM329 526q40 0 79.5 -14.5t73 -41.5t54 -71.5t20.5 -98.5q0 -57 -12 -86h-380q4 -51 40 -79.5t85 -28.5q61 0 108 33l91 -56q-89 -90 -213 -90q-93 0 -167.5 60t-74.5 169q0 124 88.5 214t207.5 90zM315 414q-44 0 -82.5 -27.5
t-55.5 -79.5h251q-5 51 -37.5 79t-75.5 28z" />
    <glyph glyph-name="Gbreve" unicode="&#x11e;" horiz-adv-x="762" 
d="M440 737q-71 0 -108.5 43.5t-30.5 99.5h80q2 -22 20 -38t50 -16t54.5 16t29.5 38h80q-9 -59 -53.5 -101t-121.5 -42zM728 354q-10 -162 -116 -261.5t-249 -99.5q-144 0 -240 101.5t-77 255.5q19 153 139.5 255t262.5 102q149 0 225 -101l-94 -92q-21 27 -59 45t-86 18
q-86 0 -157 -65t-83 -161t45 -162t144 -66q62 0 110.5 30t75.5 84h-99l14 117h244z" />
    <glyph glyph-name="gbreve" unicode="&#x11f;" horiz-adv-x="608" 
d="M344 557q-71 0 -108.5 43.5t-30.5 99.5h80q2 -22 20 -38t50 -16t54.5 16t29.5 38h80q-9 -59 -53.5 -101t-121.5 -42zM443 520h131l-64 -524q-7 -54 -36.5 -95.5t-71 -63t-82.5 -32t-79 -10.5q-39 0 -74 9t-45 14t-33 18l9 111q69 -40 145 -40q57 0 94 29t42 68l7 54
q-9 -23 -51 -44t-93 -21q-43 0 -84 17.5t-74.5 50t-49.5 86.5t-8 120q15 122 97 190.5t173 68.5q95 0 138 -59zM418 267q8 76 -22.5 111.5t-84.5 35.5q-53 0 -100.5 -44.5t-56.5 -116.5q-8 -68 25 -107.5t83 -39.5q57 0 101 40t55 121z" />
    <glyph glyph-name="Gdotaccent" unicode="&#x120;" horiz-adv-x="762" 
d="M521 880l-13 -108h-131l13 108h131zM728 354q-10 -162 -116 -261.5t-249 -99.5q-144 0 -240 101.5t-77 255.5q19 153 139.5 255t262.5 102q149 0 225 -101l-94 -92q-21 27 -59 45t-86 18q-86 0 -157 -65t-83 -161t45 -162t144 -66q62 0 110.5 30t75.5 84h-99l14 117h244z
" />
    <glyph glyph-name="gdotaccent" unicode="&#x121;" horiz-adv-x="608" 
d="M424 700l-13 -108h-131l13 108h131zM443 520h131l-64 -524q-7 -54 -36.5 -95.5t-71 -63t-82.5 -32t-79 -10.5q-39 0 -74 9t-45 14t-33 18l9 111q69 -40 145 -40q57 0 94 29t42 68l7 54q-9 -23 -51 -44t-93 -21q-43 0 -84 17.5t-74.5 50t-49.5 86.5t-8 120
q15 122 97 190.5t173 68.5q95 0 138 -59zM418 267q8 76 -22.5 111.5t-84.5 35.5q-53 0 -100.5 -44.5t-56.5 -116.5q-8 -68 25 -107.5t83 -39.5q57 0 101 40t55 121z" />
    <glyph glyph-name="Gcommaaccent" unicode="&#x122;" horiz-adv-x="762" 
d="M728 354q-10 -162 -116 -261.5t-249 -99.5q-144 0 -240 101.5t-77 255.5q19 153 139.5 255t262.5 102q149 0 225 -101l-94 -92q-21 27 -59 45t-86 18q-86 0 -157 -65t-83 -161t45 -162t144 -66q62 0 110.5 30t75.5 84h-99l14 117h244zM182 -252l73 224h169l-127 -224
h-115z" />
    <glyph glyph-name="gcommaaccent" unicode="&#x123;" horiz-adv-x="608" 
d="M479 784l-73 -225h-169l127 225h115zM443 520h131l-64 -524q-7 -54 -36.5 -95.5t-71 -63t-82.5 -32t-79 -10.5q-39 0 -74 9t-45 14t-33 18l9 111q69 -40 145 -40q57 0 94 29t42 68l7 54q-9 -23 -51 -44t-93 -21q-43 0 -84 17.5t-74.5 50t-49.5 86.5t-8 120
q15 122 97 190.5t173 68.5q95 0 138 -59zM418 267q8 76 -22.5 111.5t-84.5 35.5q-53 0 -100.5 -44.5t-56.5 -116.5q-8 -68 25 -107.5t83 -39.5q57 0 101 40t55 121z" />
    <glyph glyph-name="Hbar" unicode="&#x126;" horiz-adv-x="722" 
d="M568 700h135l-86 -700h-135l37 291h-320l-36 -291h-135l86 700h135l-16 -126h320zM213 406h320l7 61h-320z" />
    <glyph glyph-name="hbar" unicode="&#x127;" horiz-adv-x="669" 
d="M415 525q98 0 154.5 -59t42.5 -175l-36 -291h-131l35 290q9 67 -12 95t-68 28q-59 0 -104.5 -46t-55.5 -79l-35 -288h-131l62 507h-91v107h104l11 86h131l-10 -86h52v-107h-66l-10 -86q8 33 51 68.5t107 35.5z" />
    <glyph glyph-name="Imacron" unicode="&#x12a;" horiz-adv-x="262" 
d="M391 880l-15 -106h-375l14 106h376zM251 700l-86 -700h-137l86 700h137z" />
    <glyph glyph-name="imacron" unicode="&#x12b;" horiz-adv-x="281" 
d="M372 700l-15 -106h-375l14 106h376zM227 520l-64 -520h-131l64 520h131z" />
    <glyph glyph-name="Iogonek" unicode="&#x12e;" horiz-adv-x="277" 
d="M116 700h137l-86 -700h-5q-88 -31 -116 -51.5t-28 -45.5q0 -20 18.5 -30.5t46.5 -1.5l27 -60q-46 -16 -92 -16q-55 0 -89 23.5t-34 68.5q0 44 33 75t97 38h5z" />
    <glyph glyph-name="iogonek" unicode="&#x12f;" horiz-adv-x="281" 
d="M117 700h131l-13 -108h-131zM32 0l64 520h131l-64 -520q-84 -31 -111 -51.5t-27 -45.5q0 -20 18.5 -30.5t46.5 -1.5l27 -60q-46 -16 -92 -16q-55 0 -89 23.5t-34 68.5q0 44 33 75t97 38z" />
    <glyph glyph-name="Idotaccent" unicode="&#x130;" horiz-adv-x="262" 
d="M267 880l-13 -108h-131l13 108h131zM251 700l-86 -700h-137l86 700h137z" />
    <glyph glyph-name="dotlessi" unicode="&#x131;" horiz-adv-x="281" 
d="M227 520l-64 -520h-131l64 520h131z" />
    <glyph glyph-name="IJ" unicode="&#x132;" horiz-adv-x="823" 
d="M251 700l-86 -700h-137l86 700h137zM802 700l-54 -439q-17 -139 -95.5 -203.5t-185.5 -64.5q-128 0 -192 84l94 82q32 -47 98 -47q30 0 50 5.5t43.5 22.5t38.5 56.5t23 100.5l49 403h131z" />
    <glyph glyph-name="ij" unicode="&#x133;" horiz-adv-x="526" 
d="M245 700l-13 -108h-131l13 108h131zM515 700l-13 -108h-131l13 108h131zM225 520l-64 -520h-133l64 520h133zM493 520l-71 -575q-18 -150 -164 -150q-46 0 -108 26l11 127q11 -3 25.5 -7.5t22 -7t17.5 -4.5t18 -2q22 0 35.5 21t16.5 45l66 527h131z" />
    <glyph glyph-name="Kcommaaccent" unicode="&#x136;" horiz-adv-x="745" 
d="M740 700l-324 -348l267 -352h-157l-198 260l-152 -162l-12 -98h-136l86 700h136l-52 -410l378 410h164zM178 -252l73 224h169l-127 -224h-115z" />
    <glyph glyph-name="kcommaaccent" unicode="&#x137;" horiz-adv-x="598" 
d="M565 520l-240 -222l221 -298h-152l-160 213l-55 -50l-20 -163h-131l86 700h131l-47 -379l211 199h156zM107 -252l73 224h169l-127 -224h-115z" />
    <glyph glyph-name="Lacute" unicode="&#x139;" horiz-adv-x="544" 
d="M351 878l-124 -129h-97l68 129h153zM249 700l-86 -700h-135l86 700h135zM481 113l-14 -113h-304l14 113h304z" />
    <glyph glyph-name="lacute" unicode="&#x13a;" horiz-adv-x="253" 
d="M353 880l-125 -129h-97l68 129h154zM247 700l-86 -700h-133l86 700h133z" />
    <glyph glyph-name="Lcommaaccent" unicode="&#x13b;" horiz-adv-x="544" 
d="M249 700l-86 -700h-135l86 700h135zM481 113l-14 -113h-304l14 113h304zM76 -252l73 224h169l-127 -224h-115z" />
    <glyph glyph-name="lcommaaccent" unicode="&#x13c;" horiz-adv-x="253" 
d="M247 700l-86 -700h-133l86 700h133zM-72 -252l73 224h169l-127 -224h-115z" />
    <glyph glyph-name="Lcaron" unicode="&#x13d;" horiz-adv-x="544" 
d="M249 700l-86 -700h-135l86 700h135zM318 462l84 238h168l-137 -238h-115zM481 113l-14 -113h-304l14 113h304z" />
    <glyph glyph-name="lcaron" unicode="&#x13e;" horiz-adv-x="468" 
d="M247 700l-86 -700h-133l86 700h133zM245 462l84 238h168l-137 -238h-115z" />
    <glyph glyph-name="Ldot" unicode="&#x13f;" horiz-adv-x="544" 
d="M249 700l-86 -700h-135l86 700h135zM420 440l-17 -144h-146l17 144h146zM481 113l-14 -113h-304l14 113h304z" />
    <glyph glyph-name="ldot" unicode="&#x140;" horiz-adv-x="439" 
d="M247 700l-86 -700h-133l86 700h133zM419 438l-17 -144h-146l17 144h146z" />
    <glyph glyph-name="Lslash" unicode="&#x141;" horiz-adv-x="563" 
d="M299 439l-72 -77l-45 -362h-135l24 199l-56 -59v133l75 79l43 348h135l-23 -185l54 56v-132zM196 113h304l-14 -113h-304z" />
    <glyph glyph-name="lslash" unicode="&#x142;" horiz-adv-x="291" 
d="M276 561v-133l-59 -62l-45 -366h-133l25 205l-49 -52v134l68 71l42 342h133l-22 -182z" />
    <glyph glyph-name="Nacute" unicode="&#x143;" horiz-adv-x="687" 
d="M555 880l-125 -129h-97l68 129h154zM676 700l-86 -700h-4l-374 401l-49 -401h-135l86 700h3l375 -400l50 400h134z" />
    <glyph glyph-name="nacute" unicode="&#x144;" horiz-adv-x="604" 
d="M506 700l-125 -129h-97l68 129h154zM384 525q83 0 133.5 -55.5t36.5 -169.5l-37 -300h-131l36 292q15 122 -81 122q-55 0 -97.5 -38t-57.5 -78l-37 -298h-131l64 520h131l-13 -101q16 33 66 69.5t118 36.5z" />
    <glyph glyph-name="Ncommaaccent" unicode="&#x145;" horiz-adv-x="687" 
d="M676 700l-86 -700h-4l-374 401l-49 -401h-135l86 700h3l375 -400l50 400h134zM141 -252l73 224h169l-127 -224h-115z" />
    <glyph glyph-name="ncommaaccent" unicode="&#x146;" horiz-adv-x="604" 
d="M384 525q83 0 133.5 -55.5t36.5 -169.5l-37 -300h-131l36 292q15 122 -81 122q-55 0 -97.5 -38t-57.5 -78l-37 -298h-131l64 520h131l-13 -101q16 33 66 69.5t118 36.5zM102 -252l73 224h169l-127 -224h-115z" />
    <glyph glyph-name="Ncaron" unicode="&#x147;" horiz-adv-x="687" 
d="M477 746h-178l-87 134h89l93 -87l112 87h90zM676 700l-86 -700h-4l-374 401l-49 -401h-135l86 700h3l375 -400l50 400h134z" />
    <glyph glyph-name="ncaron" unicode="&#x148;" horiz-adv-x="604" 
d="M427 566h-178l-87 134h89l93 -87l112 87h90zM384 525q83 0 133.5 -55.5t36.5 -169.5l-37 -300h-131l36 292q15 122 -81 122q-55 0 -97.5 -38t-57.5 -78l-37 -298h-131l64 520h131l-13 -101q16 33 66 69.5t118 36.5z" />
    <glyph glyph-name="Eng" unicode="&#x14a;" horiz-adv-x="675" 
d="M663 700l-24 -198h1l-54 -439q-9 -72 -35.5 -125.5t-66 -84t-84.5 -44.5t-95 -14q-127 0 -191 84l93 82q32 -47 99 -47q29 0 49.5 5.5t43.5 22.5t38 56.5t23 100.5l2 13l-249 272l-48 -384h-137l86 700h10l361 -387l41 387h137z" />
    <glyph glyph-name="eng" unicode="&#x14b;" horiz-adv-x="606" 
d="M384 525q83 0 133.5 -55.5t36.5 -169.5l-18 -146l-24 -206q-9 -77 -54 -115t-117 -38q-49 0 -108 25l16 129q63 -21 81 -21q28 0 40 14.5t15 46.5l1 11l11 84l10 86l15 122q15 122 -81 122q-55 0 -97.5 -38t-57.5 -78l-37 -298h-131l64 520h131l-13 -101q16 33 66 69.5
t118 36.5z" />
    <glyph glyph-name="Omacron" unicode="&#x14c;" horiz-adv-x="784" 
d="M658 880l-15 -106h-375l14 106h376zM442 707q66 0 126.5 -26.5t104 -72.5t65 -113.5t12.5 -144.5q-19 -153 -138.5 -255t-257.5 -102q-87 0 -161.5 44.5t-116.5 128t-30 184.5q19 152 140 254.5t256 102.5zM428 577q-84 0 -152.5 -63.5t-80.5 -163.5t41 -163.5t136 -63.5
q88 0 153 63t78 164q12 101 -38 164t-137 63z" />
    <glyph glyph-name="omacron" unicode="&#x14d;" horiz-adv-x="602" 
d="M533 700l-15 -106h-375l14 106h376zM332 526q53 0 104.5 -24t89.5 -79t38 -128q0 -123 -89.5 -212.5t-208.5 -89.5q-54 0 -105.5 23.5t-89.5 78t-38 128.5q0 123 90 213t209 90zM317 412q-64 0 -108.5 -53.5t-44.5 -125.5q0 -59 34.5 -92.5t81.5 -33.5q64 0 108.5 53
t44.5 124q0 60 -34.5 94t-81.5 34z" />
    <glyph glyph-name="Ohungarumlaut" unicode="&#x150;" horiz-adv-x="784" 
d="M510 880l-125 -129h-97l68 129h154zM709 880l-125 -129h-97l68 129h154zM442 707q66 0 126.5 -26.5t104 -72.5t65 -113.5t12.5 -144.5q-19 -153 -138.5 -255t-257.5 -102q-87 0 -161.5 44.5t-116.5 128t-30 184.5q19 152 140 254.5t256 102.5zM428 577
q-84 0 -152.5 -63.5t-80.5 -163.5t41 -163.5t136 -63.5q88 0 153 63t78 164q12 101 -38 164t-137 63z" />
    <glyph glyph-name="ohungarumlaut" unicode="&#x151;" horiz-adv-x="602" 
d="M386 700l-125 -129h-97l68 129h154zM585 700l-125 -129h-97l68 129h154zM332 526q53 0 104.5 -24t89.5 -79t38 -128q0 -123 -89.5 -212.5t-208.5 -89.5q-54 0 -105.5 23.5t-89.5 78t-38 128.5q0 123 90 213t209 90zM317 412q-64 0 -108.5 -53.5t-44.5 -125.5
q0 -59 34.5 -92.5t81.5 -33.5q64 0 108.5 53t44.5 124q0 60 -34.5 94t-81.5 34z" />
    <glyph glyph-name="OE" unicode="&#x152;" horiz-adv-x="1152" 
d="M644 634l8 66h138l-36 -290h232l-15 -117h-231v1l-36 -294h-138l8 66q-104 -73 -220 -73q-87 0 -161.5 44.5t-116.5 128t-30 184.5q19 152 140 254.5t256 102.5q117 0 202 -73zM1107 582h-331l14 118h332zM372 123q88 0 153 63t78 164q12 101 -38 164t-137 63
q-84 0 -152.5 -63.5t-80.5 -163.5t41 -163.5t136 -63.5zM1060 118l-14 -118h-342l15 118h341z" />
    <glyph glyph-name="oe" unicode="&#x153;" horiz-adv-x="992" 
d="M954 300q0 -57 -12 -86h-381q4 -51 40.5 -79.5t84.5 -28.5q62 0 109 33l90 -56q-44 -45 -101 -67.5t-112 -22.5t-108.5 23t-88.5 67q-90 -90 -209 -90q-54 0 -105.5 23.5t-89.5 78t-38 128.5q0 123 90 213t209 90q50 0 100.5 -23.5t85.5 -67.5q88 91 209 91
q86 0 156.5 -60.5t70.5 -165.5zM574 307h251q-4 51 -36.5 79t-76.5 28t-82.5 -27.5t-55.5 -79.5zM280 107q64 0 108.5 53t44.5 124q0 60 -34.5 94t-81.5 34q-64 0 -108.5 -53.5t-44.5 -125.5q0 -59 34.5 -92.5t81.5 -33.5z" />
    <glyph glyph-name="Racute" unicode="&#x154;" horiz-adv-x="659" 
d="M522 880l-125 -129h-97l68 129h154zM592 0h-152l-135 258h-4h-107l-31 -258h-135l86 700h242q108 0 169.5 -53t61.5 -137q0 -76 -40 -136t-111 -90zM235 581l-27 -204h103q63 0 101.5 30.5t38.5 86.5q0 42 -30.5 64.5t-83.5 22.5h-102z" />
    <glyph glyph-name="racute" unicode="&#x155;" horiz-adv-x="455" 
d="M440 700l-125 -129h-97l68 129h154zM405 525q29 0 47 -3l-16 -122q-15 2 -46 2q-70 0 -128.5 -47t-74.5 -123l16 123q17 74 70.5 122t131.5 48zM223 520l-64 -520h-131l64 520h131z" />
    <glyph glyph-name="Rcommaaccent" unicode="&#x156;" horiz-adv-x="659" 
d="M436 284l156 -284h-152l-135 258h-4h-107l-31 -258h-135l86 700h242q108 0 169.5 -53t61.5 -137q0 -76 -40 -136t-111 -90zM235 581l-27 -204h103q63 0 101.5 30.5t38.5 86.5q0 42 -30.5 64.5t-83.5 22.5h-102zM137 -252l73 224h169l-127 -224h-115z" />
    <glyph glyph-name="rcommaaccent" unicode="&#x157;" horiz-adv-x="455" 
d="M405 525q29 0 47 -3l-16 -122q-15 2 -46 2q-70 0 -128.5 -47t-74.5 -123l16 123q17 74 70.5 122t131.5 48zM223 520l-64 -520h-131l64 520h131zM-74 -252l73 224h169l-127 -224h-115z" />
    <glyph glyph-name="Rcaron" unicode="&#x158;" horiz-adv-x="659" 
d="M443 746h-178l-87 134h89l93 -87l112 87h90zM592 0h-152l-135 258h-4h-107l-31 -258h-135l86 700h242q108 0 169.5 -53t61.5 -137q0 -76 -40 -136t-111 -90zM235 581l-27 -204h103q63 0 101.5 30.5t38.5 86.5q0 42 -30.5 64.5t-83.5 22.5h-102z" />
    <glyph glyph-name="rcaron" unicode="&#x159;" horiz-adv-x="455" 
d="M362 566h-178l-87 134h89l93 -87l112 87h90zM405 525q29 0 47 -3l-16 -122q-15 2 -46 2q-70 0 -128.5 -47t-74.5 -123l16 123q17 74 70.5 122t131.5 48zM223 520l-64 -520h-131l64 520h131z" />
    <glyph glyph-name="Sacute" unicode="&#x15a;" horiz-adv-x="568" 
d="M512 880l-125 -129h-97l68 129h154zM342 707q80 0 134.5 -40t77.5 -98l-123 -40q-23 63 -104 63q-41 0 -72 -22.5t-31 -58.5q0 -26 18 -42t63 -33l33 -11q189 -69 189 -202q0 -74 -46 -128.5t-108 -78t-127 -23.5q-87 0 -151.5 45t-82.5 119l116 49q11 -41 47.5 -69.5
t85.5 -28.5q52 0 91.5 26.5t39.5 76.5q0 34 -23 53t-81 41l-34 13q-79 30 -123 71.5t-44 106.5q0 92 77 151.5t178 59.5z" />
    <glyph glyph-name="sacute" unicode="&#x15b;" horiz-adv-x="485" 
d="M443 700l-125 -129h-97l68 129h154zM332 369q-25 47 -71 47q-23 0 -38.5 -12t-15.5 -31q0 -28 37 -43l63 -24q34 -13 50 -20.5t39 -23t33 -37.5t10 -52q0 -83 -69 -131.5t-159 -48.5q-75 0 -131.5 36.5t-65.5 101.5l115 34q10 -30 37 -45t59 -15q30 0 53.5 15.5
t23.5 39.5t-41 42l-60 24q-69 27 -100.5 55.5t-31.5 75.5q0 74 60.5 121.5t142.5 47.5q142 0 181 -128z" />
    <glyph glyph-name="Scedilla" unicode="&#x15e;" horiz-adv-x="568" 
d="M338 425q189 -69 189 -202q0 -89 -60.5 -146t-147.5 -76h11l-58 -54q37 -11 60 -39t19 -65q-7 -54 -66 -75t-153 -13l14 40q100 9 104 62q2 13 -6.5 22.5t-24 7.5t-30.5 -19l-31 54l53 73q-76 9 -129.5 52.5t-69.5 109.5l116 49q11 -41 47.5 -69.5t85.5 -28.5
q52 0 91.5 26.5t39.5 76.5q0 34 -23 53t-81 41l-34 13q-79 30 -123 71.5t-44 106.5q0 92 77 151.5t178 59.5q80 0 134.5 -40t77.5 -98l-123 -40q-23 63 -104 63q-41 0 -72 -22.5t-31 -58.5q0 -26 18 -42t63 -33z" />
    <glyph glyph-name="scedilla" unicode="&#x15f;" horiz-adv-x="485" 
d="M307 306q34 -13 50 -20.5t39 -23t33 -37.5t10 -52q0 -68 -47.5 -113.5t-119.5 -60.5l-56 -52q37 -11 60 -39t19 -65q-7 -54 -66 -75t-153 -13l14 40q100 9 104 62q2 13 -6.5 22.5t-24 7.5t-30.5 -19l-31 54l55 76q-57 12 -96.5 46.5t-46.5 86.5l115 34q10 -30 37 -45
t59 -15q30 0 53.5 15.5t23.5 39.5t-41 42l-60 24q-69 27 -100.5 55.5t-31.5 75.5q0 74 60.5 121.5t142.5 47.5q142 0 181 -128l-121 -29q-25 47 -71 47q-23 0 -38.5 -12t-15.5 -31q0 -28 37 -43z" />
    <glyph glyph-name="Scaron" unicode="&#x160;" horiz-adv-x="568" 
d="M434 746h-178l-87 134h89l93 -87l112 87h90zM342 707q80 0 134.5 -40t77.5 -98l-123 -40q-23 63 -104 63q-41 0 -72 -22.5t-31 -58.5q0 -26 18 -42t63 -33l33 -11q189 -69 189 -202q0 -74 -46 -128.5t-108 -78t-127 -23.5q-87 0 -151.5 45t-82.5 119l116 49
q11 -41 47.5 -69.5t85.5 -28.5q52 0 91.5 26.5t39.5 76.5q0 34 -23 53t-81 41l-34 13q-79 30 -123 71.5t-44 106.5q0 92 77 151.5t178 59.5z" />
    <glyph glyph-name="scaron" unicode="&#x161;" horiz-adv-x="485" 
d="M364 566h-178l-87 134h89l93 -87l112 87h90zM332 369q-25 47 -71 47q-23 0 -38.5 -12t-15.5 -31q0 -28 37 -43l63 -24q34 -13 50 -20.5t39 -23t33 -37.5t10 -52q0 -83 -69 -131.5t-159 -48.5q-75 0 -131.5 36.5t-65.5 101.5l115 34q10 -30 37 -45t59 -15q30 0 53.5 15.5
t23.5 39.5t-41 42l-60 24q-69 27 -100.5 55.5t-31.5 75.5q0 74 60.5 121.5t142.5 47.5q142 0 181 -128z" />
    <glyph glyph-name="uni0162" unicode="&#x162;" horiz-adv-x="580" 
d="M330 0h-11l-57 -53q37 -11 60 -39t19 -65q-7 -54 -66 -75t-153 -13l14 40q100 9 104 62q2 13 -6.5 22.5t-24 7.5t-30.5 -19l-31 54l56 78h-17l72 581h-184l14 119h327h183l-14 -119h-184z" />
    <glyph glyph-name="uni0163" unicode="&#x163;" horiz-adv-x="368" 
d="M242 414l-32 -257q-8 -50 36 -50q34 0 70 12l-14 -107q-28 -13 -66 -16l-52 -49q37 -11 60 -39t19 -65q-7 -54 -66 -75t-153 -13l14 40q100 9 104 62q2 13 -6.5 22.5t-24 7.5t-30.5 -19l-31 54l57 79h17q-80 24 -66 154l33 259h-67l13 106h67l11 90h131l-11 -90h110
l-12 -106h-111z" />
    <glyph glyph-name="Tcaron" unicode="&#x164;" horiz-adv-x="580" 
d="M439 746h-178l-87 134h89l93 -87l112 87h90zM599 700l-14 -119h-184l-71 -581h-143l72 581h-184l14 119h327h183z" />
    <glyph glyph-name="tcaron" unicode="&#x165;" horiz-adv-x="491" 
d="M357 700h153l-124 -129h-97zM266 610l-11 -90h110l-12 -106h-111l-32 -257q-8 -50 36 -50q34 0 70 12l-14 -107q-38 -18 -101 -18q-67 0 -100.5 34t-22.5 127l33 259h-67l13 106h67l11 90h131z" />
    <glyph glyph-name="Tbar" unicode="&#x166;" horiz-adv-x="580" 
d="M585 581h-184l-15 -128h117l-14 -107h-116l-43 -346h-143l43 346h-116l14 107h115l16 128h-184l14 119h327h183z" />
    <glyph glyph-name="tbar" unicode="&#x167;" horiz-adv-x="368" 
d="M352 414h-110l-9 -74h110l-14 -106h-110l-9 -77q-8 -50 36 -50q32 0 70 12l-14 -107q-38 -18 -102 -18q-66 0 -99.5 34t-22.5 127l10 79h-67l14 106h66l9 74h-66l12 106h68l11 90h131l-11 -90h110z" />
    <glyph glyph-name="Umacron" unicode="&#x16a;" horiz-adv-x="683" 
d="M598 880l-15 -106h-375l14 106h376zM672 700l-56 -452q-14 -115 -104.5 -185t-204.5 -70q-118 0 -195 73t-62 189l54 445h131l-56 -451q-8 -75 29.5 -109t100.5 -34q66 0 116.5 37.5t60.5 112.5l55 444h131z" />
    <glyph glyph-name="umacron" unicode="&#x16b;" 
d="M534 700l-15 -106h-375l14 106h376zM206 520l-36 -295q-8 -62 11.5 -90.5t55.5 -28.5q58 0 110 49.5t61 90.5l-17 -140q-12 -37 -60 -75t-109 -38q-92 0 -144 57.5t-38 173.5l37 296h129zM572 520l-64 -520h-130l64 520h130z" />
    <glyph glyph-name="Ubreve" unicode="&#x16c;" horiz-adv-x="683" 
d="M568 880q-9 -59 -53.5 -101t-121.5 -42q-71 0 -108.5 43.5t-30.5 99.5h80q2 -22 20 -38t50 -16t54.5 16t29.5 38h80zM672 700l-56 -452q-14 -115 -104.5 -185t-204.5 -70q-118 0 -195 73t-62 189l54 445h131l-56 -451q-8 -75 29.5 -109t100.5 -34q66 0 116.5 37.5
t60.5 112.5l55 444h131z" />
    <glyph glyph-name="ubreve" unicode="&#x16d;" 
d="M504 700q-9 -59 -53.5 -101t-121.5 -42q-71 0 -108.5 43.5t-30.5 99.5h80q2 -22 20 -38t50 -16t54.5 16t29.5 38h80zM206 520l-36 -295q-8 -62 11.5 -90.5t55.5 -28.5q58 0 110 49.5t61 90.5l-17 -140q-12 -37 -60 -75t-109 -38q-92 0 -144 57.5t-38 173.5l37 296h129z
M572 520l-64 -520h-130l64 520h130z" />
    <glyph glyph-name="Uring" unicode="&#x16e;" horiz-adv-x="683" 
d="M423 981q44 0 72 -32.5t22 -76.5q-5 -43 -40.5 -75t-79.5 -32q-46 0 -74.5 31.5t-23.5 75.5q6 45 42 77t82 32zM411 902q-11 0 -20 -8t-10 -20q-2 -11 5 -19.5t18 -8.5t21 8.5t11 19.5q1 12 -6.5 20t-18.5 8zM672 700l-56 -452q-14 -115 -104.5 -185t-204.5 -70
q-118 0 -195 73t-62 189l54 445h131l-56 -451q-8 -75 29.5 -109t100.5 -34q66 0 116.5 37.5t60.5 112.5l55 444h131z" />
    <glyph glyph-name="uring" unicode="&#x16f;" 
d="M359 801q44 0 72 -32.5t22 -76.5q-5 -43 -40.5 -75t-79.5 -32q-46 0 -74.5 31.5t-23.5 75.5q6 45 42 77t82 32zM347 722q-11 0 -20 -8t-10 -20q-2 -11 5 -19.5t18 -8.5t21 8.5t11 19.5q1 12 -6.5 20t-18.5 8zM206 520l-36 -295q-8 -62 11.5 -90.5t55.5 -28.5
q58 0 110 49.5t61 90.5l-17 -140q-12 -37 -60 -75t-109 -38q-92 0 -144 57.5t-38 173.5l37 296h129zM572 520l-64 -520h-130l64 520h130z" />
    <glyph glyph-name="Uhungarumlaut" unicode="&#x170;" horiz-adv-x="683" 
d="M450 880l-125 -129h-97l68 129h154zM649 880l-125 -129h-97l68 129h154zM672 700l-56 -452q-14 -115 -104.5 -185t-204.5 -70q-118 0 -195 73t-62 189l54 445h131l-56 -451q-8 -75 29.5 -109t100.5 -34q66 0 116.5 37.5t60.5 112.5l55 444h131z" />
    <glyph glyph-name="uhungarumlaut" unicode="&#x171;" 
d="M387 700l-125 -129h-97l68 129h154zM586 700l-125 -129h-97l68 129h154zM206 520l-36 -295q-8 -62 11.5 -90.5t55.5 -28.5q58 0 110 49.5t61 90.5l-17 -140q-12 -37 -60 -75t-109 -38q-92 0 -144 57.5t-38 173.5l37 296h129zM572 520l-64 -520h-130l64 520h130z" />
    <glyph glyph-name="Uogonek" unicode="&#x172;" horiz-adv-x="683" 
d="M541 700h131l-56 -452q-13 -106 -92 -174.5t-183 -78.5q-68 -17 -92 -39.5t-24 -52.5q0 -20 19 -30.5t47 -1.5l27 -60q-46 -16 -92 -16q-55 0 -89 23.5t-34 67.5q0 94 130 114h7q-94 20 -148 88.5t-42 166.5l54 445h131l-56 -451q-8 -75 29.5 -109t100.5 -34
q66 0 116.5 37.5t60.5 112.5z" />
    <glyph glyph-name="uogonek" unicode="&#x173;" 
d="M391 106q-12 -37 -60 -75t-109 -38q-92 0 -144 57.5t-38 173.5l37 296h129l-36 -295q-8 -62 11.5 -90.5t55.5 -28.5q58 0 110 49.5t61 90.5zM508 0q-84 -31 -111 -51.5t-27 -45.5q0 -20 18.5 -30.5t46.5 -1.5l27 -60q-46 -16 -92 -16q-55 0 -89 23.5t-34 68.5q0 44 33 75
t97 38h1l64 520h130z" />
    <glyph glyph-name="Wcircumflex" unicode="&#x174;" horiz-adv-x="1081" 
d="M696 880l86 -134h-89l-91 87l-114 -87h-89l118 134h179zM1100 700l-368 -700h-11l-162 438l-273 -438h-12l-195 700h142l103 -402l251 402h23l152 -402l202 402h148z" />
    <glyph glyph-name="wcircumflex" unicode="&#x175;" horiz-adv-x="783" 
d="M528 700l86 -134h-89l-91 87l-114 -87h-89l118 134h179zM785 520l-278 -520h-3l-110 299l-183 -299h-4l-150 520h128l73 -269l161 269h4l96 -269l139 269h127z" />
    <glyph glyph-name="Ycircumflex" unicode="&#x176;" horiz-adv-x="716" 
d="M516 880l86 -134h-89l-91 87l-114 -87h-89l118 134h179zM740 700l-315 -406l-36 -294h-131l36 294l-215 406h149l146 -288l216 288h150z" />
    <glyph glyph-name="ycircumflex" unicode="&#x177;" horiz-adv-x="609" 
d="M350 653l-114 -87h-89l118 134h179l86 -134h-89zM479 520h132l-375 -710h-131l108 207l-156 503h127l109 -353z" />
    <glyph glyph-name="Ydieresis" unicode="&#x178;" horiz-adv-x="716" 
d="M371 880l-13 -108h-131l13 108h131zM620 880l-13 -108h-131l13 108h131zM740 700l-315 -406l-36 -294h-131l36 294l-215 406h149l146 -288l216 288h150z" />
    <glyph glyph-name="Zacute" unicode="&#x179;" horiz-adv-x="625" 
d="M539 880l-125 -129h-97l68 129h154zM640 700l-414 -587h346l-14 -113h-555l414 588h-323l14 112h532z" />
    <glyph glyph-name="zacute" unicode="&#x17a;" horiz-adv-x="528" 
d="M465 700l-125 -129h-97l68 129h154zM530 520l-307 -407h236l-15 -113h-446l304 408h-242l14 112h456z" />
    <glyph glyph-name="Zdotaccent" unicode="&#x17b;" horiz-adv-x="625" 
d="M453 880l-13 -108h-131l13 108h131zM640 700l-414 -587h346l-14 -113h-555l414 588h-323l14 112h532z" />
    <glyph glyph-name="zdotaccent" unicode="&#x17c;" horiz-adv-x="528" 
d="M378 700l-13 -108h-131l13 108h131zM530 520l-307 -407h236l-15 -113h-446l304 408h-242l14 112h456z" />
    <glyph glyph-name="Zcaron" unicode="&#x17d;" horiz-adv-x="625" 
d="M461 746h-178l-87 134h89l93 -87l112 87h90zM640 700l-414 -587h346l-14 -113h-555l414 588h-323l14 112h532z" />
    <glyph glyph-name="zcaron" unicode="&#x17e;" horiz-adv-x="528" 
d="M386 566h-178l-87 134h89l93 -87l112 87h90zM530 520l-307 -407h236l-15 -113h-446l304 408h-242l14 112h456z" />
    <glyph glyph-name="florin" unicode="&#x192;" horiz-adv-x="324" 
d="M334 585q-39 0 -55.5 -16t-22.5 -49h67l-14 -112h-68l-52 -420q-12 -93 -66 -135.5t-151 -42.5l6 112q48 0 63.5 23.5t20.5 77.5l48 385h-61l14 112h61q21 178 217 178z" />
    <glyph glyph-name="uni01CD" unicode="&#x1cd;" horiz-adv-x="747" 
d="M532 746h-178l-87 134h89l93 -87l112 87h90zM533 0l-38 119h-284l-68 -119h-150l441 707h6l240 -707h-147zM274 227h187l-67 207z" />
    <glyph glyph-name="uni01CE" unicode="&#x1ce;" horiz-adv-x="607" 
d="M428 566h-178l-87 134h89l93 -87l112 87h90zM453 520h131l-64 -520h-131l7 62q-8 -23 -53 -46t-97 -23q-93 0 -159.5 70.5t-51.5 196.5q10 84 57 147t104.5 91t115.5 28q99 0 134 -60zM427 260q10 79 -22.5 116.5t-86.5 37.5q-53 0 -98 -42t-54 -112t26.5 -112t88.5 -42
q54 0 95 37.5t51 116.5z" />
    <glyph glyph-name="uni01CF" unicode="&#x1cf;" horiz-adv-x="262" 
d="M275 746h-178l-87 134h89l93 -87l112 87h90zM251 700l-86 -700h-137l86 700h137z" />
    <glyph glyph-name="uni01D0" unicode="&#x1d0;" horiz-adv-x="281" 
d="M256 566h-178l-87 134h89l93 -87l112 87h90zM227 520l-64 -520h-131l64 520h131z" />
    <glyph glyph-name="uni01D1" unicode="&#x1d1;" horiz-adv-x="784" 
d="M542 746h-178l-87 134h89l93 -87l112 87h90zM442 707q66 0 126.5 -26.5t104 -72.5t65 -113.5t12.5 -144.5q-19 -153 -138.5 -255t-257.5 -102q-87 0 -161.5 44.5t-116.5 128t-30 184.5q19 152 140 254.5t256 102.5zM428 577q-84 0 -152.5 -63.5t-80.5 -163.5t41 -163.5
t136 -63.5q88 0 153 63t78 164q12 101 -38 164t-137 63z" />
    <glyph glyph-name="uni01D2" unicode="&#x1d2;" horiz-adv-x="602" 
d="M417 566h-178l-87 134h89l93 -87l112 87h90zM332 526q53 0 104.5 -24t89.5 -79t38 -128q0 -123 -89.5 -212.5t-208.5 -89.5q-54 0 -105.5 23.5t-89.5 78t-38 128.5q0 123 90 213t209 90zM317 412q-64 0 -108.5 -53.5t-44.5 -125.5q0 -59 34.5 -92.5t81.5 -33.5
q64 0 108.5 53t44.5 124q0 60 -34.5 94t-81.5 34z" />
    <glyph glyph-name="uni01D3" unicode="&#x1d3;" horiz-adv-x="683" 
d="M482 746h-178l-87 134h89l93 -87l112 87h90zM672 700l-56 -452q-14 -115 -104.5 -185t-204.5 -70q-118 0 -195 73t-62 189l54 445h131l-56 -451q-8 -75 29.5 -109t100.5 -34q66 0 116.5 37.5t60.5 112.5l55 444h131z" />
    <glyph glyph-name="uni01D4" unicode="&#x1d4;" 
d="M418 566h-178l-87 134h89l93 -87l112 87h90zM206 520l-36 -295q-8 -62 11.5 -90.5t55.5 -28.5q58 0 110 49.5t61 90.5l-17 -140q-12 -37 -60 -75t-109 -38q-92 0 -144 57.5t-38 173.5l37 296h129zM572 520l-64 -520h-130l64 520h130z" />
    <glyph glyph-name="uni01EA" unicode="&#x1ea;" horiz-adv-x="780" 
d="M442 707q66 0 126.5 -26.5t104 -72.5t65 -113.5t12.5 -144.5q-17 -137 -117.5 -235t-226.5 -118q-79 -30 -105 -50t-26 -44q0 -20 19 -30.5t47 -1.5l27 -60q-46 -16 -92 -16q-55 0 -89 23.5t-34 68.5q0 44 33 75t97 38h6q-115 25 -187.5 121.5t-55.5 228.5
q19 152 140 254.5t256 102.5zM603 350q12 101 -38 164t-137 63q-84 0 -152.5 -63.5t-80.5 -163.5t41 -163.5t136 -63.5q88 0 153 63t78 164z" />
    <glyph glyph-name="uni01EB" unicode="&#x1eb;" horiz-adv-x="604" 
d="M317 -2q-81 -30 -106.5 -50.5t-25.5 -44.5q0 -20 18.5 -30.5t46.5 -1.5l28 -60q-48 -16 -92 -16q-56 0 -89.5 23.5t-33.5 68.5q0 44 33 75t97 38h17q-74 18 -125.5 75t-51.5 148q0 123 90 213t209 90q53 0 104.5 -24t89.5 -79t38 -128q0 -109 -71.5 -193t-175.5 -104z
M164 233q0 -59 34.5 -92.5t81.5 -33.5q64 0 108.5 53t44.5 124q0 60 -34.5 94t-81.5 34q-64 0 -108.5 -53.5t-44.5 -125.5z" />
    <glyph glyph-name="Scommaaccent" unicode="&#x218;" horiz-adv-x="568" 
d="M342 707q80 0 134.5 -40t77.5 -98l-123 -40q-23 63 -104 63q-41 0 -72 -22.5t-31 -58.5q0 -26 18 -42t63 -33l33 -11q189 -69 189 -202q0 -74 -46 -128.5t-108 -78t-127 -23.5q-87 0 -151.5 45t-82.5 119l116 49q11 -41 47.5 -69.5t85.5 -28.5q52 0 91.5 26.5t39.5 76.5
q0 34 -23 53t-81 41l-34 13q-79 30 -123 71.5t-44 106.5q0 92 77 151.5t178 59.5zM101 -252l73 224h169l-127 -224h-115z" />
    <glyph glyph-name="scommaaccent" unicode="&#x219;" horiz-adv-x="485" 
d="M332 369q-25 47 -71 47q-23 0 -38.5 -12t-15.5 -31q0 -28 37 -43l63 -24q34 -13 50 -20.5t39 -23t33 -37.5t10 -52q0 -83 -69 -131.5t-159 -48.5q-75 0 -131.5 36.5t-65.5 101.5l115 34q10 -30 37 -45t59 -15q30 0 53.5 15.5t23.5 39.5t-41 42l-60 24q-69 27 -100.5 55.5
t-31.5 75.5q0 74 60.5 121.5t142.5 47.5q142 0 181 -128zM45 -252l73 224h169l-127 -224h-115z" />
    <glyph glyph-name="uni021A" unicode="&#x21a;" horiz-adv-x="580" 
d="M599 700l-14 -119h-184l-71 -581h-143l72 581h-184l14 119h327h183zM93 -270l73 224h169l-127 -224h-115z" />
    <glyph glyph-name="uni021B" unicode="&#x21b;" horiz-adv-x="368" 
d="M242 414l-32 -257q-8 -50 36 -50q34 0 70 12l-14 -107q-38 -18 -101 -18q-67 0 -100.5 34t-22.5 127l33 259h-67l13 106h67l11 90h131l-11 -90h110l-12 -106h-111zM9 -256l73 225h169l-128 -225h-114z" />
    <glyph glyph-name="uni0237" unicode="&#x237;" horiz-adv-x="270" 
d="M211 520l-71 -572q-9 -77 -54 -115t-116 -38q-45 0 -104 25l16 129q10 -3 25.5 -8t23 -7t18 -4t19.5 -2q39 0 46 61l66 531h131z" />
    <glyph glyph-name="circumflex" unicode="&#x2c6;" horiz-adv-x="404" 
d="M345 700l86 -134h-89l-91 87l-114 -87h-89l118 134h179z" />
    <glyph glyph-name="caron" unicode="&#x2c7;" horiz-adv-x="404" 
d="M329 566h-178l-87 134h89l93 -87l112 87h90z" />
    <glyph glyph-name="breve" unicode="&#x2d8;" horiz-adv-x="334" 
d="M378 700q-9 -59 -53.5 -101t-121.5 -42q-71 0 -108.5 43.5t-30.5 99.5h80q2 -22 20 -38t50 -16t54.5 16t29.5 38h80z" />
    <glyph glyph-name="dotaccent" unicode="&#x2d9;" horiz-adv-x="231" 
d="M235 700l-13 -108h-131l13 108h131z" />
    <glyph glyph-name="ring" unicode="&#x2da;" horiz-adv-x="238" 
d="M187 801q44 0 72 -32.5t22 -76.5q-5 -43 -40.5 -75t-79.5 -32q-46 0 -74.5 31.5t-23.5 75.5q6 45 42 77t82 32zM175 722q-11 0 -20 -8t-10 -20q-2 -11 5 -19.5t18 -8.5t21 8.5t11 19.5q1 12 -6.5 20t-18.5 8z" />
    <glyph glyph-name="ogonek" unicode="&#x2db;" horiz-adv-x="246" 
d="M221 0q-84 -31 -111 -51.5t-27 -45.5q0 -20 18.5 -30.5t46.5 -1.5l27 -60q-46 -16 -92 -16q-55 0 -89 23.5t-34 68.5q0 44 33 75t97 38h131z" />
    <glyph glyph-name="tilde" unicode="&#x2dc;" horiz-adv-x="391" 
d="M160 744q41 0 94.5 -34.5t74.5 -34.5q18 0 36 9t19 20l50 -8q-7 -54 -39.5 -88.5t-83.5 -34.5q-41 0 -96.5 39.5t-79.5 39.5q-18 0 -35 -12t-18 -25l-48 7q6 54 39 88t87 34z" />
    <glyph glyph-name="hungarumlaut" unicode="&#x2dd;" horiz-adv-x="514" 
d="M270 700l-124 -129h-97l68 129h153zM469 700l-124 -129h-97l68 129h153z" />
    <glyph glyph-name="uni0326" unicode="&#x326;" horiz-adv-x="0" 
d="M-306 -215l73 224h169l-127 -224h-115z" />
    <glyph glyph-name="uni0394" unicode="&#x394;" horiz-adv-x="733" 
d="M423 700l216 -700h-633l387 700h30zM387 489l-200 -376h304z" />
    <glyph glyph-name="uni03A9" unicode="&#x3a9;" horiz-adv-x="801" 
d="M747 348q-16 -126 -116 -223h64l-15 -125h-230l18 152l34 28q100 74 113 183q13 99 -40 156.5t-140 57.5q-90 0 -162 -62.5t-85 -166.5q-12 -106 62 -172l33 -24l-18 -152h-229l15 125h73q-86 102 -69 238q12 98 72 178t143 123t168 43q65 0 125.5 -27t104.5 -73
t66.5 -114t12.5 -145z" />
    <glyph glyph-name="uni03BC" unicode="&#x3bc;" horiz-adv-x="596" 
d="M409 246l-17 -140q-12 -37 -60 -75t-109 -38q-46 0 -80 14l-25 -197h-128l49 399q1 3 1 8t1 7l37 296h129l-36 -295q-8 -62 11.5 -90.5t55.5 -28.5q58 0 110 49.5t61 90.5zM443 520h130l-64 -520h-130z" />
    <glyph glyph-name="pi" unicode="&#x3c0;" horiz-adv-x="724" 
d="M576 408l-31 -250q-4 -33 2.5 -42t27.5 -9q34 0 74 19l-10 -115q-36 -17 -106 -17q-51 0 -91.5 26t-34.5 78l38 310h-157l-50 -408h-131l50 408h-100l14 112h618l-14 -112h-99z" />
    <glyph glyph-name="uni0401" unicode="&#x401;" 
d="M324 880l-13 -108h-131l13 108h131zM573 880l-13 -108h-131l13 108h131zM28 0l86 700h138l-35 -290h231l-15 -117h-231l1 2l-22 -177h341l-14 -118h-480zM569 582h-331l14 118h332z" />
    <glyph glyph-name="uni0403" unicode="&#x403;" horiz-adv-x="557" 
d="M521 880l-125 -129h-97l68 129h154zM576 700l-15 -112h-330l-72 -588h-131l86 700h131h331z" />
    <glyph glyph-name="uni0404" unicode="&#x404;" horiz-adv-x="650" 
d="M362 123q74 0 144 62l77 -107q-104 -85 -228 -85q-65 0 -125 27t-104.5 74t-66.5 116t-12 146q18 151 134.5 251t249.5 100q128 0 215 -89l-93 -98q-50 57 -124 57q-69 0 -130.5 -48t-90.5 -122h123l-14 -113h-126q6 -74 54 -122.5t117 -48.5z" />
    <glyph glyph-name="uni0406" unicode="&#x406;" horiz-adv-x="262" 
d="M251 700l-86 -700h-137l86 700h137z" />
    <glyph glyph-name="uni0407" unicode="&#x407;" horiz-adv-x="262" 
d="M142 880l-13 -108h-131l13 108h131zM391 880l-13 -108h-131l13 108h131zM251 700l-86 -700h-137l86 700h137z" />
    <glyph glyph-name="uni0410" unicode="&#x410;" horiz-adv-x="747" 
d="M533 0l-38 119h-284l-68 -119h-150l441 707h6l240 -707h-147zM274 227h187l-67 207z" />
    <glyph glyph-name="uni0411" unicode="&#x411;" horiz-adv-x="610" 
d="M335 429q108 0 171 -55t63 -141q0 -96 -77.5 -164.5t-202.5 -68.5h-136h-125l86 700h135h286l-14 -112h-286l-20 -159h120zM288 115q66 0 108 29.5t42 93.5q0 42 -30.5 59t-87.5 17h-119l-24 -199h111z" />
    <glyph glyph-name="uni0412" unicode="&#x412;" horiz-adv-x="627" 
d="M472 387q65 -30 93 -76.5t20 -102.5q-11 -96 -86.5 -152t-199.5 -56h-271l86 700h262q97 0 150 -47t43 -138q-6 -41 -30.5 -75t-66.5 -53zM214 431h129q85 0 93 78q5 37 -15 57t-60 20h-128zM328 114q57 0 89 28.5t38 72.5q6 42 -20 72.5t-82 30.5h-153l-25 -204h153z
" />
    <glyph glyph-name="uni0413" unicode="&#x413;" horiz-adv-x="557" 
d="M576 700l-15 -112h-330l-72 -588h-131l86 700h131h331z" />
    <glyph glyph-name="uni0414" unicode="&#x414;" horiz-adv-x="909" 
d="M836 113l-22 -182h-131l8 69h-552l-8 -69h-131l22 182h96q24 44 42.5 120.5t28 140t25.5 190.5l17 136h131h365h66l-73 -587h116zM254 113h335l59 475h-301l-4 -32q-17 -137 -24 -190t-24.5 -131t-40.5 -122z" />
    <glyph glyph-name="uni0415" unicode="&#x415;" 
d="M28 0l86 700h138l-35 -290h231l-15 -117h-231l1 2l-22 -177h341l-14 -118h-480zM569 582h-331l14 118h332z" />
    <glyph glyph-name="uni0416" unicode="&#x416;" horiz-adv-x="1233" 
d="M1229 700l-325 -348l267 -352h-156l-198 260l-153 -162l-12 -98h-136l12 99l-110 160l-261 -259h-159l356 353l-239 347h158l278 -413l51 413h136l-51 -410l377 410h165z" />
    <glyph glyph-name="uni0417" unicode="&#x417;" horiz-adv-x="607" 
d="M341 707q88 0 150 -53.5t62 -128.5q0 -63 -43.5 -107t-99.5 -54q46 0 93 -41.5t47 -103.5q0 -100 -86 -164.5t-199 -64.5q-106 0 -174.5 55.5t-68.5 136.5q0 14 1 20h137q-1 -4 -1 -13q0 -25 11 -43.5t28.5 -27t34 -12t33.5 -3.5q65 0 106.5 32.5t41.5 89.5q0 75 -142 79
l5 107q84 6 111.5 29.5t27.5 72.5q0 38 -25.5 60t-58.5 22q-16 0 -31 -3t-33.5 -12t-31.5 -29.5t-17 -50.5h-137q11 95 85 151t174 56z" />
    <glyph glyph-name="uni0418" unicode="&#x418;" horiz-adv-x="674" 
d="M663 700l-86 -700h-137l47 384l-446 -384h-13l86 700h137l-47 -383l447 383h12z" />
    <glyph glyph-name="uni0419" unicode="&#x419;" horiz-adv-x="674" 
d="M603 880q-8 -59 -52.5 -101t-122.5 -42q-70 0 -107.5 43.5t-30.5 99.5h79q2 -22 20.5 -38t50.5 -16t54 15.5t30 38.5h79zM663 700l-86 -700h-137l47 384l-446 -384h-13l86 700h137l-47 -383l447 383h12z" />
    <glyph glyph-name="uni041A" unicode="&#x41a;" horiz-adv-x="745" 
d="M740 700l-324 -348l267 -352h-157l-198 260l-152 -162l-12 -98h-136l86 700h136l-52 -410l378 410h164z" />
    <glyph glyph-name="uni041B" unicode="&#x41b;" horiz-adv-x="791" 
d="M780 700l-86 -700h-131l73 588h-327l-54 -437q-11 -93 -50 -125t-105 -32q-65 0 -100 19l8 111q32 -17 62 -17q22 0 37 18t18 36l66 539h131h458z" />
    <glyph glyph-name="uni041C" unicode="&#x41c;" horiz-adv-x="851" 
d="M840 700l-86 -700h-135l49 395l-222 -395h-112l-122 393l-49 -393h-135l86 700h130l171 -511l295 511h130z" />
    <glyph glyph-name="uni041D" unicode="&#x41d;" horiz-adv-x="714" 
d="M703 700l-86 -700h-135l37 291h-320l-36 -291h-135l86 700h135l-36 -294h320l35 294h135z" />
    <glyph glyph-name="uni041E" unicode="&#x41e;" horiz-adv-x="784" 
d="M442 707q66 0 126.5 -26.5t104 -72.5t65 -113.5t12.5 -144.5q-19 -153 -138.5 -255t-257.5 -102q-87 0 -161.5 44.5t-116.5 128t-30 184.5q19 152 140 254.5t256 102.5zM428 577q-84 0 -152.5 -63.5t-80.5 -163.5t41 -163.5t136 -63.5q88 0 153 63t78 164q12 101 -38 164
t-137 63z" />
    <glyph glyph-name="uni041F" unicode="&#x41f;" horiz-adv-x="714" 
d="M703 700l-86 -700h-131l72 588h-327l-72 -588h-131l86 700h131h458z" />
    <glyph glyph-name="uni0420" unicode="&#x420;" horiz-adv-x="598" 
d="M356 700q108 0 169.5 -53t61.5 -137q0 -109 -78.5 -180.5t-207.5 -71.5h-107l-31 -258h-135l86 700h242zM311 377q63 0 101.5 30.5t38.5 86.5q0 42 -30.5 64.5t-83.5 22.5h-102l-27 -204h103z" />
    <glyph glyph-name="uni0421" unicode="&#x421;" horiz-adv-x="666" 
d="M443 707q136 0 220 -87l-95 -99q-58 56 -139 56q-85 0 -154.5 -66t-80.5 -161q-13 -95 40 -161t139 -66q80 0 156 59l70 -99q-110 -90 -244 -90q-65 0 -125 26.5t-104.5 72.5t-66.5 113.5t-13 143.5q19 153 139.5 255.5t257.5 102.5z" />
    <glyph glyph-name="uni0422" unicode="&#x422;" horiz-adv-x="580" 
d="M599 700l-14 -119h-184l-71 -581h-143l72 581h-184l14 119h327h183z" />
    <glyph glyph-name="uni0423" unicode="&#x423;" horiz-adv-x="707" 
d="M584 700h147l-468 -700h-147l158 236l-195 464h142l140 -334z" />
    <glyph glyph-name="uni0424" unicode="&#x424;" horiz-adv-x="899" 
d="M557 634q150 -8 238.5 -89.5t73.5 -201.5q-15 -117 -121.5 -194.5t-259.5 -83.5l-8 -65h-131l8 66q-149 8 -237 90t-73 201q15 117 121 194.5t258 83.5l9 65h131zM740 357q8 63 -35.5 111.5t-160.5 53.5l-43 -344q116 7 173.5 59.5t65.5 119.5zM176 343
q-8 -63 35.5 -111.5t158.5 -53.5l43 344q-60 -4 -106 -21.5t-72.5 -44.5t-40.5 -55t-18 -58z" />
    <glyph glyph-name="uni0425" unicode="&#x425;" horiz-adv-x="726" 
d="M729 700l-281 -346l201 -354h-154l-138 243l-197 -243h-157l289 357l-195 343h154l131 -231l187 231h160z" />
    <glyph glyph-name="uni0426" unicode="&#x426;" horiz-adv-x="815" 
d="M703 700l-72 -587h116l-22 -182h-130l8 69h-575l86 700h131l-72 -587h327l72 587h131z" />
    <glyph glyph-name="uni0427" unicode="&#x427;" horiz-adv-x="627" 
d="M500 700h131l-86 -700h-131l36 294q-17 -29 -63 -55t-108 -26q-106 0 -163.5 54.5t-43.5 167.5l32 265h131l-34 -273q-11 -101 103 -101q91 0 162 106l-3 -34z" />
    <glyph glyph-name="uni0428" unicode="&#x428;" horiz-adv-x="1172" 
d="M1161 700l-86 -700h-1047l86 700h131l-72 -587h327l72 587h131l-72 -587h327l72 587h131z" />
    <glyph glyph-name="uni0429" unicode="&#x429;" horiz-adv-x="1274" 
d="M1161 700l-72 -587h117l-22 -182h-130l8 69h-1034l86 700h131l-72 -587h327l72 587h131l-72 -587h327l72 587h131z" />
    <glyph glyph-name="uni042A" unicode="&#x42a;" horiz-adv-x="668" 
d="M395 429q115 0 179 -63t53 -158q-11 -89 -87.5 -148.5t-190.5 -59.5h-261l72 588h-95l14 112h175h55l-72 -585h111q61 0 102 26t48 81q6 52 -25 72t-93 20h-118l14 115h119z" />
    <glyph glyph-name="uni042B" unicode="&#x42b;" horiz-adv-x="911" 
d="M335 429q115 0 179 -63t53 -158q-11 -89 -87.5 -148.5t-190.5 -59.5h-261l86 700h135l-72 -585h111q61 0 102 26t48 81q6 52 -25 72t-93 20h-118l14 115h119zM762 700h138l-86 -700h-138z" />
    <glyph glyph-name="uni042C" unicode="&#x42c;" horiz-adv-x="613" 
d="M335 429q115 0 179 -63t53 -158q-11 -89 -87.5 -148.5t-190.5 -59.5h-261l86 700h135l-72 -585h111q61 0 102 26t48 81q6 52 -25 72t-93 20h-118l14 115h119z" />
    <glyph glyph-name="uni042D" unicode="&#x42d;" horiz-adv-x="650" 
d="M307 707q65 0 125.5 -27t104.5 -74.5t66 -117t12 -147.5q-18 -149 -134.5 -248.5t-249.5 -99.5q-127 0 -214 89l93 98q50 -57 123 -57q70 0 131.5 48t90.5 123h-124l14 113h126q-6 74 -54 122t-117 48q-76 0 -144 -61l-77 106q104 85 228 85z" />
    <glyph glyph-name="uni042E" unicode="&#x42e;" horiz-adv-x="980" 
d="M638 707q66 0 126.5 -26.5t104 -72.5t65 -113.5t12.5 -144.5q-19 -153 -138.5 -255t-257.5 -102q-121 0 -214 85t-97 216h-37l-37 -294h-137l86 700h137l-36 -293h38q37 131 150.5 215.5t234.5 84.5zM799 350q12 101 -38 164t-137 63q-84 0 -152.5 -63.5t-80.5 -163.5
t41 -163.5t136 -63.5q88 0 153 63t78 164z" />
    <glyph glyph-name="uni042F" unicode="&#x42f;" horiz-adv-x="664" 
d="M653 700l-86 -700h-135l33 271h-38l-243 -271h-171l269 277q-86 16 -132 75.5t-36 139.5q11 89 87.5 148.5t190.5 59.5h261zM504 585h-111q-61 0 -102 -26t-48 -81q-6 -52 24.5 -71.5t92.5 -19.5h119z" />
    <glyph glyph-name="uni0430" unicode="&#x430;" horiz-adv-x="607" 
d="M453 520h131l-64 -520h-131l7 62q-8 -23 -53 -46t-97 -23q-93 0 -159.5 70.5t-51.5 196.5q10 84 57 147t104.5 91t115.5 28q99 0 134 -60zM427 260q10 79 -22.5 116.5t-86.5 37.5q-53 0 -98 -42t-54 -112t26.5 -112t88.5 -42q54 0 95 37.5t51 116.5z" />
    <glyph glyph-name="uni0431" unicode="&#x431;" horiz-adv-x="617" 
d="M360 526q94 0 162.5 -73.5t53.5 -199.5q-10 -84 -56 -145.5t-101.5 -88t-112.5 -26.5q-54 0 -94.5 25t-43.5 49l-9 -67h-131l65 524q11 91 66 133.5t159 42.5h68q48 0 81 22l128 -4q-42 -63 -88.5 -96.5t-110.5 -33.5h-85q-46 0 -64 -17t-23 -55l-7 -41q57 51 143 51z
M447 267q8 67 -25 107t-82 40q-58 0 -101.5 -40t-54.5 -121q-9 -76 21.5 -111.5t84.5 -35.5q53 0 100.5 44t56.5 117z" />
    <glyph glyph-name="uni0432" unicode="&#x432;" horiz-adv-x="593" 
d="M455 286q50 -20 72 -56t17 -82q-17 -148 -244 -148h-272l64 520h131l-23 -184h133q22 0 36.5 5t21.5 16t8.5 14.5t3.5 13.5l1 4v6.5t-3 6.5t-8 6t-16 4t-26 2h-141l13 106h134q85 0 134 -38.5t40 -107.5q-5 -64 -76 -88zM415 163q3 6 0.5 16.5t-8 20.5t-26 17.5
t-53.5 7.5h-141l4 37l-19 -156h133q105 0 110 57z" />
    <glyph glyph-name="uni0433" unicode="&#x433;" horiz-adv-x="544" 
d="M516 520l-15 -112h-297l-50 -408h-131l64 520h131h298z" />
    <glyph glyph-name="uni0434" unicode="&#x434;" horiz-adv-x="731" 
d="M668 520l-50 -407h45l-21 -169h-131l7 56h-384l-7 -56h-131l21 169h56q35 40 51.5 109.5t32.5 201.5l12 96h131h348h20zM210 113h277l36 295h-237q-10 -86 -16.5 -128.5t-21.5 -91t-38 -75.5z" />
    <glyph glyph-name="uni0435" unicode="&#x435;" 
d="M329 526q40 0 79.5 -14.5t73 -41.5t54 -71.5t20.5 -98.5q0 -57 -12 -86h-380q4 -51 40 -79.5t85 -28.5q61 0 108 33l91 -56q-89 -90 -213 -90q-93 0 -167.5 60t-74.5 169q0 124 88.5 214t207.5 90zM315 414q-44 0 -82.5 -27.5t-55.5 -79.5h251q-5 51 -37.5 79t-75.5 28z
" />
    <glyph glyph-name="uni0436" unicode="&#x436;" horiz-adv-x="908" 
d="M909 520l-280 -258l222 -262h-167l-147 177l-29 -27l-18 -150h-131l19 152l-22 26l-190 -178h-173l290 265l-214 255h166l164 -194l24 194h131l-24 -191l208 191h171z" />
    <glyph glyph-name="uni0437" unicode="&#x437;" horiz-adv-x="563" 
d="M294 525q85 0 145.5 -40.5t60.5 -98.5q0 -31 -9.5 -51t-32.5 -31.5t-40 -16t-54 -10.5q141 -10 141 -111q0 -78 -79 -125.5t-182 -47.5q-98 0 -160 44t-62 110q0 12 1 18h130q-4 -27 25.5 -43t67.5 -16q47 0 88 16t41 45q0 24 -30 39t-93 14l14 110q103 2 103 45
q0 38 -75 38q-39 0 -65.5 -10t-28.5 -25h-130q8 63 72 105t152 42z" />
    <glyph glyph-name="uni0438" unicode="&#x438;" horiz-adv-x="626" 
d="M593 520l-64 -520h-131l32 252l-389 -252h-13l64 520h131l-32 -252l388 252h14z" />
    <glyph glyph-name="uni0439" unicode="&#x439;" horiz-adv-x="626" 
d="M523 700q-9 -59 -53.5 -101t-121.5 -42q-71 0 -108.5 43.5t-30.5 99.5h80q2 -22 20 -38t50 -16t54.5 16t29.5 38h80zM593 520l-64 -520h-131l32 252l-389 -252h-13l64 520h131l-32 -252l388 252h14z" />
    <glyph glyph-name="uni043A" unicode="&#x43a;" horiz-adv-x="586" 
d="M581 520l-279 -258l222 -262h-167l-147 177l-31 -29l14 125l-34 -273h-131l64 520h131l-24 -195l211 195h171z" />
    <glyph glyph-name="uni043B" unicode="&#x43b;" horiz-adv-x="720" 
d="M687 520l-64 -520h-131l50 408h-256l-31 -257q-11 -93 -50 -125t-105 -32q-65 0 -100 19l8 111q32 -17 62 -17q22 0 37 18t18 36l44 359h131h387z" />
    <glyph glyph-name="uni043C" unicode="&#x43c;" horiz-adv-x="758" 
d="M725 520l-64 -520h-131l22 172l-197 -172h-18l-156 172l-22 -172h-131l64 520h16l259 -315l339 315h19z" />
    <glyph glyph-name="uni043D" unicode="&#x43d;" horiz-adv-x="604" 
d="M440 520h131l-64 -520h-131l25 204h-217l-25 -204h-131l64 520h131l-25 -203h216z" />
    <glyph glyph-name="uni043E" unicode="&#x43e;" horiz-adv-x="602" 
d="M332 526q53 0 104.5 -24t89.5 -79t38 -128q0 -123 -89.5 -212.5t-208.5 -89.5q-54 0 -105.5 23.5t-89.5 78t-38 128.5q0 123 90 213t209 90zM317 412q-64 0 -108.5 -53.5t-44.5 -125.5q0 -59 34.5 -92.5t81.5 -33.5q64 0 108.5 53t44.5 124q0 60 -34.5 94t-81.5 34z" />
    <glyph glyph-name="uni043F" unicode="&#x43f;" horiz-adv-x="624" 
d="M591 520l-64 -520h-131l50 408h-237l-50 -408h-131l64 520h131h368z" />
    <glyph glyph-name="uni0440" unicode="&#x440;" horiz-adv-x="617" 
d="M360 526q94 0 162.5 -73.5t53.5 -199.5q-10 -84 -56 -145.5t-101.5 -88t-112.5 -26.5q-54 0 -94.5 25t-43.5 49l-32 -257h-131l87 710h131l-7 -48q54 54 144 54zM447 267q8 67 -25 107t-82 40q-58 0 -101.5 -40t-54.5 -121q-9 -76 21.5 -111.5t84.5 -35.5q53 0 100.5 44
t56.5 117z" />
    <glyph glyph-name="uni0441" unicode="&#x441;" horiz-adv-x="560" 
d="M333 526q63 0 116.5 -30.5t82.5 -90.5l-112 -47q-14 26 -41 41t-60 15q-63 0 -109.5 -54.5t-46.5 -123.5q0 -60 36 -95t82 -35q71 0 115 55l101 -47q-44 -60 -105 -90.5t-125 -30.5q-88 0 -161 61.5t-73 168.5q0 125 89.5 214t210.5 89z" />
    <glyph glyph-name="uni0442" unicode="&#x442;" horiz-adv-x="480" 
d="M477 520l-14 -112h-142l-50 -408h-131l50 408h-142l14 112h273h142z" />
    <glyph glyph-name="uni0443" unicode="&#x443;" horiz-adv-x="609" 
d="M479 520h132l-375 -710h-131l108 207l-156 503h127l109 -353z" />
    <glyph glyph-name="uni0444" unicode="&#x444;" horiz-adv-x="978" 
d="M721 527q94 0 162 -73.5t53 -199.5q-8 -64 -36 -115.5t-67 -82t-81.5 -46.5t-84.5 -16q-54 0 -94.5 25t-43.5 49l-32 -258h-131l30 237q-53 -53 -144 -53q-94 0 -162.5 73.5t-53.5 199.5q10 84 56 145.5t101.5 88t112.5 26.5q54 0 94.5 -25t43.5 -49l32 257h131l-30 -235
q55 52 144 52zM415 209l14 115q-17 91 -107 91q-53 0 -100.5 -44.5t-56.5 -117.5q-8 -67 25 -106.5t82 -39.5q103 0 143 102zM808 268q8 67 -25 107t-82 40q-46 0 -84 -25t-59 -78l-14 -115q15 -90 107 -90q53 0 100.5 44t56.5 117z" />
    <glyph glyph-name="uni0445" unicode="&#x445;" horiz-adv-x="614" 
d="M591 520l-214 -247l170 -273h-142l-111 178l-154 -178h-147l240 277l-151 243h141l93 -149l129 149h146z" />
    <glyph glyph-name="uni0446" unicode="&#x446;" horiz-adv-x="661" 
d="M591 520l-50 -407h52l-22 -182h-130l8 69h-421l64 520h131l-50 -407h237l50 407h131z" />
    <glyph glyph-name="uni0447" unicode="&#x447;" horiz-adv-x="588" 
d="M439 520h131l-64 -520h-131l28 227q-64 -89 -151 -89q-93 0 -152 61.5t-47 163.5l20 157h131l-20 -165q-12 -102 72 -102q105 0 163 121l-8 -86z" />
    <glyph glyph-name="uni0448" unicode="&#x448;" horiz-adv-x="844" 
d="M811 520l-64 -520h-719l64 520h131l-50 -407h163l50 407h131l-50 -407h163l50 407h131z" />
    <glyph glyph-name="uni0449" unicode="&#x449;" horiz-adv-x="919" 
d="M852 113l-23 -182h-130l9 69h-680l64 520h131l-50 -407h163l50 407h131l-50 -407h163l50 407h131l-50 -407h91z" />
    <glyph glyph-name="uni044A" unicode="&#x44a;" horiz-adv-x="652" 
d="M415 306q91 0 144 -45.5t44 -118.5q-8 -66 -67.5 -104t-151.5 -38h-191h-111l50 408h-89l14 112h139h81l-26 -214h164zM473 156q2 6 0 12.5t-6 12.5t-19.5 9.5t-40.5 3.5h-170l-10 -81h163q33 0 52 6.5t24 14.5t7 22z" />
    <glyph glyph-name="uni044B" unicode="&#x44b;" horiz-adv-x="851" 
d="M376 306q91 0 144 -45.5t44 -118.5q-8 -66 -68 -104t-151 -38h-191h-111l64 520h131l-26 -214h164zM687 520h131l-64 -520h-131zM434 156q2 6 0 12.5t-6 12.5t-19.5 9.5t-40.5 3.5h-170l-10 -81h163q33 0 52 6.5t24 14.5t7 22z" />
    <glyph glyph-name="uni044C" unicode="&#x44c;" horiz-adv-x="598" 
d="M361 306q91 0 144 -45.5t44 -118.5q-8 -66 -68 -104t-151 -38h-191h-111l64 520h131l-26 -214h164zM419 156q2 6 0 12.5t-6 12.5t-19.5 9.5t-40.5 3.5h-170l-10 -81h163q33 0 52 6.5t24 14.5t7 22z" />
    <glyph glyph-name="uni044D" unicode="&#x44d;" horiz-adv-x="558" 
d="M276 526q44 0 88 -17.5t81 -50t56 -87t10 -120.5q-11 -83 -61.5 -144t-110.5 -87.5t-117 -26.5q-61 0 -119.5 30.5t-88.5 84.5l119 45q24 -46 91 -46q40 0 78 23.5t60 66.5h-96l16 119h100q-7 47 -37 71.5t-71 24.5q-74 0 -112 -51l-112 55q43 53 105.5 81.5t120.5 28.5z
" />
    <glyph glyph-name="uni044E" unicode="&#x44e;" horiz-adv-x="834" 
d="M563 526q53 0 104.5 -24t89.5 -79t38 -128q0 -123 -89.5 -212.5t-208.5 -89.5q-80 0 -150.5 53.5t-80.5 150.5h-83l-24 -197h-131l64 520h131l-25 -204h82q31 91 110 150.5t173 59.5zM511 107q65 0 109.5 53t44.5 124q0 60 -34.5 94t-81.5 34q-65 0 -109 -53t-44 -126
q0 -59 34 -92.5t81 -33.5z" />
    <glyph glyph-name="uni044F" unicode="&#x44f;" horiz-adv-x="636" 
d="M472 520h131l-64 -520h-131l19 153h-106l-160 -153h-163l187 172q-56 24 -85.5 72.5t-22.5 106.5q9 74 76.5 121.5t161.5 47.5h157l-14 -112h-149q-43 0 -71 -20t-33 -51q-3 -28 17 -49.5t62 -21.5h156l-8 -73z" />
    <glyph glyph-name="uni0451" unicode="&#x451;" 
d="M293 700l-13 -108h-131l13 108h131zM542 700l-13 -108h-131l13 108h131zM329 526q40 0 79.5 -14.5t73 -41.5t54 -71.5t20.5 -98.5q0 -57 -12 -86h-380q4 -51 40 -79.5t85 -28.5q61 0 108 33l91 -56q-89 -90 -213 -90q-93 0 -167.5 60t-74.5 169q0 124 88.5 214t207.5 90z
M315 414q-44 0 -82.5 -27.5t-55.5 -79.5h251q-5 51 -37.5 79t-75.5 28z" />
    <glyph glyph-name="uni0453" unicode="&#x453;" horiz-adv-x="544" 
d="M477 700l-125 -129h-97l68 129h154zM516 520l-15 -112h-297l-50 -408h-131l64 520h131h298z" />
    <glyph glyph-name="uni0454" unicode="&#x454;" horiz-adv-x="558" 
d="M269 107q32 0 63 13.5t49 37.5l112 -54q-42 -54 -105 -82.5t-121 -28.5q-44 0 -87.5 17.5t-80.5 49.5t-56.5 86t-11.5 120q14 122 105 191t185 69q60 0 119 -30.5t89 -84.5l-119 -45q-24 46 -91 46q-42 0 -80.5 -25t-60.5 -71h108l-14 -119h-111q8 -44 38 -67t70 -23z
" />
    <glyph glyph-name="uni0457" unicode="&#x457;" horiz-adv-x="255" 
d="M115 700l-13 -108h-131l13 108h131zM364 700l-13 -108h-131l13 108h131zM223 520l-64 -520h-131l64 520h131z" />
    <glyph glyph-name="uni0490" unicode="&#x490;" horiz-adv-x="557" 
d="M582 747l-20 -159h-331l-72 -588h-131l86 700h330l5 47h133z" />
    <glyph glyph-name="uni0491" unicode="&#x491;" horiz-adv-x="543" 
d="M521 566l-6 -46h1l-15 -112h-297l-50 -408h-131l64 520h131h165l5 46h133z" />
    <glyph glyph-name="Wgrave" unicode="&#x1e80;" horiz-adv-x="1081" 
d="M414 880h154l68 -129h-98zM1100 700l-368 -700h-11l-162 438l-273 -438h-12l-195 700h142l103 -402l251 402h23l152 -402l202 402h148z" />
    <glyph glyph-name="wgrave" unicode="&#x1e81;" horiz-adv-x="783" 
d="M247 700h154l68 -129h-98zM785 520l-278 -520h-3l-110 299l-183 -299h-4l-150 520h128l73 -269l161 269h4l96 -269l139 269h127z" />
    <glyph glyph-name="Wacute" unicode="&#x1e82;" horiz-adv-x="1081" 
d="M761 880l-125 -129h-97l68 129h154zM1100 700l-368 -700h-11l-162 438l-273 -438h-12l-195 700h142l103 -402l251 402h23l152 -402l202 402h148z" />
    <glyph glyph-name="wacute" unicode="&#x1e83;" horiz-adv-x="783" 
d="M594 700l-125 -129h-97l68 129h154zM785 520l-278 -520h-3l-110 299l-183 -299h-4l-150 520h128l73 -269l161 269h4l96 -269l139 269h127z" />
    <glyph glyph-name="Wdieresis" unicode="&#x1e84;" horiz-adv-x="1081" 
d="M550 880l-13 -108h-131l13 108h131zM799 880l-13 -108h-131l13 108h131zM1100 700l-368 -700h-11l-162 438l-273 -438h-12l-195 700h142l103 -402l251 402h23l152 -402l202 402h148z" />
    <glyph glyph-name="wdieresis" unicode="&#x1e85;" horiz-adv-x="783" 
d="M383 700l-13 -108h-131l13 108h131zM632 700l-13 -108h-131l13 108h131zM785 520l-278 -520h-3l-110 299l-183 -299h-4l-150 520h128l73 -269l161 269h4l96 -269l139 269h127z" />
    <glyph glyph-name="Ygrave" unicode="&#x1ef2;" horiz-adv-x="716" 
d="M235 880h154l68 -129h-98zM740 700l-315 -406l-36 -294h-131l36 294l-215 406h149l146 -288l216 288h150z" />
    <glyph glyph-name="ygrave" unicode="&#x1ef3;" horiz-adv-x="609" 
d="M385 571h-98l-124 129h154zM479 520h132l-375 -710h-131l108 207l-156 503h127l109 -353z" />
    <glyph glyph-name="endash" unicode="&#x2013;" horiz-adv-x="600" 
d="M553 329l-13 -107h-510l13 107h510z" />
    <glyph glyph-name="emdash" unicode="&#x2014;" horiz-adv-x="660" 
d="M613 329l-13 -107h-570l13 107h570z" />
    <glyph glyph-name="quoteleft" unicode="&#x2018;" horiz-adv-x="283" 
d="M302 700l-83 -238h-169l137 238h115z" />
    <glyph glyph-name="quoteright" unicode="&#x2019;" horiz-adv-x="268" 
d="M53 487l83 238h169l-137 -238h-115z" />
    <glyph glyph-name="quotesinglbase" unicode="&#x201a;" horiz-adv-x="315" 
d="M-33 -135l83 238h169l-137 -238h-115z" />
    <glyph glyph-name="quotedblleft" unicode="&#x201c;" horiz-adv-x="523" 
d="M302 700l-83 -238h-169l137 238h115zM542 700l-83 -238h-169l137 238h115z" />
    <glyph glyph-name="quotedblright" unicode="&#x201d;" horiz-adv-x="507" 
d="M53 487l83 238h169l-137 -238h-115zM292 487l83 238h169l-137 -238h-115z" />
    <glyph glyph-name="quotedblbase" unicode="&#x201e;" horiz-adv-x="554" 
d="M-33 -135l83 238h169l-137 -238h-115zM206 -135l83 238h169l-138 -238h-114z" />
    <glyph glyph-name="dagger" unicode="&#x2020;" horiz-adv-x="370" 
d="M351 565l-13 -112h-107l-38 -141h-24l-4 141h-107l13 112h91l-3 135h139l-37 -135h90z" />
    <glyph glyph-name="daggerdbl" unicode="&#x2021;" horiz-adv-x="360" 
d="M255 565h91l-13 -112h-109l-22 -79h-37l-3 79h-109l13 112h93l-5 135h139zM196 326l3 -78h108l-13 -113h-92l5 -135h-139l38 135h-92l13 113h110l22 78h37z" />
    <glyph glyph-name="bullet" unicode="&#x2022;" horiz-adv-x="237" 
d="M195 376l-18 -147h-147l18 147h147z" />
    <glyph glyph-name="ellipsis" unicode="&#x2026;" horiz-adv-x="685" 
d="M398 144l-17 -144h-146l17 144h146zM645 144l-17 -144h-146l17 144h146zM151 144l-17 -144h-146l17 144h146z" />
    <glyph glyph-name="perthousand" unicode="&#x2030;" horiz-adv-x="1045" 
d="M215 705q52 0 83.5 -35.5t24.5 -87.5q-6 -52 -46.5 -87.5t-92.5 -35.5t-83.5 35.5t-25.5 87.5q7 52 47.5 87.5t92.5 35.5zM560 702l95 -65l-505 -637l-96 65zM202 608q-11 0 -19 -7.5t-9 -18.5t5.5 -18.5t17.5 -7.5t19 7.5t8 18.5q1 11 -5 18.5t-17 7.5zM538 241
q52 0 83.5 -35.5t25.5 -87.5q-7 -52 -47.5 -87.5t-92.5 -35.5t-83.5 35.5t-24.5 87.5q6 52 46.5 87.5t92.5 35.5zM883 241q52 0 83.5 -35.5t25.5 -87.5q-7 -52 -47.5 -87.5t-92.5 -35.5t-83.5 35.5t-24.5 87.5q6 52 46.5 87.5t92.5 35.5zM525 144q-11 0 -18.5 -7.5
t-8.5 -18.5t5 -18.5t17 -7.5t19.5 7.5t9.5 18.5q0 11 -7 18.5t-17 7.5zM870 144q-11 0 -19 -7.5t-8 -18.5q-1 -11 5 -18.5t17 -7.5t19 7.5t9 18.5t-5.5 18.5t-17.5 7.5z" />
    <glyph glyph-name="guilsinglleft" unicode="&#x2039;" horiz-adv-x="243" 
d="M218 512l-13 -108l-113 -95l89 -96l-13 -108l-148 83l29 241z" />
    <glyph glyph-name="guilsinglright" unicode="&#x203a;" horiz-adv-x="243" 
d="M75 512l148 -83l-29 -241l-169 -83l13 108l112 96l-89 95z" />
    <glyph glyph-name="fraction" unicode="&#x2044;" horiz-adv-x="108" 
d="M332 700l-516 -700h-50l522 700h44z" />
    <glyph glyph-name="Euro" unicode="&#x20ac;" horiz-adv-x="729" 
d="M436 123q80 0 156 59l70 -99q-110 -90 -244 -90q-101 0 -184.5 60t-113.5 158h-91l12 99h65q0 20 3 39l4 28h-64l13 99h86q52 104 153 167.5t205 63.5q136 0 220 -87l-95 -99q-58 56 -139 56q-52 0 -101.5 -27.5t-83.5 -73.5h74l-13 -99h-106q-4 -18 -5 -27
q-2 -14 -2 -40h105l-12 -99h-65q24 -41 64 -64.5t89 -23.5z" />
    <glyph glyph-name="uni20B4" unicode="&#x20b4;" horiz-adv-x="559" 
d="M314 321l-36 -11h-1h253l-11 -99h-367q0 -2 -0.5 -4t-0.5 -3q-6 -48 27.5 -72t83.5 -24q37 0 78 25.5t62 64.5l104 -38q-38 -73 -114 -120t-155 -47q-57 0 -109 20.5t-86.5 66.5t-26.5 109q4 23 7 37l10 84h37q31 37 85 67h-114l13 99h328q15 17 18 38q4 34 -22.5 56
t-68.5 22q-86 0 -116 -55l-115 17q34 65 102.5 109t154.5 44q90 0 150 -49.5t51 -128.5q-5 -31 -14 -53h30l-13 -99h-101q-46 -33 -123 -56z" />
    <glyph glyph-name="trademark" unicode="&#x2122;" horiz-adv-x="579" 
d="M279 700l-5 -43h-60l-17 -137h-51l16 137h-59l5 43h171zM557 700l-22 -180h-49l11 77l-73 -77h-18l-54 77l-11 -77h-49l22 180h26l78 -117l110 117h29z" />
    <glyph glyph-name="oneeighth" unicode="&#x215b;" horiz-adv-x="556" 
d="M57 701l-32 -261h-37l28 221l-17 -11l-16 31l36 20h38zM504 700l-516 -700h-50l522 700h44zM379 263q38 0 59 -22.5t17 -51.5q-3 -29 -36 -50q41 -18 35 -69q-4 -32 -31.5 -52t-63.5 -20q-38 0 -64.5 25t-22.5 61q4 39 51 63q-28 18 -23 56q3 24 24.5 42t54.5 18z
M388 232q-21 0 -36 -13t-17 -30q-2 -13 7.5 -22.5t23.5 -9.5q19 0 35 14t18 32q2 13 -4.5 21t-26.5 8zM374 126q-23 0 -43 -16.5t-23 -39.5q-2 -18 10.5 -29.5t32.5 -11.5q26 0 44.5 15.5t21.5 39.5q2 20 -9.5 31t-33.5 11z" />
    <glyph glyph-name="threeeighths" unicode="&#x215c;" horiz-adv-x="574" 
d="M67 703q34 0 57.5 -23t19.5 -52q-3 -28 -36 -50q16 -6 26.5 -24.5t7.5 -44.5q-4 -32 -31.5 -52.5t-63.5 -20.5q-43 0 -68.5 29t-17.5 66l37 -8q-8 -23 4 -39t36 -16t44 16t23 39q3 26 -13.5 34.5t-51.5 2.5l-4 32q66 3 73 50q2 12 -7.5 21t-25.5 9q-23 0 -41 -17.5
t-19 -43.5l-37 7q1 37 26.5 61t61.5 24zM524 700l-516 -700h-50l522 700h44zM397 263q38 0 59 -22.5t17 -51.5q-3 -29 -36 -50q41 -18 35 -69q-4 -32 -31.5 -52t-63.5 -20q-38 0 -64.5 25t-22.5 61q4 39 51 63q-28 18 -23 56q3 24 24.5 42t54.5 18zM406 232q-21 0 -36 -13
t-17 -30q-2 -13 7.5 -22.5t23.5 -9.5q19 0 35 14t18 32q2 13 -4.5 21t-26.5 8zM392 126q-23 0 -43 -16.5t-23 -39.5q-2 -18 10.5 -29.5t32.5 -11.5q26 0 44.5 15.5t21.5 39.5q2 20 -9.5 31t-33.5 11z" />
    <glyph glyph-name="fiveeighths" unicode="&#x215d;" horiz-adv-x="576" 
d="M143 701l-4 -32h-104l-17 -57q21 9 42 9q37 0 63.5 -29t21.5 -70q-4 -37 -32.5 -61.5t-66.5 -24.5q-34 0 -58.5 20.5t-29.5 45.5l34 11q-1 -20 10.5 -32.5t34.5 -12.5q25 0 46.5 20t25.5 48q2 23 -10 38t-31 15q-37 0 -64 -31l-33 10l34 133h138zM524 700l-516 -700h-50
l522 700h44zM399 263q38 0 59 -22.5t17 -51.5q-3 -29 -36 -50q41 -18 35 -69q-4 -32 -31.5 -52t-63.5 -20q-38 0 -64.5 25t-22.5 61q4 39 51 63q-28 18 -23 56q3 24 24.5 42t54.5 18zM408 232q-21 0 -36 -13t-17 -30q-2 -13 7.5 -22.5t23.5 -9.5q19 0 35 14t18 32
q2 13 -4.5 21t-26.5 8zM394 126q-23 0 -43 -16.5t-23 -39.5q-2 -18 10.5 -29.5t32.5 -11.5q26 0 44.5 15.5t21.5 39.5q2 20 -9.5 31t-33.5 11z" />
    <glyph glyph-name="seveneighths" unicode="&#x215e;" horiz-adv-x="556" 
d="M158 701l-134 -261h-41l117 229h-120l4 32h174zM504 700l-516 -700h-50l522 700h44zM379 263q38 0 59 -22.5t17 -51.5q-3 -29 -36 -50q41 -18 35 -69q-4 -32 -31.5 -52t-63.5 -20q-38 0 -64.5 25t-22.5 61q4 39 51 63q-28 18 -23 56q3 24 24.5 42t54.5 18zM388 232
q-21 0 -36 -13t-17 -30q-2 -13 7.5 -22.5t23.5 -9.5q19 0 35 14t18 32q2 13 -4.5 21t-26.5 8zM374 126q-23 0 -43 -16.5t-23 -39.5q-2 -18 10.5 -29.5t32.5 -11.5q26 0 44.5 15.5t21.5 39.5q2 20 -9.5 31t-33.5 11z" />
    <glyph glyph-name="partialdiff" unicode="&#x2202;" horiz-adv-x="539" 
d="M283 700l106 -188q8 -13 20 -33t19.5 -32t18.5 -31.5t17 -31.5t14.5 -32t11 -33t7.5 -35t2.5 -37.5t-2.5 -40.5q-11 -90 -89 -153t-167 -63q-92 0 -157.5 67.5t-53.5 162.5q10 88 88.5 155.5t165.5 67.5h3q1 -1 3 -1l-149 258h142zM282 322q-48 0 -86 -35.5t-44 -80.5
q-5 -43 21 -72.5t71 -29.5q49 0 88 34.5t44 81.5q5 42 -20 72t-74 30z" />
    <glyph glyph-name="product" unicode="&#x220f;" horiz-adv-x="729" 
d="M100 800h639l-14 -117l-107 -873h-126l107 873h-387l-107 -873h-126l107 873z" />
    <glyph glyph-name="summation" unicode="&#x2211;" horiz-adv-x="689" 
d="M699 800l-15 -117h-392l163 -378l-253 -378h390l-14 -117h-600l336 495l-213 495h598z" />
    <glyph glyph-name="minus" unicode="&#x2212;" horiz-adv-x="425" 
d="M378 329l-13 -107h-335l13 107h335z" />
    <glyph glyph-name="radical" unicode="&#x221a;" horiz-adv-x="818" 
d="M829 800l-393 -990h-151l-131 432h-122l18 144h206l116 -406l326 820h131z" />
    <glyph glyph-name="infinity" unicode="&#x221e;" horiz-adv-x="831" 
d="M615 428q77 0 128.5 -52t42.5 -121q-7 -66 -66.5 -114t-132.5 -48q-101 0 -181 85q-102 -85 -198 -85q-78 0 -129.5 52.5t-42.5 123.5q7 64 66.5 111.5t133.5 47.5q99 0 181 -84q99 84 198 84zM209 193q42 0 67.5 13.5t65.5 61.5q-26 41 -45.5 52t-57.5 11
q-32 0 -56 -23.5t-28 -52.5q-2 -25 12 -43.5t42 -18.5zM667 269q3 24 -11.5 43t-42.5 19q-42 0 -68 -14t-64 -61q27 -42 45.5 -52.5t56.5 -10.5q32 0 56 23.5t28 52.5z" />
    <glyph glyph-name="integral" unicode="&#x222b;" horiz-adv-x="324" 
d="M353 800l-6 -112q-47 0 -62.5 -23.5t-21.5 -77.5l-74 -599q-12 -93 -66 -135.5t-151 -42.5l6 112q48 0 63.5 23.5t20.5 77.5l74 599q12 93 66 135.5t151 42.5z" />
    <glyph glyph-name="approxequal" unicode="&#x2248;" horiz-adv-x="460" 
d="M123 440q44 0 107.5 -35t91.5 -35q24 0 39.5 7t15.5 18h51q0 -54 -32.5 -90t-92.5 -36q-44 0 -109 39.5t-95 39.5q-23 0 -38.5 -10t-14.5 -24h-50q0 55 32.5 90.5t94.5 35.5zM105 280q44 0 107 -35t91 -35q24 0 40 7t16 18h50q0 -55 -32.5 -90.5t-92.5 -35.5
q-44 0 -109 39.5t-95 39.5q-23 0 -38.5 -10t-14.5 -24h-49q0 55 32 90.5t95 35.5z" />
    <glyph glyph-name="notequal" unicode="&#x2260;" horiz-adv-x="425" 
d="M388 302h-112l-20 -53h126l-13 -107h-155l-55 -142h-111l55 142h-69l13 107h98l21 53h-113l13 107h141l59 152h111l-59 -152h83z" />
    <glyph glyph-name="lessequal" unicode="&#x2264;" horiz-adv-x="461" 
d="M412 593l-13 -110l-205 -108l182 -107l-14 -111l-320 199l6 38zM396 109l-13 -108h-335l13 108h335z" />
    <glyph glyph-name="greaterequal" unicode="&#x2265;" horiz-adv-x="441" 
d="M91 593l319 -199l-6 -38l-368 -199l16 111l205 107l-181 108zM367 109l-14 -108h-335l14 108h335z" />
    <glyph glyph-name="lozenge" unicode="&#x25ca;" horiz-adv-x="584" 
d="M425 700l114 -350l-197 -350h-136h-48l-113 350l197 350h135h48zM259 93l147 257l-82 257l-146 -257z" />
    <glyph glyph-name="i.loclTRK" horiz-adv-x="281" 
d="M248 700l-13 -108h-131l13 108h131zM227 520l-64 -520h-131l64 520h131z" />
    <glyph glyph-name="f_t" horiz-adv-x="735" 
d="M607 414l-32 -261q-2 -16 2 -31t14 -15q48 0 88 19l-10 -115q-36 -17 -111 -17q-134 0 -113 165l31 255h-195h-47l-50 -414h-131l50 414h-64l14 106h63l2 17q5 43 22 75t37.5 50t47 29t47.5 14t43 3q65 0 125 -32l-53 -91q-38 15 -77 15q-53 0 -61 -66l-2 -14h124h118
l11 90h131l-11 -90h109l-14 -106h-108z" />
    <glyph glyph-name="t_t" horiz-adv-x="756" 
d="M628 414l-32 -261q-2 -17 2 -31.5t14 -14.5q48 0 88 19l-10 -115q-36 -17 -111 -17q-134 0 -113 165l31 255h-188h-67l-32 -257q-8 -50 36 -50q34 0 70 12l-14 -107q-38 -18 -101 -18q-67 0 -100.5 34t-22.5 127l33 259h-67l13 106h67l11 90h131l-11 -90h110h145l11 90
h131l-11 -90h109l-14 -106h-108z" />
    <glyph glyph-name="zero.tf" horiz-adv-x="700" 
d="M395 707q114 0 189.5 -76t75.5 -212q0 -52 -10.5 -107.5t-36 -113.5t-63.5 -102.5t-98 -73.5t-133 -29q-115 0 -190 77.5t-75 222.5q0 52 11 106.5t37 110.5t64 99t97.5 70.5t131.5 27.5zM393 595q-60 0 -103.5 -32t-64.5 -82t-30.5 -98t-9.5 -95q0 -182 136 -182
q41 0 75 16t56 44t38 60.5t24.5 69t12 66t3.5 56.5q0 77 -31.5 127t-105.5 50z" />
    <glyph glyph-name="one.tf" horiz-adv-x="700" 
d="M483 700l-86 -700h-131l72 588h-114l14 112h245z" />
    <glyph glyph-name="two.tf" horiz-adv-x="700" 
d="M370 707q103 0 162 -67t50 -152q-9 -65 -47 -116.5t-156 -173.5l-83 -84h231l-15 -114h-466l5 36l192 200q26 27 58 60t47.5 49t35 37.5t28 32t18 24.5t13 25t5.5 24q6 55 -23.5 79.5t-68.5 24.5q-36 0 -70 -25t-40 -75l-4 -19h-133l3 19q10 83 82.5 149t175.5 66z" />
    <glyph glyph-name="three.tf" horiz-adv-x="700" 
d="M163 191q31 -88 118 -88q66 0 110 43t44 108q0 45 -29.5 74t-83.5 29q-37 0 -71 -11l154 242h-257l17 112h453l-183 -257q53 -8 91 -60.5t38 -124.5q0 -116 -83.5 -192t-200.5 -76q-85 0 -147 43.5t-80 110.5z" />
    <glyph glyph-name="four.tf" horiz-adv-x="700" 
d="M591 700l-49 -408h75l-15 -113h-75l-22 -179h-131l22 179h-305l14 113l355 408h131zM437 505l-190 -213h164z" />
    <glyph glyph-name="five.tf" horiz-adv-x="700" 
d="M585 700l-14 -113h-252l-30 -128q4 0 14 3.5t29.5 7.5t43.5 4q92 0 155 -58.5t63 -151.5q0 -113 -83 -193.5t-194 -80.5q-169 0 -226 143l110 52q5 -5 16 -21t21.5 -28.5t35 -23t57.5 -10.5q42 0 87 38.5t45 113.5q0 56 -34.5 82.5t-76.5 26.5q-52 0 -104 -39l-112 32
l87 344h362z" />
    <glyph glyph-name="six.tf" horiz-adv-x="700" 
d="M594 700l-210 -249q0 -4 -3 -7q2 -1 3 -1q84 0 147 -70.5t52 -159.5q-12 -95 -90.5 -159t-169.5 -64q-92 0 -156.5 64t-52.5 159q4 35 14.5 66t29.5 61t31 46.5t38.5 47.5t33.5 40l188 226h145zM362 322q-51 0 -85.5 -32.5t-40.5 -76.5q-5 -48 23.5 -78.5t76.5 -30.5
t82.5 30.5t39.5 78.5q6 42 -21.5 75.5t-74.5 33.5z" />
    <glyph glyph-name="seven.tf" horiz-adv-x="700" 
d="M618 700l-356 -700h-139l299 588h-266l15 112h447z" />
    <glyph glyph-name="eight.tf" horiz-adv-x="700" 
d="M515 398q47 -23 72.5 -71.5t17.5 -108.5q-13 -100 -96.5 -162.5t-179.5 -62.5q-95 0 -163.5 62.5t-56.5 162.5q8 60 45.5 108.5t90.5 71.5q-61 52 -51 128q9 75 72 128t152 53t138.5 -53t40.5 -128q-10 -76 -82 -128zM321 519q-4 -30 14 -53t49 -23t55 23t28 53
q4 31 -15 52t-49 21t-54 -21t-28 -52zM344 111q45 0 80.5 30t41.5 77q6 52 -23 82.5t-71 30.5q-43 0 -80 -30.5t-43 -82.5q-6 -47 22 -77t73 -30z" />
    <glyph glyph-name="nine.tf" horiz-adv-x="700" 
d="M362 709q93 0 159.5 -67.5t54.5 -162.5q-4 -29 -13.5 -57.5t-19.5 -49t-31 -50t-32.5 -44t-40.5 -48.5t-40 -48l-154 -183h-147l220 255q-2 1 1 2q-90 0 -155.5 72t-53.5 165q11 90 87.5 153t164.5 63zM361 595q-48 0 -86 -34.5t-43 -81.5q-5 -41 21 -71.5t69 -30.5
q54 0 91 34.5t43 81.5q5 43 -22.5 72.5t-72.5 29.5z" />
    <glyph glyph-name="zero.dnom" horiz-adv-x="260" 
d="M113 263q48 0 75 -37t20 -93l-1 -13q-7 -56 -38 -89t-76 -33q-47 0 -74.5 37t-20.5 93l1 13q7 56 38.5 89t75.5 33zM122 232q-31 0 -56 -27.5t-31 -71.5l-1 -13q-5 -44 9 -67.5t42 -23.5q32 0 56 27t30 72l1 13q12 91 -50 91z" />
    <glyph glyph-name="one.dnom" horiz-adv-x="122" 
d="M86 261l-32 -261h-37l28 221l-17 -11l-16 31l36 20h38z" />
    <glyph glyph-name="two.dnom" horiz-adv-x="221" 
d="M92 264q36 0 60.5 -25t19.5 -57q-2 -17 -12.5 -33.5t-21.5 -28.5t-42 -41l-56 -47h117l-4 -32h-168l3 32l76 71q32 30 41.5 39.5t19 24t11.5 29.5q2 16 -8 26.5t-27 10.5q-20 0 -38.5 -15t-21.5 -39l-1 -10h-37l2 18q4 35 29 56t58 21z" />
    <glyph glyph-name="three.dnom" horiz-adv-x="233" 
d="M99 263q34 0 57.5 -23t19.5 -52q-3 -28 -36 -50q16 -6 26.5 -24.5t7.5 -44.5q-4 -32 -31.5 -52.5t-63.5 -20.5q-43 0 -68.5 29t-17.5 66l37 -8q-8 -23 4 -39t36 -16t44 16t23 39q3 26 -13.5 34.5t-51.5 2.5l-4 32q66 3 73 50q2 12 -7.5 21t-25.5 9q-23 0 -41 -17.5
t-19 -43.5l-37 7q1 37 26.5 61t61.5 24z" />
    <glyph glyph-name="four.dnom" horiz-adv-x="246" 
d="M183 261l-19 -154h27l-4 -31h-27l-9 -76h-37l9 76h-133l155 185h38zM140 202l-77 -95h64z" />
    <glyph glyph-name="five.dnom" horiz-adv-x="235" 
d="M175 261l-4 -32h-104l-17 -57q21 9 42 9q37 0 63.5 -29t21.5 -70q-4 -37 -32.5 -61.5t-66.5 -24.5q-34 0 -58.5 20.5t-29.5 45.5l34 11q-1 -20 10.5 -32.5t34.5 -12.5q25 0 46.5 20t25.5 48q2 23 -10 38t-31 15q-37 0 -64 -31l-33 10l34 133h138z" />
    <glyph glyph-name="six.dnom" horiz-adv-x="223" 
d="M164 261l-80 -96h1q34 0 58.5 -27.5t20.5 -63.5q-4 -32 -30.5 -55t-58.5 -23q-36 0 -61 27.5t-21 64.5q2 15 8.5 29t13 22t19.5 23t19 22l67 77h44zM91 133q-23 0 -41 -16.5t-22 -42.5q-2 -21 9.5 -33.5t28.5 -12.5q20 0 39.5 17.5t23.5 42.5q2 21 -9.5 33t-28.5 12z" />
    <glyph glyph-name="seven.dnom" horiz-adv-x="223" 
d="M188 261l-134 -261h-41l117 229h-120l4 32h174z" />
    <glyph glyph-name="eight.dnom" horiz-adv-x="233" 
d="M99 263q38 0 59 -22.5t17 -51.5q-3 -29 -36 -50q41 -18 35 -69q-4 -32 -31.5 -52t-63.5 -20q-38 0 -64.5 25t-22.5 61q4 39 51 63q-28 18 -23 56q3 24 24.5 42t54.5 18zM108 232q-21 0 -36 -13t-17 -30q-2 -13 7.5 -22.5t23.5 -9.5q19 0 35 14t18 32q2 13 -4.5 21
t-26.5 8zM94 126q-23 0 -43 -16.5t-23 -39.5q-2 -18 10.5 -29.5t32.5 -11.5q26 0 44.5 15.5t21.5 39.5q2 20 -9.5 31t-33.5 11z" />
    <glyph glyph-name="nine.dnom" horiz-adv-x="224" 
d="M95 264q36 0 61.5 -27t20.5 -64q-2 -15 -9 -29.5t-12.5 -22t-20.5 -24t-19 -21.5l-66 -76h-45l80 95q-35 0 -59.5 28t-20.5 64q4 32 30.5 54.5t59.5 22.5zM104 232q-21 0 -40.5 -17.5t-23.5 -41.5q-2 -21 9.5 -33.5t29.5 -12.5q23 0 41 17t21 43q2 20 -9 32.5t-28 12.5z
" />
    <glyph glyph-name="zero.numr" horiz-adv-x="260" 
d="M124 703q48 0 75 -37t20 -93l-1 -13q-7 -56 -38 -89t-76 -33q-47 0 -74.5 37t-20.5 93l1 13q7 56 38.5 89t75.5 33zM133 672q-31 0 -56 -27.5t-31 -71.5l-1 -13q-5 -44 9 -67.5t42 -23.5q32 0 56 27t30 72l1 13q12 91 -50 91z" />
    <glyph glyph-name="one.numr" horiz-adv-x="122" 
d="M97 701l-32 -261h-37l28 221l-17 -11l-16 31l36 20h38z" />
    <glyph glyph-name="two.numr" horiz-adv-x="221" 
d="M103 704q36 0 60.5 -25t19.5 -57q-2 -17 -12.5 -33.5t-21.5 -28.5t-42 -41l-56 -47h117l-4 -32h-168l3 32l76 71q32 30 41.5 39.5t19 24t11.5 29.5q2 16 -8 26.5t-27 10.5q-20 0 -38.5 -15t-21.5 -39l-1 -10h-37l2 18q4 35 29 56t58 21z" />
    <glyph glyph-name="three.numr" horiz-adv-x="233" 
d="M110 703q34 0 57.5 -23t19.5 -52q-3 -28 -36 -50q16 -6 26.5 -24.5t7.5 -44.5q-4 -32 -31.5 -52.5t-63.5 -20.5q-43 0 -68.5 29t-17.5 66l37 -8q-8 -23 4 -39t36 -16t44 16t23 39q3 26 -13.5 34.5t-51.5 2.5l-4 32q66 3 73 50q2 12 -7.5 21t-25.5 9q-23 0 -41 -17.5
t-19 -43.5l-37 7q1 37 26.5 61t61.5 24z" />
    <glyph glyph-name="four.numr" horiz-adv-x="246" 
d="M194 701l-19 -154h27l-4 -31h-27l-9 -76h-37l9 76h-133l155 185h38zM151 642l-77 -95h64z" />
    <glyph glyph-name="five.numr" horiz-adv-x="235" 
d="M186 701l-4 -32h-104l-17 -57q21 9 42 9q37 0 63.5 -29t21.5 -70q-4 -37 -32.5 -61.5t-66.5 -24.5q-34 0 -58.5 20.5t-29.5 45.5l34 11q-1 -20 10.5 -32.5t34.5 -12.5q25 0 46.5 20t25.5 48q2 23 -10 38t-31 15q-37 0 -64 -31l-33 10l34 133h138z" />
    <glyph glyph-name="six.numr" horiz-adv-x="223" 
d="M175 701l-80 -96h1q34 0 58.5 -27.5t20.5 -63.5q-4 -32 -30.5 -55t-58.5 -23q-36 0 -61 27.5t-21 64.5q2 15 8.5 29t13 22t19.5 23t19 22l67 77h44zM102 573q-23 0 -41 -16.5t-22 -42.5q-2 -21 9.5 -33.5t28.5 -12.5q20 0 39.5 17.5t23.5 42.5q2 21 -9.5 33t-28.5 12z
" />
    <glyph glyph-name="seven.numr" horiz-adv-x="223" 
d="M199 701l-134 -261h-41l117 229h-120l4 32h174z" />
    <glyph glyph-name="eight.numr" horiz-adv-x="233" 
d="M110 703q38 0 59 -22.5t17 -51.5q-3 -29 -36 -50q41 -18 35 -69q-4 -32 -31.5 -52t-63.5 -20q-38 0 -64.5 25t-22.5 61q5 39 51 63q-28 18 -23 56q3 24 24.5 42t54.5 18zM119 672q-21 0 -36 -13t-17 -30q-2 -13 7.5 -22.5t23.5 -9.5q19 0 35 14t18 32q2 13 -4.5 21
t-26.5 8zM105 566q-23 0 -43 -16.5t-23 -39.5q-2 -18 10.5 -29.5t32.5 -11.5q26 0 44.5 15.5t21.5 39.5q2 20 -9.5 31t-33.5 11z" />
    <glyph glyph-name="nine.numr" horiz-adv-x="224" 
d="M106 704q36 0 61.5 -27t20.5 -64q-2 -15 -9 -29.5t-12.5 -22t-20.5 -24t-19 -21.5l-66 -76h-45l80 95q-35 0 -59.5 28t-20.5 64q4 32 30.5 54.5t59.5 22.5zM115 672q-21 0 -40.5 -17.5t-23.5 -41.5q-2 -21 9.5 -33.5t29.5 -12.5q23 0 41 17t21 43q2 20 -9 32.5t-28 12.5z
" />
    </font>
</defs>
</svg>
