<?xml version="1.0" encoding="UTF-8" standalone="no"?>
<svg width="125px" height="125px" viewBox="0 0 125 125" version="1.1" xmlns="http://www.w3.org/2000/svg" xmlns:xlink="http://www.w3.org/1999/xlink">
    <!-- Generator: Sketch 3.8.3 (29802) - http://www.bohemiancoding.com/sketch -->
    <title>customer2</title>
    <desc>Created with Sketch.</desc>
    <defs>
        <circle id="path-1" cx="62.5" cy="62.5" r="62.5"></circle>
    </defs>
    <g id="FinalV2" stroke="none" stroke-width="1" fill="none" fill-rule="evenodd">
        <g id="Landing-V1" transform="translate(-698.000000, -774.000000)">
            <g id="Group-+-a-+-a-+-lock" transform="translate(112.000000, 608.000000)">
                <g id="Group">
                    <g id="PROTECTION-+-lock-+-SAVINGS-+-money-+-CONVENIENT-+-customer2" transform="translate(109.000000, 166.000000)">
                        <g id="CONVENIENT-+-customer2" transform="translate(477.000000, 0.000000)">
                            <g id="customer2">
                                <g>
                                    <mask id="mask-2" fill="white">
                                        <use xlink:href="#path-1"></use>
                                    </mask>
                                    <use id="Mask" fill="#E5E8E9" xlink:href="#path-1"></use>
                                    <g id="Group-40" mask="url(#mask-2)" fill="#F8DEC9">
                                        <g transform="translate(52.676647, 64.924569)" id="Fill-16">
                                            <polygon points="0.182804803 10.6419528 0.182804803 0.00225436445 17.7897937 0.00225436445 17.9052494 10.6419528"></polygon>
                                        </g>
                                    </g>
                                    <g id="Group" mask="url(#mask-2)">
                                        <g transform="translate(15.355603, 23.437500)">
                                            <polygon id="Fill-1" fill="#F2D9BB" points="0 113.834095 11.55522 114.443196 25.3403947 85.612393 14.1230466 80.4695462"></polygon>
                                            <polygon id="Fill-2" fill="#F2D9BB" points="68.8581641 85.0711048 82.6433388 114.037264 94.2661332 113.361161 80.0086135 79.9275813"></polygon>
                                            <polygon id="Fill-6" fill="#567199" points="24.867374 66.8658062 67.9122578 66.8658062 67.9122578 132.242698 24.867374 132.242698"></polygon>
                                            <polygon id="Fill-7" fill="#567199" points="82.7786227 78.8448019 65.8850262 86.830799 65.8850262 66.8658062 68.8582992 66.8658062"></polygon>
                                            <polygon id="Fill-8" fill="#567199" points="10.7443274 78.8448019 27.6379238 86.830799 27.6379238 66.8658062 24.7322252 66.8658062"></polygon>
                                            <path d="M46.3560287,57.5939282 C52.0660643,57.5939282 56.6949098,62.2298672 56.6949098,67.9486533 C56.6949098,73.6674394 52.0660643,78.3033784 46.3560287,78.3033784 C40.6459931,78.3033784 36.0171477,73.6674394 36.0171477,67.9486533 C36.0171477,62.2298672 40.6459931,57.5939282 46.3560287,57.5939282" id="Fill-14" fill="#F8DEC9"></path>
                                            <path d="M66.4931957,20.2357045 C66.4931957,8.7981324 57.0327817,-0.473745591 45.4099873,0.0676779415 C34.5305112,0.541423532 26.1512873,9.94865741 26.1512873,20.844806 L26.1512873,40.0653414 L26.1512873,40.1330193 L34.1926393,54.6837768 C36.422594,59.015165 40.9500778,63.5495871 46.2884543,63.5495871 C51.6268308,63.5495871 56.2894634,59.015165 58.4518438,54.5484209 L66.4256213,40.0653414 L66.4256213,39.9976634 L66.4931957,20.2357045 Z" id="Fill-18" fill="#CEAE97"></path>
                                            <path d="M66.4931957,20.2357045 C66.4931957,8.7981324 57.0327817,-0.473745591 45.4099873,0.0676779415 C34.5305112,0.541423532 26.1512873,9.94865741 26.1512873,20.844806 L26.1512873,40.0653414 L26.1512873,40.1330193 L34.1926393,54.6837768 C36.422594,59.015165 40.9500778,62.1283503 46.2884543,62.1283503 C51.6268308,62.1283503 56.2894634,59.015165 58.4518438,54.6160988 L66.4256213,40.1330193 L66.4256213,40.0653414 L66.4931957,20.2357045 Z" id="Fill-20" fill="#F8DEC9"></path>
                                            <path d="M37.7740817,23.9579913 C38.9309552,23.9579913 39.8688877,24.8973611 39.8688877,26.0560075 C39.8688877,27.2146539 38.9309552,28.1540237 37.7740817,28.1540237 C36.6172082,28.1540237 35.6792757,27.2146539 35.6792757,26.0560075 C35.6792757,24.8973611 36.6172082,23.9579913 37.7740817,23.9579913" id="Fill-22" fill="#513A2A"></path>
                                            <path d="M55.0055501,23.9579913 C56.1624236,23.9579913 57.1003561,24.8973611 57.1003561,26.0560075 C57.1003561,27.2146539 56.1624236,28.1540237 55.0055501,28.1540237 C53.8486766,28.1540237 52.9107441,27.2146539 52.9107441,26.0560075 C52.9107441,24.8973611 53.8486766,23.9579913 55.0055501,23.9579913" id="Fill-24" fill="#513A2A"></path>
                                            <polygon id="Fill-26" fill="#000000" points="66.1553238 6.76779415 55.8164427 0 46.3560287 0 46.2208799 0 36.7604659 0 26.4215849 6.76779415 25.4079691 20.844806 26.1512873 27.6802781 28.2460933 12.723453 33.7196186 7.91831916 46.2884543 7.57992945 58.8572901 7.91831916 64.3308154 12.723453 66.4256213 28.8308031 67.236514 20.844806"></polygon>
                                            <path d="M46.3560287,37.6966134 C44.5315203,37.6966134 43.1124582,36.2076987 43.1124582,34.4480722 C43.1124582,34.0420046 43.4503301,33.7036149 43.8557764,33.7036149 C44.2612228,33.7036149 44.5990947,34.0420046 44.5990947,34.4480722 C44.5990947,35.4632414 45.4099873,36.3430546 46.4911775,36.3430546 C47.5047933,36.3430546 48.3832603,35.5309193 48.3832603,34.4480722 C48.3832603,34.0420046 48.7211322,33.7036149 49.1265785,33.7036149 C49.5320249,33.7036149 49.8698968,34.0420046 49.8698968,34.4480722 C49.6671736,36.2076987 48.1805371,37.6966134 46.3560287,37.6966134" id="Fill-28" fill="#DDB9A6"></path>
                                            <path d="M48.3831927,56.2403694 L44.2611552,56.2403694 C43.8557089,56.2403694 43.5178369,55.9019797 43.5178369,55.4959121 C43.5178369,55.0898444 43.8557089,54.7514547 44.2611552,54.7514547 L48.3831927,54.7514547 C48.788639,54.7514547 49.126511,55.0898444 49.126511,55.4959121 C49.126511,55.9019797 48.788639,56.2403694 48.3831927,56.2403694" id="Fill-30" fill="#DDB9A6"></path>
                                            <path d="M39.8013133,20.9801619 L35.6792757,20.9801619 C35.2738294,20.9801619 34.9359575,20.6417722 34.9359575,20.2357045 C34.9359575,19.8296369 35.2738294,19.4912472 35.6792757,19.4912472 L39.8013133,19.4912472 C40.2067596,19.4912472 40.5446315,19.8296369 40.5446315,20.2357045 C40.5446315,20.7094501 40.2067596,20.9801619 39.8013133,20.9801619" id="Fill-32" fill="#56473D"></path>
                                            <path d="M57.2355048,20.9801619 L53.1134673,20.9801619 C52.708021,20.9801619 52.3701491,20.6417722 52.3701491,20.2357045 C52.3701491,19.8296369 52.708021,19.4912472 53.1134673,19.4912472 L57.2355048,19.4912472 C57.6409512,19.4912472 57.9788231,19.8296369 57.9788231,20.2357045 C57.9112487,20.7094501 57.5733768,20.9801619 57.2355048,20.9801619" id="Fill-34" fill="#56473D"></path>
                                            <path d="M55.1069117,42.9078149 C55.1069117,47.7129488 51.1875973,51.7059473 46.3222415,51.7059473 C41.5244601,51.7059473 37.5375714,47.7806267 37.5375714,42.9078149 L55.1069117,42.9078149 Z" id="Fill-36" fill="#FFFFFF"></path>
                                            <path d="M56.7624841,67.9486533 C56.4246122,71.738618 50.3429175,75.3255489 46.4236031,75.3255489 C42.5042887,75.3255489 36.422594,71.8739739 36.0847221,67.9486533 C36.0847221,73.6336004 40.6797803,78.3033784 46.4236031,78.3033784 C52.0998515,78.3033784 56.7624841,73.7012783 56.7624841,67.9486533" id="Fill-38" fill="#FFFFFF"></path>
                                        </g>
                                    </g>
                                </g>
                            </g>
                        </g>
                    </g>
                </g>
            </g>
        </g>
    </g>
</svg>