<?xml version="1.0" encoding="UTF-8" standalone="no"?>
<svg width="16px" height="16px" viewBox="0 0 16 16" version="1.1" xmlns="http://www.w3.org/2000/svg" xmlns:xlink="http://www.w3.org/1999/xlink">
    <!-- Generator: Sketch 3.8.3 (29802) - http://www.bohemiancoding.com/sketch -->
    <title>Shape</title>
    <desc>Created with Sketch.</desc>
    <defs></defs>
    <g id="FinalV2" stroke="none" stroke-width="1" fill="none" fill-rule="evenodd">
        <g id="Landing-V1" transform="translate(-897.000000, -3780.000000)" fill="#FFFFFF">
            <g id="Footer" transform="translate(0.000000, 3708.000000)">
                <g id="Imported-Layers-+-Shape-+-Icons/Twitter-+-Icons/Facebook-+-Group-+-Group-+-Group-Copy" transform="translate(111.000000, 71.000000)">
                    <g id="Shape-+-Icons/Twitter-+-Icons/Facebook" transform="translate(721.000000, 0.000000)">
                        <path d="M79.4,1 L66.6,1 C65.72,1 65,1.72 65,2.6 L65,15.4 C65,16.28 65.72,17 66.6,17 L79.4,17 C80.28,17 81,16.28 81,15.4 L81,2.6 C81,1.72 80.28,1 79.4,1 L79.4,1 Z M73,5.8 C74.76,5.8 76.2,7.24 76.2,9 C76.2,10.76 74.76,12.2 73,12.2 C71.24,12.2 69.8,10.76 69.8,9 C69.8,7.24 71.24,5.8 73,5.8 L73,5.8 Z M67,15.4 C66.76,15.4 66.6,15.24 66.6,15 L66.6,8.2 L68.28,8.2 C68.2,8.44 68.2,8.76 68.2,9 C68.2,11.64 70.36,13.8 73,13.8 C75.64,13.8 77.8,11.64 77.8,9 C77.8,8.76 77.8,8.44 77.72,8.2 L79.4,8.2 L79.4,15 C79.4,15.24 79.24,15.4 79,15.4 L67,15.4 L67,15.4 Z M79.4,4.6 C79.4,4.84 79.24,5 79,5 L77.4,5 C77.16,5 77,4.84 77,4.6 L77,3 C77,2.76 77.16,2.6 77.4,2.6 L79,2.6 C79.24,2.6 79.4,2.76 79.4,3 L79.4,4.6 L79.4,4.6 Z" id="Shape"></path>
                    </g>
                </g>
            </g>
        </g>
    </g>
</svg>