<?xml version="1.0" encoding="UTF-8" standalone="no"?>
<svg width="131px" height="131px" viewBox="0 0 131 131" version="1.1" xmlns="http://www.w3.org/2000/svg" xmlns:xlink="http://www.w3.org/1999/xlink">
    <!-- Generator: Sketch 3.8.3 (29802) - http://www.bohemiancoding.com/sketch -->
    <title>a + lock</title>
    <desc>Created with Sketch.</desc>
    <defs>
        <path d="M62.5,0 C27.9825,0 0,27.9825 0,62.5 C0,97.0175 27.9825,125 62.5,125 C97.0175,125 125,97.0175 125,62.5 C125,27.9825 97.0175,0 62.5,0 L62.5,0 Z" id="path-1"></path>
        <mask id="mask-2" maskContentUnits="userSpaceOnUse" maskUnits="objectBoundingBox" x="-3" y="-3" width="131" height="131">
            <rect x="-3" y="-3" width="131" height="131" fill="white"></rect>
            <use xlink:href="#path-1" fill="black"></use>
        </mask>
        <path d="M62.5,0 C27.9825,0 0,27.9825 0,62.5 C0,97.0175 27.9825,125 62.5,125 C97.0175,125 125,97.0175 125,62.5 C125,27.9825 97.0175,0 62.5,0 L62.5,0 Z" id="path-3"></path>
    </defs>
    <g id="FinalV2" stroke="none" stroke-width="1" fill="none" fill-rule="evenodd">
        <g id="Landing-V1" transform="translate(-199.000000, -771.000000)">
            <g id="Group-+-a-+-a-+-lock" transform="translate(112.000000, 608.000000)">
                <g id="a-+-lock" transform="translate(90.000000, 166.000000)">
                    <use id="a" stroke="#90A2B0" mask="url(#mask-2)" stroke-width="6" xlink:href="#path-1"></use>
                    <g id="lock">
                        <path d="M62.5,0 C27.9825,0 0,27.9825 0,62.5 C0,97.0175 27.9825,125 62.5,125 C97.0175,125 125,97.0175 125,62.5 C125,27.9825 97.0175,0 62.5,0 L62.5,0 Z" id="Shape" fill="#E5E8E9"></path>
                        <g id="Clipped">
                            <mask id="mask-4" fill="white">
                                <use xlink:href="#path-3"></use>
                            </mask>
                            <g id="a"></g>
                            <g id="Group" mask="url(#mask-4)">
                                <g transform="translate(25.000000, 28.750000)" id="Shape">
                                    <path d="M5,38.75 L70,38.75 C72.76125,38.75 75,40.9875 75,43.75 L75,91.25 C75,94.01125 72.76125,96.24875 70,96.24875 L5,96.24875 C2.23875,96.24875 0,94.01125 0,91.25 L0,43.75 C0,40.9875 2.23875,38.75 5,38.75 L5,38.75 Z" fill="#D14637"></path>
                                    <path d="M5,36.25 L70,36.25 C72.76125,36.25 75,38.4875 75,41.25 L75,46.24875 C75,49.01125 72.76125,51.25 70,51.25 L5,51.25 C2.23875,51.25 0,49.01125 0,46.24875 L0,41.25 C0,38.4875 2.23875,36.25 5,36.25 L5,36.25 Z" fill="#E1574C"></path>
                                    <path d="M15.625,41.25 C12.51875,41.25 10,42.37 10,43.75 C10,45.13 12.51875,46.24875 15.625,46.24875 C18.73125,46.24875 21.25,45.13 21.25,43.75 C21.25,42.37 18.73125,41.25 15.625,41.25 L15.625,41.25 Z M59.375,41.25 C56.26875,41.25 53.75,42.37 53.75,43.75 C53.75,45.13 56.26875,46.24875 59.375,46.24875 C62.48125,46.24875 65,45.13 65,43.75 C65,42.37 62.48125,41.25 59.375,41.25 L59.375,41.25 Z" fill="#FFFFFF"></path>
                                    <path d="M37.5,61.25 C43.71375,61.25 48.75,66.28625 48.75,72.5 C48.75,78.7125 43.71375,83.74875 37.5,83.74875 C31.28625,83.74875 26.25,78.7125 26.25,72.5 C26.25,66.28625 31.28625,61.25 37.5,61.25 L37.5,61.25 Z" fill="#FFFFFF"></path>
                                    <path d="M37.5,63.75 C42.3325,63.75 46.25,67.6675 46.25,72.5 C46.25,77.3325 42.3325,81.25 37.5,81.25 C32.6675,81.25 28.75,77.3325 28.75,72.5 C28.75,67.6675 32.6675,63.75 37.5,63.75 L37.5,63.75 Z" fill="#E4E7E7"></path>
                                    <path d="M37.5,68.75 C38.19125,68.75 38.75,69.30875 38.75,70 L38.75,75 C38.75,75.69 38.19125,76.25 37.5,76.25 C36.80875,76.25 36.25,75.69 36.25,75 L36.25,70 C36.25,69.30875 36.80875,68.75 37.5,68.75 L37.5,68.75 Z" fill="#324D5B"></path>
                                    <path d="M37.5,1.24875 C23.0025,1.24875 11.25,13.00125 11.25,27.49875 L11.25,42.4975 C11.25,43.87875 13.20875,44.99875 15.625,44.99875 C18.0425,44.99875 20,43.87875 20,42.4975 L20,27.49875 C20,17.835 27.835,10 37.5,10 C47.165,10 55,17.835 55,27.49875 L55,42.4975 C55,43.87875 56.95875,44.99875 59.375,44.99875 C61.79125,44.99875 63.75,43.87875 63.75,42.4975 L63.75,27.49875 C63.75,13.00125 51.9975,1.24875 37.5,1.24875 L37.5,1.24875 Z" fill="#FFFFFF"></path>
                                    <path d="M37.5,6.25 C25.76375,6.25 16.25,15.76375 16.25,27.5 L16.25,44.96375 C18.3675,44.7875 20,43.7575 20,42.4975 L20,27.49875 C20,17.835 27.835,10 37.5,10 C47.165,10 55,17.835 55,27.49875 L55,42.4975 C55,43.7575 56.63375,44.7875 58.75,44.96375 L58.75,27.5 C58.75,15.76375 49.23625,6.25 37.5,6.25 L37.5,6.25 Z" fill="#CDCFCF"></path>
                                </g>
                            </g>
                        </g>
                    </g>
                </g>
            </g>
        </g>
    </g>
</svg>