<?xml version="1.0" encoding="UTF-8" standalone="no"?>
<svg width="82px" height="40px" viewBox="0 0 82 40" version="1.1" xmlns="http://www.w3.org/2000/svg" xmlns:xlink="http://www.w3.org/1999/xlink">
    <!-- Generator: Sketch 3.8.3 (29802) - http://www.bohemiancoding.com/sketch -->
    <title>Imported Layers</title>
    <desc>Created with Sketch.</desc>
    <defs></defs>
    <g id="FinalV2" stroke="none" stroke-width="1" fill="none" fill-rule="evenodd">
        <g id="Landing-V1" transform="translate(-111.000000, -3779.000000)" fill="#FFFFFF">
            <g id="Footer" transform="translate(0.000000, 3708.000000)">
                <g id="Imported-Layers-+-Shape-+-Icons/Twitter-+-Icons/Facebook-+-Group-+-Group-+-Group-Copy" transform="translate(111.000000, 71.000000)">
                    <g id="Imported-Layers">
                        <polyline id="Fill-1" points="20.059477 39.5632787 15.7141519 39.5632787 15.7141519 30.882623 13.2520629 30.882623 13.2520629 27.2963934 15.7141519 27.2963934 15.7141519 23.3068852 20.059477 23.3068852 20.059477 27.2963934 22.5189467 27.2963934 22.5189467 30.882623 20.059477 30.882623 20.059477 39.5632787"></polyline>
                        <path d="M28.0010235,29.304918 L28.0494795,29.304918 C28.8850182,27.7986885 30.3170897,27.1285246 32.0123951,27.1285246 L32.8479338,27.1285246 L32.8479338,31.3134426 C32.2507462,30.9783607 31.6784415,30.9068852 31.0092248,30.9068852 C28.5982111,30.9068852 28.0010235,32.5088525 28.0010235,34.615082 L28.0010235,39.5632787 L23.6943323,39.5632787 L23.6943323,27.2963934 L28.0010235,27.2963934 L28.0010235,29.304918" id="Fill-2"></path>
                        <path d="M47.6250512,39.5632787 L43.280381,39.5632787 L43.280381,38.2006557 L43.2325798,38.2006557 C42.4684154,39.4196721 40.9649696,39.9704918 39.5328982,39.9704918 C35.9039362,39.9704918 33.3495189,36.932459 33.3495189,33.4183607 C33.3495189,29.9022951 35.8554802,26.8904918 39.4844422,26.8904918 C40.89425,26.8904918 42.3728131,27.4157377 43.280381,28.4918033 L43.280381,27.2963934 L47.6250512,27.2963934 L47.6250512,39.5632787 L47.6250512,39.5632787 Z M37.836938,33.442623 C37.836938,34.9967213 38.8636815,36.1921311 40.6310161,36.1921311 C42.3970411,36.1921311 43.4231297,34.9967213 43.4231297,33.442623 C43.4231297,31.935082 42.3970411,30.667541 40.6310161,30.667541 C38.8636815,30.667541 37.836938,31.935082 37.836938,33.442623 L37.836938,33.442623 Z" id="Fill-3"></path>
                        <path d="M58.7908866,38.2006557 L58.7424306,38.2006557 C57.9789211,39.4196721 56.4754753,39.9704918 55.0420943,39.9704918 C51.4131323,39.9704918 48.858715,36.932459 48.858715,33.4183607 C48.858715,29.9022951 51.3666407,26.8904918 54.9949479,26.8904918 C56.4041009,26.8904918 57.8826639,27.4157377 58.7908866,28.4918033 L58.7908866,21.3016393 L63.1355569,21.3016393 L63.1355569,39.5632787 L58.7908866,39.5632787 L58.7908866,38.2006557 L58.7908866,38.2006557 Z M53.3474437,33.442623 C53.3474437,34.9967213 54.3741871,36.1921311 56.1402121,36.1921311 C57.9068919,36.1921311 58.9329806,34.9967213 58.9329806,33.442623 C58.9329806,31.935082 57.9068919,30.667541 56.1402121,30.667541 C54.3741871,30.667541 53.3474437,31.935082 53.3474437,33.442623 L53.3474437,33.442623 Z" id="Fill-4"></path>
                        <path d="M77.838026,34.1606557 L68.6942466,34.1606557 C68.6942466,35.9298361 69.6247329,36.8859016 71.4156407,36.8859016 C72.3467818,36.8859016 73.0146889,36.575082 73.4927009,35.7619672 L77.6703944,35.7619672 C76.9789141,38.655082 74.2326372,39.9704918 71.4392139,39.9704918 C67.380696,39.9704918 64.3489215,37.6754098 64.3489215,33.442623 C64.3489215,29.3527869 67.1423448,26.8904918 71.1294883,26.8904918 C75.3792111,26.8904918 77.838026,29.52 77.838026,33.7062295 L77.838026,34.1606557 L77.838026,34.1606557 Z M73.803736,31.6478689 C73.5889581,30.4767213 72.5131038,29.7121311 71.3436115,29.7121311 C70.0785169,29.7121311 69.0282002,30.3809836 68.7662758,31.6478689 L73.803736,31.6478689 L73.803736,31.6478689 Z" id="Fill-5"></path>
                        <path d="M9.28652812,10.5455738 C8.62189506,10.1895082 7.69730208,9.95213115 6.96129463,9.95213115 C6.46429316,9.95213115 5.60911013,10.1659016 5.60911013,10.7829508 C5.60911013,11.6144262 6.96129463,11.7337705 7.5545533,11.8518033 C9.57006124,12.2557377 11.0879129,13.2059016 11.0879129,15.4609836 C11.0879129,18.6681967 8.17138517,19.9980328 5.34980502,19.9980328 C3.6178302,19.9980328 1.91073819,19.4990164 0.440032922,18.5967213 L2.00503096,15.5796721 C2.88247756,16.1980328 4.35318283,16.815082 5.4211794,16.815082 C5.96467245,16.815082 6.77205428,16.5547541 6.77205428,15.8891803 C6.77205428,14.9396721 5.4211794,14.8911475 4.06834009,14.5344262 C2.71615559,14.1783607 1.36462591,13.5140984 1.36462591,11.3285246 C1.36462591,8.33639344 4.06834009,7.00655738 6.7249079,7.00655738 C8.10001078,7.00655738 9.47511366,7.22098361 10.7330054,7.79081967 L9.28652812,10.5455738" id="Fill-6"></path>
                        <path d="M26.0791535,25.6740984 L21.7632949,25.6740984 L21.7632949,18.4308197 C20.8609655,19.4990164 19.3915699,19.9980328 17.992239,19.9980328 C14.363277,19.9980328 11.897914,17.0518033 11.897914,13.5377049 C11.897914,10.0701639 14.4346514,7.00655738 18.0400402,7.00655738 C19.4629442,7.00655738 20.9572227,7.57704918 21.7168034,8.78754098 L21.7632949,8.78754098 L21.7632949,7.40983607 L26.0791535,7.40983607 L26.0791535,25.6740984 L26.0791535,25.6740984 Z M16.3552117,13.5140984 C16.3552117,15.0577049 17.3754071,16.2465574 19.1296455,16.2465574 C20.8858483,16.2465574 21.9053889,15.0577049 21.9053889,13.5140984 C21.9053889,12.0177049 20.8858483,10.7593443 19.1296455,10.7593443 C17.3754071,10.7593443 16.3552117,12.0177049 16.3552117,13.5140984 L16.3552117,13.5140984 Z" id="Fill-7"></path>
                        <path d="M56.8120481,19.5940984 L52.4961895,19.5940984 L52.4961895,18.2406557 L52.4483883,18.2406557 C51.6894625,19.4504918 50.1958388,19.9980328 48.7722799,19.9980328 C45.167546,19.9980328 42.6308085,16.9809836 42.6308085,13.4904918 C42.6308085,10 45.1203996,7.00655738 48.7251335,7.00655738 C50.1238096,7.00655738 51.5951697,7.52983607 52.4961895,8.59868852 L52.4961895,7.40983607 L56.8120481,7.40983607 L56.8120481,19.5940984 L56.8120481,19.5940984 Z M47.0881063,13.5140984 C47.0881063,15.0577049 48.1083017,16.2465574 49.8631949,16.2465574 C51.6187429,16.2465574 52.6382835,15.0577049 52.6382835,13.5140984 C52.6382835,12.0177049 51.6187429,10.7593443 49.8631949,10.7593443 C48.1083017,10.7593443 47.0881063,12.0177049 47.0881063,13.5140984 L47.0881063,13.5140984 Z" id="Fill-8"></path>
                        <path d="M63.1355569,9.40459016 L63.1846677,9.40459016 C64.014968,7.90885246 65.4365624,7.24393443 67.1187716,7.24393443 L67.9503814,7.24393443 L67.9503814,11.4006557 C67.3571228,11.0681967 66.7880921,10.9960656 66.1254235,10.9960656 C63.7288156,10.9960656 63.1355569,12.5881967 63.1355569,14.6780328 L63.1355569,19.5934426 L58.7980896,19.5934426 L58.7980896,7.40918033 L63.1355569,7.40918033 L63.1355569,9.40459016" id="Fill-9"></path>
                        <path d="M81.9063661,14.2262295 L72.8234841,14.2262295 C72.8234841,15.984918 73.7467675,16.935082 75.5265435,16.935082 C76.4511365,16.935082 77.1157695,16.624918 77.5911623,15.8177049 L81.7406989,15.8177049 C81.0531475,18.6911475 78.3238956,19.9980328 75.5501167,19.9980328 C71.5191008,19.9980328 68.5069707,17.717377 68.5069707,13.5140984 C68.5069707,9.45311475 71.2814045,7.00655738 75.2423556,7.00655738 C79.4626118,7.00655738 81.9063661,9.61967213 81.9063661,13.7757377 L81.9063661,14.2262295 L81.9063661,14.2262295 Z M77.8989234,11.7337705 C77.6834906,10.5691803 76.6168036,9.80983607 75.4564787,9.80983607 C74.198587,9.80983607 73.1554733,10.4747541 72.8942037,11.7337705 L77.8989234,11.7337705 L77.8989234,11.7337705 Z" id="Fill-10"></path>
                        <polyline id="Fill-11" points="36.7355461 7.41311475 36.7355461 16.4386885 32.2847964 16.4386885 32.2847964 7.41311475 28.0056072 7.41311475 28.0056072 19.9311475 41.0140804 19.9311475 41.0140804 7.41311475 36.7355461 7.41311475"></polyline>
                        <polyline id="Fill-12" points="38.8571334 4.97967213 34.0842167 7.80786885 31.2600173 3.02819672 36.0322791 0.2 38.8571334 4.97967213"></polyline>
                    </g>
                </g>
            </g>
        </g>
    </g>
</svg>