<?xml version="1.0" encoding="UTF-8" standalone="no"?>
<svg width="125px" height="125px" viewBox="0 0 125 125" version="1.1" xmlns="http://www.w3.org/2000/svg" xmlns:xlink="http://www.w3.org/1999/xlink">
    <!-- Generator: Sketch 3.8.3 (29802) - http://www.bohemiancoding.com/sketch -->
    <title>money</title>
    <desc>Created with Sketch.</desc>
    <defs>
        <path d="M62.5,0 C27.9825,0 0,27.9825 0,62.5 C0,97.02 27.9825,125 62.5,125 C97.0175,125 125,97.01875 125,62.5 C125,27.9825 97.0175,0 62.5,0 L62.5,0 Z" id="path-1"></path>
    </defs>
    <g id="FinalV2" stroke="none" stroke-width="1" fill="none" fill-rule="evenodd">
        <g id="Landing-V1" transform="translate(-450.000000, -774.000000)">
            <g id="Group-+-a-+-a-+-lock" transform="translate(112.000000, 608.000000)">
                <g id="Group">
                    <g id="PROTECTION-+-lock-+-SAVINGS-+-money-+-CONVENIENT-+-customer2" transform="translate(109.000000, 166.000000)">
                        <g id="SAVINGS-+-money" transform="translate(229.000000, 0.000000)">
                            <g id="money">
                                <g id="Group">
                                    <path d="M62.5,0 C27.9825,0 0,27.9825 0,62.5 C0,97.02 27.9825,125 62.5,125 C97.0175,125 125,97.01875 125,62.5 C125,27.9825 97.0175,0 62.5,0 L62.5,0 Z" id="Shape" fill="#E5E8E9"></path>
                                    <g id="Clipped">
                                        <mask id="mask-2" fill="white">
                                            <use xlink:href="#path-1"></use>
                                        </mask>
                                        <use id="a" fill="#E5E8E9" xlink:href="#path-1"></use>
                                        <g id="Group" mask="url(#mask-2)">
                                            <g transform="translate(18.750000, 33.577586)" id="Shape">
                                                <path d="M2.01625,27.0374138 L48.75125,17.7236638 C50.11,17.4524138 51.4325,18.3299138 51.70375,19.6799138 L68.7,104.116164 C68.9725,105.467414 68.0925,106.783664 66.73375,107.053664 L19.99875,116.368664 C18.64,116.638664 17.3175,115.762414 17.04625,114.411164 L0.05,29.9749138 C-0.2225,28.6236638 0.6575,27.3086638 2.01625,27.0374138 L2.01625,27.0374138 Z" fill="#2B8272"></path>
                                                <path d="M47.01625,23.6824138 C46.88,23.0036638 46.215,22.5636638 45.53375,22.6999138 L6.0125,30.5761638 C5.33,30.7111638 4.88875,31.3724138 5.02375,32.0511638 L9.22875,52.9399138 C9.365,53.6174138 10.03,54.0586638 10.7125,53.9211638 C11.395,53.7861638 11.83625,53.1249138 11.7,52.4461638 L7.7425,32.7849138 L44.79375,25.4024138 L48.75125,45.0624138 C48.8875,45.7411638 49.5525,46.1811638 50.235,46.0449138 C50.91625,45.9099138 51.35875,45.2474138 51.2225,44.5699138 L47.01625,23.6824138 L47.01625,23.6824138 Z" fill="#4B9587"></path>
                                                <path d="M14.90625,12.7686638 L62.33375,8.14741379 C63.71375,8.01366379 64.94125,9.01741379 65.07625,10.3899138 L73.5925,96.0974138 C73.72875,97.4699138 72.7225,98.6899138 71.3425,98.8249138 L23.915,103.446164 C22.535,103.579914 21.3075,102.577414 21.1725,101.203664 L12.65625,15.4961638 C12.52,14.1236638 13.52625,12.9024138 14.90625,12.7686638 L14.90625,12.7686638 Z" fill="#359685"></path>
                                                <path d="M60.01625,13.9036638 C59.9475,13.2149138 59.33125,12.7111638 58.63875,12.7786638 L18.53,16.6849138 C17.8375,16.7524138 17.33125,17.3661638 17.4,18.0549138 L19.50875,39.2574138 C19.5775,39.9474138 20.19375,40.4499138 20.88625,40.3824138 C21.57875,40.3149138 22.08375,39.7024138 22.015,39.0124138 L20.0325,19.0574138 L57.635,15.3949138 L59.61875,35.3511638 C59.6875,36.0399138 60.30375,36.5449138 60.99625,36.4761638 C61.68875,36.4074138 62.19375,35.7949138 62.125,35.1061638 L60.01625,13.9036638 L60.01625,13.9036638 Z" fill="#52A597"></path>
                                                <path d="M31.25,0.171163793 L78.75,0.171163793 C80.13,0.171163793 81.25,1.29116379 81.25,2.67116379 L81.25,91.4211638 C81.25,92.8011638 80.13,93.9211638 78.75,93.9211638 L31.25,93.9211638 C29.87,93.9211638 28.75,92.8011638 28.75,91.4211638 L28.75,2.67116379 C28.75,1.29116379 29.87,0.171163793 31.25,0.171163793 L31.25,0.171163793 Z" fill="#3DB39E"></path>
                                                <path d="M55,20.1711638 C56.38,20.1711638 57.5,19.0511638 57.5,17.6711638 C57.5,16.2911638 56.38,15.1711638 55,15.1711638 C53.62,15.1711638 52.5,16.2911638 52.5,17.6711638 C52.5,19.0511638 53.62,20.1711638 55,20.1711638 L55,20.1711638 Z M55,81.4211638 C56.38,81.4211638 57.5,80.3011638 57.5,78.9211638 C57.5,77.5411638 56.38,76.4211638 55,76.4211638 C53.62,76.4211638 52.5,77.5411638 52.5,78.9211638 C52.5,80.3011638 53.62,81.4211638 55,81.4211638 L55,81.4211638 Z M75,5.17116379 L35,5.17116379 C34.30875,5.17116379 33.75,5.73116379 33.75,6.42116379 L33.75,28.9211638 C33.75,29.6124138 34.30875,30.1711638 35,30.1711638 C35.69125,30.1711638 36.25,29.6124138 36.25,28.9211638 L36.25,7.67116379 L73.75,7.67116379 L73.75,28.9211638 C73.75,29.6124138 74.30875,30.1711638 75,30.1711638 C75.69125,30.1711638 76.25,29.6124138 76.25,28.9211638 L76.25,6.42116379 C76.25,5.73116379 75.69125,5.17116379 75,5.17116379 L75,5.17116379 Z M75,67.6711638 C74.30875,67.6711638 73.75,68.2311638 73.75,68.9211638 L73.75,91.4211638 L36.25,91.4211638 L36.25,68.9211638 C36.25,68.2311638 35.69125,67.6711638 35,67.6711638 C34.30875,67.6711638 33.75,68.2311638 33.75,68.9211638 L33.75,92.6711638 C33.75,93.3611638 34.30875,93.9211638 35,93.9211638 L75,93.9211638 C75.69125,93.9211638 76.25,93.3611638 76.25,92.6711638 L76.25,68.9211638 C76.25,68.2311638 75.69125,67.6711638 75,67.6711638 L75,67.6711638 Z M55,30.1711638 C44.645,30.1711638 36.25,38.5661638 36.25,48.9211638 C36.25,59.2761638 44.645,67.6711638 55,67.6711638 C65.355,67.6711638 73.75,59.2761638 73.75,48.9211638 C73.75,38.5661638 65.355,30.1711638 55,30.1711638 L55,30.1711638 Z M65.08125,50.1961638 L63.63375,50.1961638 C63.385,52.1461638 62.58625,53.7549138 61.3875,54.5849138 C61.1625,54.7311638 60.88875,54.8274138 60.58875,54.8274138 C59.865,54.8274138 59.26625,54.2424138 59.26625,53.5111638 C59.26625,53.1711638 59.465,52.8286638 59.81375,52.4624138 C60.56375,51.7074138 61.1375,50.4386638 61.1375,49.0499138 C61.1375,47.0261638 60.165,46.2686638 59.16625,46.2686638 C55.8975,46.2686638 57.42,55.1686638 51.18,55.1686638 C48.435,55.1686638 46.63875,53.4624138 46.31375,50.1949138 L44.91625,50.1949138 C44.2675,50.1949138 43.74375,49.6824138 43.74375,49.0486638 C43.74375,48.4386638 44.26875,47.9274138 44.91625,47.9274138 L46.31375,47.9274138 C46.6125,45.5624138 47.91,43.7099138 49.2825,42.8799138 C49.4825,42.7574138 49.73125,42.6849138 49.9825,42.6849138 C50.73125,42.6849138 51.33,43.2711638 51.33,43.9774138 C51.33,44.5136638 51.03125,44.8061638 50.78125,45.0499138 C49.7325,46.0736638 48.885,47.3674138 48.885,49.0486638 C48.885,51.2661638 49.63375,52.3399138 51.18,52.3399138 C54.82375,52.3399138 53.15125,43.4411638 59.16625,43.4411638 C61.38625,43.4411638 63.3075,44.8061638 63.65875,47.9274138 L65.08125,47.9274138 C65.73,47.9274138 66.25375,48.4386638 66.25375,49.0486638 C66.255,49.6824138 65.73,50.1961638 65.08125,50.1961638 L65.08125,50.1961638 Z" fill="#81CEC0"></path>
                                            </g>
                                        </g>
                                    </g>
                                </g>
                            </g>
                        </g>
                    </g>
                </g>
            </g>
        </g>
    </g>
</svg>