<?xml version="1.0" encoding="UTF-8" standalone="no"?>
<svg width="18px" height="16px" viewBox="0 0 18 16" version="1.1" xmlns="http://www.w3.org/2000/svg" xmlns:xlink="http://www.w3.org/1999/xlink">
    <!-- Generator: Sketch 3.8.3 (29802) - http://www.bohemiancoding.com/sketch -->
    <title>Icons/Twitter</title>
    <desc>Created with Sketch.</desc>
    <defs></defs>
    <g id="FinalV2" stroke="none" stroke-width="1" fill="none" fill-rule="evenodd">
        <g id="Landing-V1" transform="translate(-859.000000, -3780.000000)" fill="#FFFFFF">
            <g id="Footer" transform="translate(0.000000, 3708.000000)">
                <g id="Imported-Layers-+-Shape-+-Icons/Twitter-+-Icons/Facebook-+-Group-+-Group-+-Group-Copy" transform="translate(111.000000, 71.000000)">
                    <g id="Shape-+-Icons/Twitter-+-Icons/Facebook" transform="translate(721.000000, 0.000000)">
                        <g id="Icons/Twitter" transform="translate(27.000000, 1.000000)">
                            <path d="M18.02,2.531 C17.376,2.819 16.684,3.012 15.957,3.1 C16.699,2.653 17.268,1.946 17.537,1.103 C16.842,1.517 16.074,1.817 15.255,1.979 C14.6,1.277 13.667,0.84 12.633,0.84 C10.649,0.84 9.041,2.455 9.041,4.448 C9.041,4.73 9.073,5.006 9.134,5.271 C6.149,5.12 3.502,3.683 1.73,1.5 C1.421,2.033 1.244,2.653 1.244,3.314 C1.244,4.566 1.878,5.671 2.842,6.317 C2.253,6.299 1.699,6.137 1.215,5.866 L1.215,5.911 C1.215,7.66 2.453,9.119 4.096,9.449 C3.795,9.532 3.477,9.576 3.15,9.576 C2.918,9.576 2.693,9.554 2.474,9.511 C2.931,10.945 4.257,11.988 5.829,12.017 C4.6,12.985 3.051,13.562 1.368,13.562 C1.078,13.562 0.792,13.545 0.511,13.512 C2.101,14.535 3.989,15.133 6.018,15.133 C12.625,15.133 16.238,9.634 16.238,4.866 C16.238,4.709 16.235,4.554 16.228,4.399 C16.93,3.89 17.539,3.255 18.02,2.531"></path>
                        </g>
                    </g>
                </g>
            </g>
        </g>
    </g>
</svg>